<svg width="44" height="44" viewBox="0 0 44 44" fill="none" xmlns="http://www.w3.org/2000/svg">
<g id="Facebook">
<path id="Oval 10" opacity="0.1" fill-rule="evenodd" clip-rule="evenodd" d="M22 43C33.598 43 43 33.598 43 22C43 10.402 33.598 1 22 1C10.402 1 1 10.402 1 22C1 33.598 10.402 43 22 43Z" stroke="#062834" stroke-width="1.5"/>
<path id="Shape" d="M23.9116 16.6249H25.8417C26.0193 16.6249 26.1634 16.4891 26.1634 16.3218V14.5031C26.1634 14.3357 26.0193 14.2 25.8417 14.2H23.9116C21.961 14.2 20.3732 15.6955 20.3732 17.5342V19.6561H18.1215C17.9439 19.6561 17.7998 19.7919 17.7998 19.9592V21.7779C17.7998 21.9452 17.9439 22.081 18.1215 22.081H20.3732V28.4465C20.3732 28.6138 20.5173 28.7496 20.6949 28.7496H22.6249C22.8025 28.7496 22.9466 28.6138 22.9466 28.4465V22.081H25.1983C25.3367 22.081 25.4595 21.9973 25.5039 21.8737L26.1473 20.055C26.1801 19.9628 26.1634 19.861 26.1029 19.7816C26.0418 19.7027 25.9453 19.6561 25.8417 19.6561H22.9466V17.5342C22.9466 17.0329 23.3796 16.6249 23.9116 16.6249Z" fill="#4E0515"/>
</g>
</svg>
