<svg width="44" height="44" viewBox="0 0 44 44" fill="none" xmlns="http://www.w3.org/2000/svg">
<g id="Twitter">
<path id="Oval 10 Copy" opacity="0.1" fill-rule="evenodd" clip-rule="evenodd" d="M22 43C33.598 43 43 33.598 43 22C43 10.402 33.598 1 22 1C10.402 1 1 10.402 1 22C1 33.598 10.402 43 22 43Z" stroke="#062834" stroke-width="1.5"/>
<path id="Shape" d="M28.8644 18.1172C28.767 18.0071 28.6099 17.9794 28.481 18.0473C28.4008 18.0895 28.2502 18.1449 28.0713 18.1997C28.297 17.891 28.4784 17.5454 28.5586 17.2348C28.5932 17.1009 28.5426 16.9597 28.4323 16.8799C28.322 16.8008 28.1751 16.8008 28.0649 16.8799C27.8911 17.0046 27.0524 17.3792 26.5221 17.5006C25.3237 16.4209 23.9291 16.3088 22.4793 17.1794C21.3007 17.887 21.0443 19.3261 21.0943 20.2033C18.3967 19.9362 16.7199 18.4707 15.7761 17.2579C15.71 17.1728 15.6036 17.1279 15.5036 17.1345C15.3984 17.1424 15.3035 17.2025 15.2496 17.2955C14.8034 18.0704 14.6796 18.9271 14.8931 19.7733C15.0098 20.235 15.2137 20.6419 15.4503 20.9717C15.3369 20.9143 15.2272 20.8424 15.124 20.7567C15.0291 20.6762 14.8963 20.661 14.7841 20.7145C14.6726 20.7692 14.6014 20.8853 14.6014 21.0126C14.6014 22.4655 15.485 23.435 16.3102 23.9415C16.1768 23.925 16.0377 23.8947 15.8973 23.8505C15.7767 23.8129 15.6459 23.8505 15.5626 23.9481C15.4792 24.0451 15.4593 24.1836 15.5113 24.3016C15.9749 25.3562 16.8533 26.0817 17.9402 26.3449C16.9912 26.918 15.7209 27.1989 14.5578 27.0611C14.4071 27.0393 14.2635 27.1376 14.216 27.2867C14.1686 27.4357 14.2308 27.5993 14.3635 27.6758C16.1281 28.6948 17.7234 29.0588 19.102 29.0588C21.1084 29.0588 22.6569 28.2885 23.5995 27.6441C26.1406 25.9096 27.7244 22.7953 27.5038 20.0088C27.911 19.6994 28.5201 19.1283 28.8978 18.5143C28.976 18.3903 28.9619 18.2267 28.8644 18.1172Z" fill="#4E0515"/>
</g>
</svg>
