<svg width="44" height="44" viewBox="0 0 44 44" fill="none" xmlns="http://www.w3.org/2000/svg">
<g id="Linkedin">
<path id="Oval 10 Copy 3" opacity="0.1" fill-rule="evenodd" clip-rule="evenodd" d="M22 43C33.598 43 43 33.598 43 22C43 10.402 33.598 1 22 1C10.402 1 1 10.402 1 22C1 33.598 10.402 43 22 43Z" stroke="#062834" stroke-width="1.5"/>
<g id="Group 36">
<path id="Oval" d="M17.1806 17.7602C18.1639 17.7602 18.9609 16.9632 18.9609 15.98C18.9609 14.9968 18.1639 14.1997 17.1806 14.1997C16.1974 14.1997 15.4004 14.9968 15.4004 15.98C15.4004 16.9632 16.1974 17.7602 17.1806 17.7602Z" fill="#4E0515"/>
<path id="Shape" d="M18.6642 18.949H15.6971C15.5333 18.949 15.4004 19.0819 15.4004 19.2457V28.147C15.4004 28.3108 15.5333 28.4437 15.6971 28.4437H18.6642C18.828 28.4437 18.9609 28.3108 18.9609 28.147V19.2457C18.9609 19.0819 18.828 18.949 18.6642 18.949Z" fill="#4E0515"/>
<path id="Shape_2" d="M27.5051 18.4558C26.2369 18.0214 24.6507 18.403 23.6995 19.0872C23.6668 18.9596 23.5505 18.8647 23.4122 18.8647H20.4451C20.2814 18.8647 20.1484 18.9976 20.1484 19.1614V28.0627C20.1484 28.2265 20.2814 28.3594 20.4451 28.3594H23.4122C23.576 28.3594 23.709 28.2265 23.709 28.0627V21.6656C24.1884 21.2526 24.8062 21.1209 25.3118 21.3357C25.802 21.5428 26.0826 22.0484 26.0826 22.7219V28.0627C26.0826 28.2265 26.2156 28.3594 26.3793 28.3594H29.3464C29.5102 28.3594 29.6432 28.2265 29.6432 28.0627V22.1243C29.6093 19.686 28.4623 18.7834 27.5051 18.4558Z" fill="#4E0515"/>
</g>
</g>
</svg>
