<?xml version="1.0" standalone="no"?>
<!DOCTYPE svg PUBLIC "-//W3C//DTD SVG 1.1//EN" "http://www.w3.org/Graphics/SVG/1.1/DTD/svg11.dtd" >
<svg xmlns="http://www.w3.org/2000/svg" xmlns:xlink="http://www.w3.org/1999/xlink" version="1.1">
<metadata>
Created by FontForge 20200427 at Fri Sep 11 22:39:17 2015
 By www
Copyright (c) 2015 by Kostas Bartsokas. All rights reserved.
</metadata>
<defs>
<font id="AvertaStd-LightItalic" horiz-adv-x="548" >
  <font-face 
    font-family="AvertaStd-LightItalic"
    font-weight="400"
    font-style="italic"
    font-stretch="normal"
    units-per-em="1000"
    panose-1="0 0 4 0 0 0 0 0 0 0"
    ascent="785"
    descent="-215"
    x-height="485"
    cap-height="710"
    bbox="-109 -339 1323 974"
    underline-thickness="28"
    underline-position="-81"
    slope="-7"
    unicode-range="U+0020-2715"
  />
<missing-glyph horiz-adv-x="404" 
 />
    <glyph glyph-name=".notdef" horiz-adv-x="404" 
 />
    <glyph glyph-name=".null" horiz-adv-x="0" 
 />
    <glyph glyph-name="nonmarkingreturn" horiz-adv-x="333" 
 />
    <glyph glyph-name="space" unicode=" " horiz-adv-x="228" 
 />
    <glyph glyph-name="exclam" unicode="!" horiz-adv-x="232" 
d="M95 195l57 541h58l-76 -541h-39zM101 75q17 0 28 -11.5t11 -27.5q0 -18 -11.5 -29.5t-28.5 -11.5q-16 0 -27.5 11.5t-11.5 27.5q0 18 11.5 29.5t28.5 11.5z" />
    <glyph glyph-name="quotedbl" unicode="&#x22;" horiz-adv-x="294" 
d="M137 710h58l-72 -229h-44zM245 710h58l-73 -229h-44z" />
    <glyph glyph-name="numbersign" unicode="#" horiz-adv-x="579" 
d="M472 656h41l-55 -214h115l-5 -42h-123l-44 -173h126l-5 -43h-133l-55 -214h-41l56 214h-157l-56 -214h-40l55 214h-110l5 43h117l45 173h-122l5 42h129l54 214h41l-55 -214h157zM405 400h-157l-45 -173h158z" />
    <glyph glyph-name="dollar" unicode="$" horiz-adv-x="527" 
d="M293 365q5 -3 25 -14t26 -14.5t23.5 -14t23.5 -15.5t19.5 -15.5t19 -17.5t14 -18.5t12 -21.5t6.5 -23t3 -26q0 -86 -56 -136.5t-146 -52.5l-15 -120h-46l15 123q-52 8 -98 35t-74 70l42 39q28 -48 72.5 -71.5t94.5 -23.5q68 0 111 36.5t43 94.5q0 10 -2 19t-7.5 18
t-9.5 15.5t-14.5 15t-16.5 13t-20.5 13.5t-21 13t-24 13.5t-24.5 13.5q-32 18 -46.5 26.5t-41 27.5t-38.5 34.5t-22.5 40t-10.5 51.5q0 76 53.5 123.5t136.5 49.5l15 126h46l-15 -129q86 -14 142 -80l-40 -37q-56 69 -143 69q-59 0 -98.5 -32t-39.5 -84q0 -23 9 -41.5
t30.5 -36t37 -27t50.5 -29.5z" />
    <glyph glyph-name="percent" unicode="%" horiz-adv-x="949" 
d="M690 701l-365 -713l-43 19l365 714zM279 714q79 0 130 -49.5t51 -128.5q0 -91 -58.5 -150.5t-143.5 -59.5q-77 0 -127.5 50.5t-50.5 129.5q0 87 58 147.5t141 60.5zM278 670q-63 0 -107.5 -47.5t-44.5 -116.5q0 -60 37.5 -98t95.5 -38q65 0 110 46.5t45 118.5
q0 60 -38.5 97.5t-97.5 37.5zM710 383q79 0 130 -49.5t51 -128.5q0 -90 -59 -150t-143 -60q-77 0 -128 50.5t-51 129.5q0 87 58.5 147.5t141.5 60.5zM709 339q-63 0 -107.5 -47.5t-44.5 -116.5q0 -60 37.5 -98t95.5 -38q65 0 109.5 46.5t44.5 118.5q0 60 -38 97.5t-97 37.5z
" />
    <glyph glyph-name="ampersand" unicode="&#x26;" horiz-adv-x="728" 
d="M717 424l-6 -49h-169q-13 -168 -94 -274t-226 -106q-79 0 -127.5 48t-48.5 128q0 77 40.5 139t107.5 91q-62 41 -62 115q0 84 58 141.5t145 57.5q73 0 113.5 -36t50.5 -93l-49 -16q-6 43 -34.5 69.5t-78.5 27.5q-69 0 -109.5 -42.5t-40.5 -108.5q0 -37 21.5 -64.5
t55.5 -27.5h453zM228 46q114 0 183.5 92t79.5 237h-218q-67 0 -119 -61t-52 -138q0 -58 33.5 -94t92.5 -36z" />
    <glyph glyph-name="quotesingle" unicode="'" horiz-adv-x="187" 
d="M137 710h58l-72 -229h-44z" />
    <glyph glyph-name="parenleft" unicode="(" horiz-adv-x="257" 
d="M118 171q0 -146 47 -294l-46 -20q-51 145 -51 306q0 153 42.5 303.5t121.5 269.5l38 -19q-73 -117 -112.5 -260t-39.5 -286z" />
    <glyph glyph-name="parenright" unicode=")" horiz-adv-x="258" 
d="M203 427q0 -300 -160 -568l-39 16q148 263 148 545q0 164 -48 295l43 23q56 -131 56 -311z" />
    <glyph glyph-name="asterisk" unicode="*" horiz-adv-x="391" 
d="M334 461l-88 67l-13 -129h-38l19 129l-103 -68l-16 35l108 59l-94 61l23 34l89 -67l12 128h38l-19 -128l104 67l16 -34l-108 -60l94 -60z" />
    <glyph glyph-name="plus" unicode="+" 
d="M484 252h-184l-26 -208h-49l25 208h-185l6 49h185l26 208h50l-26 -208h184z" />
    <glyph glyph-name="comma" unicode="," horiz-adv-x="192" 
d="M51 100h58l-76 -229h-41z" />
    <glyph glyph-name="hyphen" unicode="-" horiz-adv-x="388" 
d="M331 282h-264l6 52h264z" />
    <glyph glyph-name="period" unicode="." horiz-adv-x="216" 
d="M83 75q17 0 28 -11.5t11 -27.5q0 -18 -11.5 -29.5t-28.5 -11.5q-16 0 -27.5 11.5t-11.5 27.5q0 18 11.5 29.5t28.5 11.5z" />
    <glyph glyph-name="slash" unicode="/" horiz-adv-x="355" 
d="M424 737l-451 -851l-39 20l452 852z" />
    <glyph glyph-name="zero" unicode="0" horiz-adv-x="580" 
d="M348 692q87 0 137.5 -66t50.5 -195q0 -112 -29 -208.5t-94 -162t-155 -65.5q-85 0 -137 66.5t-52 193.5q0 82 17.5 158.5t51 139.5t88.5 101t122 38zM345 640q-55 0 -98.5 -35t-69.5 -92t-39.5 -123.5t-13.5 -135.5q0 -103 38 -155t98 -52q74 0 126 60.5t73.5 144.5
t21.5 180q0 104 -36.5 156t-99.5 52z" />
    <glyph glyph-name="one" unicode="1" horiz-adv-x="342" 
d="M249 687h46l-85 -687h-54l76 613l-142 -108l-26 43z" />
    <glyph glyph-name="two" unicode="2" horiz-adv-x="473" 
d="M99 54v-3h301l-7 -51h-383l5 41l238 235q66 65 102.5 123.5t36.5 124.5q0 49 -27.5 82.5t-78.5 33.5q-49 0 -95 -30t-69 -81l-41 30q29 59 86 95.5t125 36.5q67 0 111 -45.5t44 -116.5q0 -78 -39.5 -145t-110.5 -136z" />
    <glyph glyph-name="three" unicode="3" horiz-adv-x="486" 
d="M336 358q91 -38 91 -144q0 -98 -63 -158.5t-161 -60.5q-75 0 -124 37t-64 97l51 20q25 -102 136 -102q76 0 123 48t47 125q0 52 -32 82.5t-97 30.5h-60l6 49h59q67 0 108 45t41 110q0 49 -30.5 76t-81.5 27q-92 0 -152 -81l-45 27q76 106 200 106q73 0 118.5 -38.5
t45.5 -109.5q0 -66 -31 -114t-85 -71v-1z" />
    <glyph glyph-name="four" unicode="4" horiz-adv-x="512" 
d="M376 176h94l-6 -50h-94l-16 -126h-54l15 126h-299l5 42l371 519h46zM322 175l49 399l-283 -399h234z" />
    <glyph glyph-name="five" unicode="5" horiz-adv-x="509" 
d="M481 636h-272l-38 -227q55 23 112 23q82 0 128.5 -46.5t46.5 -132.5q0 -113 -69 -185.5t-175 -72.5q-66 0 -115 33t-70 90l46 27q17 -47 53 -73t86 -26q83 0 136 58t53 145q0 65 -35 99t-99 34q-80 0 -126 -40l-35 10l59 335h320z" />
    <glyph glyph-name="six" unicode="6" horiz-adv-x="539" 
d="M325 428q71 0 116 -48t45 -127q0 -110 -68.5 -183.5t-171.5 -73.5q-85 0 -136 56t-51 152q0 170 104.5 319.5t263.5 185.5l8 -48q-109 -29 -188.5 -113.5t-112.5 -196.5h1q79 77 190 77zM247 47q75 0 129.5 58.5t54.5 145.5q0 58 -33 92t-92 34q-61 0 -112.5 -33.5
t-78.5 -86.5q-2 -30 -2 -46q0 -75 36 -119.5t98 -44.5z" />
    <glyph glyph-name="seven" unicode="7" horiz-adv-x="454" 
d="M87 687h382l-5 -42l-337 -655l-54 13l327 633h-319z" />
    <glyph glyph-name="eight" unicode="8" horiz-adv-x="533" 
d="M372 372q48 -14 76 -53.5t28 -95.5q0 -102 -69.5 -164.5t-177.5 -62.5q-87 0 -137 44t-50 119q0 72 40 130t109 81v1q-32 13 -54.5 43.5t-22.5 77.5q0 87 59.5 143t150.5 56q72 0 116.5 -39t44.5 -104q0 -59 -31.5 -107.5t-81.5 -67.5v-1zM315 642q-64 0 -106 -41.5
t-42 -103.5q0 -49 32 -75t86 -26q61 0 104 40t43 102q0 50 -31 77t-86 27zM238 46q77 0 129.5 50t52.5 123q0 61 -37.5 93t-101.5 32q-80 0 -131.5 -50t-51.5 -122q0 -59 38 -92.5t102 -33.5z" />
    <glyph glyph-name="nine" unicode="9" horiz-adv-x="539" 
d="M324 692q84 0 132.5 -55.5t48.5 -164.5q0 -112 -48 -218t-135 -182t-192 -96l-7 48q113 26 196.5 114.5t115.5 205.5l-2 1q-37 -41 -88.5 -64.5t-106.5 -23.5q-76 0 -118.5 45.5t-42.5 122.5q0 112 70.5 189.5t176.5 77.5zM250 308q57 0 110.5 33t89.5 95q1 14 1 41
q-6 163 -132 163q-81 0 -134.5 -59.5t-53.5 -148.5q0 -56 30 -90t89 -34z" />
    <glyph glyph-name="colon" unicode=":" horiz-adv-x="214" 
d="M134 491q16 0 27.5 -11.5t11.5 -27.5q0 -18 -11.5 -29.5t-28.5 -11.5t-28 11.5t-11 27.5q0 18 11.5 29.5t28.5 11.5zM83 75q17 0 28 -11.5t11 -27.5q0 -18 -11.5 -29.5t-28.5 -11.5q-16 0 -27.5 11.5t-11.5 27.5q0 18 11.5 29.5t28.5 11.5z" />
    <glyph glyph-name="semicolon" unicode=";" horiz-adv-x="208" 
d="M129 491q17 0 28 -11.5t11 -27.5q0 -18 -11.5 -29.5t-28.5 -11.5q-16 0 -27.5 11.5t-11.5 27.5q0 18 11.5 29.5t28.5 11.5zM62 100h58l-76 -229h-41z" />
    <glyph glyph-name="less" unicode="&#x3c;" horiz-adv-x="533" 
d="M439 107l-6 -53l-372 207l4 38l423 209l-6 -54l-344 -174z" />
    <glyph glyph-name="equal" unicode="=" horiz-adv-x="541" 
d="M508 364h-419l6 49h419zM481 140h-419l6 49h419z" />
    <glyph glyph-name="greater" unicode="&#x3e;" horiz-adv-x="531" 
d="M60 107l345 173l-302 174l6 54l372 -209l-4 -38l-423 -207z" />
    <glyph glyph-name="question" unicode="?" horiz-adv-x="410" 
d="M114 612l-34 35q33 46 81 70t100 24q67 0 108 -42t41 -113q0 -60 -28 -107.5t-80 -100.5l-46 -46t-29 -37.5t-19 -46.5l-9 -56h-47l6 56q1 11 5 22.5t7 20t11.5 20.5t12 17.5t15.5 19t15 17t18.5 19.5t17.5 18q46 49 68.5 88t22.5 90q0 52 -28 80t-74 28q-84 0 -135 -76z
M165 75q17 0 28 -11.5t11 -27.5q0 -18 -11.5 -29.5t-28.5 -11.5q-16 0 -27.5 11.5t-11.5 27.5q0 18 11.5 29.5t28.5 11.5z" />
    <glyph glyph-name="at" unicode="@" horiz-adv-x="906" 
d="M653 44q-44 0 -67 29.5t-22 75.5h-2q-67 -93 -172 -93q-66 0 -104.5 42.5t-38.5 120.5q0 104 59 176t158 72q86 0 130 -49h2l5 45h52l-34 -276q-4 -53 4.5 -75.5t44.5 -22.5q47 0 81 36.5t48 82.5t14 90q0 140 -87.5 227t-229.5 87q-100 0 -179 -36.5t-124 -95.5
t-68 -123.5t-23 -129.5q0 -139 89 -229.5t222 -90.5q127 0 222 53l22 -33q-105 -62 -244 -62q-153 0 -254 101.5t-101 260.5q0 53 14 108.5t48 113.5t82.5 102.5t125 73t168.5 28.5q161 0 261 -97.5t100 -256.5q0 -41 -10.5 -83t-33 -82t-63.5 -65t-95 -25zM403 104
q59 0 111.5 54t65.5 130l10 84q-45 45 -120 45q-77 0 -123 -57.5t-46 -136.5q0 -57 26 -88t76 -31z" />
    <glyph glyph-name="A" unicode="A" horiz-adv-x="613" 
d="M494 0l-41 191h-305l-87 -191h-59l331 710h60l159 -710h-58zM172 242h270l-86 398h-2z" />
    <glyph glyph-name="B" unicode="B" horiz-adv-x="594" 
d="M417 372q112 -28 112 -143q0 -102 -69.5 -165.5t-178.5 -63.5h-214l87 710h211q173 0 173 -140q0 -63 -31.5 -117.5t-88.5 -77.5zM204 659l-33 -265h150q69 0 114 48.5t45 119.5q0 97 -128 97h-148zM272 52q86 0 142.5 48.5t56.5 126.5q0 115 -151 115h-154l-37 -290h143
z" />
    <glyph glyph-name="C" unicode="C" horiz-adv-x="679" 
d="M604 114q-49 -54 -116 -86.5t-139 -32.5q-123 0 -198 79.5t-75 219.5q0 172 102 296.5t257 124.5q149 0 243 -151l-48 -32q-74 130 -196 130q-87 0 -157 -52.5t-107 -136t-37 -178.5q0 -114 58.5 -180.5t160.5 -66.5q55 0 111 26.5t99 74.5z" />
    <glyph glyph-name="D" unicode="D" horiz-adv-x="677" 
d="M251 0h-184l87 710h190q137 0 211 -77t74 -213q0 -186 -104 -303t-274 -117zM255 52q141 0 229 103.5t88 263.5q0 113 -60.5 176.5t-172.5 63.5h-134l-75 -607h125z" />
    <glyph glyph-name="E" unicode="E" horiz-adv-x="552" 
d="M477 52l-6 -52h-404l87 710h384l-6 -51h-328l-35 -279h273l-6 -51h-273l-34 -277h348z" />
    <glyph glyph-name="F" unicode="F" horiz-adv-x="536" 
d="M204 659l-36 -286h296l-6 -52h-295l-40 -321h-56l87 710h401l-6 -51h-345z" />
    <glyph glyph-name="G" unicode="G" horiz-adv-x="711" 
d="M644 354l-32 -267q-50 -45 -118.5 -68.5t-138.5 -23.5q-129 0 -204 79t-75 219q0 173 102 297.5t257 124.5q144 0 231 -113l-44 -36q-77 96 -188 96q-130 0 -215.5 -109t-85.5 -259q0 -115 59 -180.5t166 -65.5q116 0 201 69l23 185h-208l6 52h264z" />
    <glyph glyph-name="H" unicode="H" horiz-adv-x="675" 
d="M635 710l-87 -710h-55l38 310h-370l-38 -310h-56l87 710h56l-43 -348h370l43 348h55z" />
    <glyph glyph-name="I" unicode="I" horiz-adv-x="262" 
d="M129 0h-56l87 710h56z" />
    <glyph glyph-name="J" unicode="J" horiz-adv-x="458" 
d="M52 129q50 -81 128 -81q114 0 136 180l59 482h56l-59 -485q-28 -230 -190 -230q-109 0 -168 94z" />
    <glyph glyph-name="K" unicode="K" horiz-adv-x="599" 
d="M609 710l-293 -330l211 -380h-68l-184 332h-2l-128 -143l-22 -189h-56l87 710h56l-53 -428h2l379 428h71z" />
    <glyph glyph-name="L" unicode="L" horiz-adv-x="515" 
d="M461 52l-6 -52h-388l87 710h56l-81 -658h332z" />
    <glyph glyph-name="M" unicode="M" horiz-adv-x="814" 
d="M716 710h59l-87 -710h-55l72 595h-2l-286 -446h-41l-179 448h-1l-73 -597h-56l87 710h58l192 -489h2z" />
    <glyph glyph-name="N" unicode="N" horiz-adv-x="704" 
d="M607 710h56l-86 -710h-59l-318 609h-2l-75 -609h-56l87 710h57l320 -613h1z" />
    <glyph glyph-name="O" unicode="O" horiz-adv-x="766" 
d="M438 715q128 0 204 -78t76 -218q0 -176 -100.5 -300t-263.5 -124q-128 0 -203.5 79t-75.5 218q0 112 44.5 208t128.5 155.5t190 59.5zM357 48q134 0 218.5 109t84.5 261q0 118 -60 181t-166 63q-88 0 -157.5 -52.5t-106.5 -136.5t-37 -181q0 -116 60 -180t164 -64z" />
    <glyph glyph-name="P" unicode="P" horiz-adv-x="569" 
d="M374 710q91 0 136 -45.5t45 -128.5q0 -113 -66.5 -180.5t-184.5 -67.5h-146l-35 -288h-56l87 710h220zM311 339q87 0 137 53.5t50 143.5q0 62 -37 92.5t-97 30.5h-160l-39 -320h146z" />
    <glyph glyph-name="Q" unicode="Q" horiz-adv-x="778" 
d="M718 419q0 -184 -104 -305l74 -83l-37 -40l-76 85q-92 -81 -221 -81q-128 0 -203.5 79t-75.5 218q0 112 44.5 208t128.5 155.5t190 59.5q128 0 204 -78t76 -218zM357 48q104 0 181 69l-75 85l37 39l75 -84q85 107 85 261q0 118 -60 181t-166 63q-88 0 -157.5 -52.5
t-106.5 -136.5t-37 -181q0 -116 60 -180t164 -64z" />
    <glyph glyph-name="R" unicode="R" horiz-adv-x="600" 
d="M365 293l-1 -2l144 -291h-65l-140 288h-145l-35 -288h-56l87 710h222q90 0 135.5 -45.5t45.5 -128.5q0 -97 -50.5 -162t-141.5 -81zM204 659l-39 -320h148q87 0 137 54t50 143q0 62 -37 92.5t-98 30.5h-161z" />
    <glyph glyph-name="S" unicode="S" horiz-adv-x="545" 
d="M296 391q6 -3 18 -10q35 -19 52 -29.5t43.5 -29.5t39 -35t22.5 -40t10 -50q0 -93 -62.5 -147.5t-160.5 -54.5q-67 0 -128 30t-98 85l43 39q31 -50 79 -75.5t102 -25.5q73 0 120 39.5t47 103.5q0 23 -10 42.5t-30.5 36t-41.5 29.5t-53 30q-11 6 -17 9q-38 21 -50.5 28.5
t-43 29.5t-42.5 38t-23.5 41.5t-11.5 54.5q0 83 59.5 134t153.5 51q54 0 105.5 -23t86.5 -64l-42 -38q-58 72 -154 72q-65 0 -108.5 -35t-42.5 -90q0 -25 9.5 -45.5t33.5 -39.5t40.5 -29.5t54.5 -31.5z" />
    <glyph glyph-name="T" unicode="T" horiz-adv-x="520" 
d="M539 659h-201l-81 -659h-55l80 659h-199l6 51h456z" />
    <glyph glyph-name="U" unicode="U" horiz-adv-x="660" 
d="M578 283q-35 -288 -280 -288q-105 0 -157 62.5t-52 171.5q0 34 4 62l52 419h55l-52 -420q-4 -42 -4 -58q0 -86 38 -135t118 -49q93 0 150.5 58.5t72.5 177.5l52 426h55z" />
    <glyph glyph-name="V" unicode="V" horiz-adv-x="606" 
d="M568 710h63l-329 -710h-54l-156 710h59l132 -627h2z" />
    <glyph glyph-name="W" unicode="W" horiz-adv-x="925" 
d="M885 710h60l-292 -710h-58l-85 615h-3l-235 -615h-58l-118 710h58l98 -614h3l232 614h65l83 -612h1z" />
    <glyph glyph-name="X" unicode="X" horiz-adv-x="595" 
d="M613 710l-264 -357l178 -353h-65l-154 308h-3l-230 -308h-67l266 355l-177 355h63l155 -311h1l228 311h69z" />
    <glyph glyph-name="Y" unicode="Y" horiz-adv-x="538" 
d="M510 710h66l-269 -390l-40 -320h-56l40 320l-172 390h61l142 -334h2z" />
    <glyph glyph-name="Z" unicode="Z" horiz-adv-x="569" 
d="M549 664l-440 -610l-1 -2h369l-6 -52h-438l6 46l438 611l1 2h-344l6 51h414z" />
    <glyph glyph-name="bracketleft" unicode="[" horiz-adv-x="284" 
d="M183 684l-97 -784h109l-5 -43h-156l107 870h156l-5 -43h-109z" />
    <glyph glyph-name="backslash" unicode="\" horiz-adv-x="361" 
d="M53 737l44 21l244 -852l-45 -20z" />
    <glyph glyph-name="bracketright" unicode="]" horiz-adv-x="285" 
d="M211 684h-110l5 43h157l-106 -870h-158l5 43h111z" />
    <glyph glyph-name="asciicircum" unicode="^" horiz-adv-x="442" 
d="M101 500l154 210h45l103 -210h-50l-79 170l-122 -170h-51z" />
    <glyph glyph-name="underscore" unicode="_" horiz-adv-x="471" 
d="M436 -68h-477l5 40h476z" />
    <glyph glyph-name="grave" unicode="`" horiz-adv-x="468" 
d="M249 683l90 -139h-57l-95 139h62z" />
    <glyph glyph-name="a" unicode="a" 
d="M451 485h51l-59 -485h-52l16 126h-2q-34 -59 -83 -95t-107 -36q-79 0 -123 55t-44 139q0 124 69.5 212.5t178.5 88.5q96 0 146 -56h2zM223 43q76 0 134.5 77t70.5 183l10 79q-24 31 -64 45t-76 14q-87 0 -141.5 -74.5t-54.5 -178.5q0 -65 31.5 -105t89.5 -40z" />
    <glyph glyph-name="b" unicode="b" horiz-adv-x="561" 
d="M344 490q82 0 125 -56t43 -148q0 -119 -71.5 -205t-193.5 -86q-112 0 -187 51l85 690h52l-45 -368h2q35 57 84 89.5t106 32.5zM244 44q98 0 156.5 72.5t58.5 175.5q0 67 -31 108t-92 41q-79 0 -137 -76t-70 -183l-14 -112q53 -26 129 -26z" />
    <glyph glyph-name="c" unicode="c" horiz-adv-x="487" 
d="M232 -4q-78 0 -131 53t-53 147q0 123 70 208.5t185 85.5q110 0 163 -79l-42 -31q-41 61 -122 61q-90 0 -145.5 -70t-55.5 -172q0 -70 38.5 -112.5t95.5 -42.5q95 0 152 69l41 -30q-75 -87 -196 -87z" />
    <glyph glyph-name="d" unicode="d" horiz-adv-x="560" 
d="M484 736h52l-90 -736h-52l15 128h-1q-34 -60 -84 -96.5t-109 -36.5q-79 0 -123 55t-44 139q0 124 69.5 212.5t178.5 88.5q100 0 149 -53h2zM223 43q73 0 130 69t75 169l12 98q-42 62 -142 62q-87 0 -141.5 -75t-54.5 -178q0 -65 31.5 -105t89.5 -40z" />
    <glyph glyph-name="e" unicode="e" horiz-adv-x="473" 
d="M240 44q78 0 139 69l41 -30q-76 -87 -182 -87q-86 0 -138 54t-52 147q0 122 70.5 207.5t181.5 85.5q53 0 99.5 -29t46.5 -88q0 -46 -31 -81.5t-84 -57.5t-109.5 -34.5t-120.5 -18.5q4 -64 42.5 -100.5t96.5 -36.5zM297 441q-75 0 -131 -59.5t-65 -153.5q52 4 100 14
t93 26.5t72 43t27 58.5q0 38 -30 54.5t-66 16.5z" />
    <glyph glyph-name="f" unicode="f" horiz-adv-x="302" 
d="M350 668q-30 24 -74 24q-71 0 -84 -109l-12 -98h134l-5 -46h-135l-53 -439h-53l54 439h-56l5 46h57l13 109q17 147 130 147q55 0 94 -26z" />
    <glyph glyph-name="g" unicode="g" horiz-adv-x="550" 
d="M451 485h52l-52 -421q-10 -79 -33.5 -133t-59.5 -82.5t-76.5 -40t-93.5 -11.5q-84 0 -160 41l17 49q70 -41 145 -41q89 0 141.5 47t68.5 175l9 75h-1q-34 -60 -84.5 -96.5t-108.5 -36.5q-79 0 -123 55t-44 139q0 114 70 200t178 86q96 0 147 -57h1zM223 58
q75 0 133.5 74.5t71.5 170.5l10 78q-25 31 -65 45.5t-75 14.5q-86 0 -141 -72.5t-55 -165.5q0 -65 31.5 -105t89.5 -40z" />
    <glyph glyph-name="h" unicode="h" 
d="M360 490q147 0 120 -198l-38 -292h-52l38 289q20 152 -81 152q-66 0 -131 -66.5t-82 -158.5l-26 -216h-52l90 736h52l-45 -369h1q41 58 96 90.5t110 32.5z" />
    <glyph glyph-name="i" unicode="i" horiz-adv-x="229" 
d="M165 674q17 0 28 -11t11 -28t-11.5 -29t-29.5 -12q-16 0 -27 11t-11 28q0 18 11.5 29.5t28.5 11.5zM118 485h52l-59 -485h-52z" />
    <glyph glyph-name="j" unicode="j" horiz-adv-x="195" 
d="M143 674q17 0 28 -11t11 -28t-11.5 -29t-29.5 -12q-16 0 -27 11t-11 28q0 18 11.5 29.5t28.5 11.5zM-95 -140q20 -15 49 -15q31 0 50 22.5t26 82.5l66 535h52l-66 -541q-10 -75 -39.5 -111t-83.5 -36q-36 0 -66 18z" />
    <glyph glyph-name="k" unicode="k" horiz-adv-x="488" 
d="M346 138q24 -57 40 -76t40 -24l-15 -42q-7 -1 -17 1q-22 3 -39.5 20.5t-26 34t-26.5 58.5q-3 7 -5 11l-34 79h-2q-68 -56 -141 -91l-14 -109h-52l91 736h52l-69 -568h2q101 57 176.5 143.5t103.5 173.5h54q-35 -128 -161 -248z" />
    <glyph glyph-name="l" unicode="l" horiz-adv-x="223" 
d="M150 736h53l-90 -736h-52z" />
    <glyph glyph-name="m" unicode="m" horiz-adv-x="827" 
d="M646 490q143 0 117 -198l-39 -292h-52l38 289q20 152 -76 152q-56 0 -113 -64.5t-75 -153.5l-30 -223h-52l38 289q20 152 -75 152q-58 0 -117.5 -66.5t-75.5 -157.5l-26 -217h-52l59 485h52l-14 -113h2q38 55 87 86.5t97 31.5q109 0 119 -118h1q37 56 86.5 87t100.5 31z
" />
    <glyph glyph-name="n" unicode="n" horiz-adv-x="547" 
d="M359 490q147 0 120 -198l-38 -292h-52l38 289q20 152 -81 152q-66 0 -131 -66t-82 -158l-26 -217h-52l59 485h52l-14 -119h1q40 58 95 91t111 33z" />
    <glyph glyph-name="o" unicode="o" horiz-adv-x="546" 
d="M302 490q90 0 143.5 -52t53.5 -146q0 -127 -69 -212t-184 -85q-91 0 -144.5 53.5t-53.5 149.5q0 121 70 206.5t184 85.5zM300 441q-86 0 -142.5 -69t-56.5 -169q0 -74 39.5 -116.5t106.5 -42.5q87 0 142.5 69t55.5 176q0 75 -40 113.5t-105 38.5z" />
    <glyph glyph-name="p" unicode="p" horiz-adv-x="559" 
d="M347 490q78 0 121.5 -55t43.5 -139q0 -124 -69.5 -212.5t-180.5 -88.5q-96 0 -148 56h-2l-30 -249h-52l84 683h52l-15 -122h1q76 127 195 127zM257 44q90 0 146 74t56 181q0 62 -31.5 102t-89.5 40q-74 0 -131 -69t-76 -169l-11 -95q20 -33 59 -48.5t78 -15.5z" />
    <glyph glyph-name="q" unicode="q" horiz-adv-x="551" 
d="M451 485h51l-83 -683h-52l40 323h-3q-34 -59 -83 -94.5t-106 -35.5q-79 0 -123 55t-44 139q0 124 69.5 212.5t178.5 88.5q94 0 145 -55h3zM223 43q71 0 127.5 69t75.5 169l12 101q-24 31 -64 45t-76 14q-87 0 -141.5 -75t-54.5 -178q0 -65 31.5 -105t89.5 -40z" />
    <glyph glyph-name="r" unicode="r" horiz-adv-x="309" 
d="M155 373q63 98 167 117l-8 -62q-69 -7 -117.5 -63.5t-62.5 -144.5l-27 -220h-52l59 485h52l-14 -112h3z" />
    <glyph glyph-name="s" unicode="s" horiz-adv-x="410" 
d="M51 104q54 -61 131 -61q52 0 84.5 23.5t32.5 63.5q0 44 -59 74q-12 6 -56 25q-55 23 -86 52t-31 77q0 60 45 96t109 36q89 0 145 -61l-35 -36q-44 49 -113 49q-42 0 -70 -22t-28 -60q0 -30 24.5 -50t69.5 -39q2 -1 18.5 -8.5t20 -9.5t18.5 -9t19 -10.5t16 -11.5t16 -13.5
t11.5 -14.5t10.5 -17t5.5 -19t2.5 -22q1 -67 -47.5 -104t-122.5 -37q-104 0 -165 73z" />
    <glyph glyph-name="t" unicode="t" horiz-adv-x="338" 
d="M265 79l7 -50q-49 -34 -110 -34q-104 0 -87 136l38 308h-57l5 46h58l20 168l53 9l-22 -177h155l-5 -46h-155l-37 -302q-5 -45 5 -68t43 -23q42 0 89 33z" />
    <glyph glyph-name="u" unicode="u" horiz-adv-x="529" 
d="M429 485h52l-59 -485h-52l14 113h-3q-35 -54 -84 -86t-102 -32q-153 0 -129 197l36 293h52l-35 -290q-11 -84 12.5 -117.5t75.5 -33.5q62 0 121.5 66t73.5 156z" />
    <glyph glyph-name="v" unicode="v" horiz-adv-x="489" 
d="M193 -5q-75 0 -106.5 50.5t-18.5 159.5l35 280h52l-35 -277q-11 -91 9.5 -127.5t67.5 -36.5q69 0 131.5 82t72.5 211q5 68 -7 148h54q12 -70 7 -137q-6 -90 -33 -160.5t-65 -111t-80 -61t-84 -20.5z" />
    <glyph glyph-name="w" unicode="w" horiz-adv-x="691" 
d="M650 485q14 -78 6 -150q-14 -164 -82.5 -252t-145.5 -88q-92 0 -108 96h-1q-27 -47 -65.5 -71.5t-75.5 -24.5q-135 0 -111 203l36 287h52l-35 -283q-19 -158 68 -158q44 0 84 54t50 133l32 254h52l-36 -288q-18 -153 65 -153q56 0 108 86t61 212q5 63 -7 143h53z" />
    <glyph glyph-name="x" unicode="x" horiz-adv-x="456" 
d="M452 485l-192 -241l134 -244h-62l-109 199h-1l-156 -199h-62l193 245l-133 240h61l106 -199h2l155 199h64z" />
    <glyph glyph-name="y" unicode="y" horiz-adv-x="528" 
d="M429 485h52l-51 -421q-8 -63 -25.5 -111t-40.5 -77.5t-54 -47.5t-61.5 -24.5t-66.5 -6.5q-79 0 -155 41l17 48q68 -40 139 -40q78 0 128.5 47.5t66.5 174.5l6 52h-2q-35 -58 -84.5 -91.5t-104.5 -33.5q-153 0 -129 197l36 293h52l-35 -290q-11 -84 12.5 -117.5
t75.5 -33.5q65 0 126 69.5t72 163.5h1z" />
    <glyph glyph-name="z" unicode="z" horiz-adv-x="434" 
d="M411 446l-327 -399v-1q213 0 286 -25l-14 -45q-54 16 -125 20t-223 4l5 42l325 395v2h-263l5 46h336z" />
    <glyph glyph-name="braceleft" unicode="{" horiz-adv-x="305" 
d="M267 727h40l-5 -40h-24q-27 0 -46.5 -20t-23.5 -51l-29 -235q-6 -44 -19 -65t-45 -28v-2q29 -8 37.5 -29.5t3.5 -66.5l-26 -211q-5 -44 6.5 -63t42.5 -19h27l-5 -39h-39q-40 0 -63 27.5t-17 73.5l28 232q1 19 1 34.5t-14.5 26.5t-46.5 13l3 44q25 2 41 9t24 19t10.5 21.5
t4.5 26.5l31 242q5 43 32.5 71.5t70.5 28.5z" />
    <glyph glyph-name="bar" unicode="|" horiz-adv-x="284" 
d="M179 737h47l-105 -852h-47z" />
    <glyph glyph-name="braceright" unicode="}" horiz-adv-x="306" 
d="M207 383q-1 -18 -1.5 -33.5t14.5 -26.5t47 -14l-3 -44q-25 -2 -41 -8.5t-24 -18.5t-10.5 -22t-4.5 -27l-29 -232q-6 -46 -35 -72.5t-69 -26.5h-41l5 39h25q32 0 49 20t22 64l27 211q5 47 18 67t46 28v2q-29 7 -38 30t-3 65l29 235q4 30 -10 49t-41 19h-27l5 40h39
q42 0 64 -29.5t17 -72.5z" />
    <glyph glyph-name="asciitilde" unicode="~" horiz-adv-x="523" 
d="M70 242q44 91 114 91q36 0 85 -29q55 -33 79 -33q48 0 75 58l39 -16q-20 -44 -49.5 -68t-61.5 -24q-9 0 -19 2t-16 3.5t-16 6.5l-13 6.5t-14 8.5l-11 6q-48 29 -74 29q-48 0 -80 -58z" />
    <glyph glyph-name="exclamdown" unicode="&#xa1;" horiz-adv-x="226" 
d="M124 410q-16 0 -27.5 11t-11.5 28q0 18 11.5 29.5t28.5 11.5t28 -11t11 -28q0 -18 -11.5 -29.5t-28.5 -11.5zM130 290l-57 -541h-58l76 541h39z" />
    <glyph glyph-name="cent" unicode="&#xa2;" horiz-adv-x="496" 
d="M250 99q95 0 153 68l41 -30q-65 -75 -161 -85l-13 -110h-44l13 108q-75 3 -125 56t-50 143q0 118 64.5 202.5t171.5 92.5l14 115h44l-14 -115q92 -10 138 -78l-42 -31q-40 61 -120 61q-91 0 -147 -71t-56 -174q0 -68 38.5 -110t94.5 -42z" />
    <glyph glyph-name="sterling" unicode="&#xa3;" horiz-adv-x="514" 
d="M466 556q-35 81 -112 81q-124 0 -146 -179l-7 -57h153l-5 -43h-153l-37 -306h302l-6 -52h-434l6 52h76l38 306h-60l5 43h60l8 65q15 119 68.5 171.5t127.5 52.5q52 0 91.5 -26t60.5 -73z" />
    <glyph glyph-name="currency" unicode="&#xa4;" horiz-adv-x="463" 
d="M418 410q0 -84 -55 -144l59 -74l-30 -27l-59 75q-48 -35 -108 -35q-62 0 -102 35l-75 -74l-25 28l76 75q-22 36 -22 85q0 86 53 149l-60 75l31 27l58 -74q50 37 110 37q59 0 100 -36l75 74l26 -27l-77 -76q25 -39 25 -93zM119 358q0 -50 29.5 -80.5t79.5 -30.5
q62 0 105 46.5t43 112.5q0 55 -30 88t-80 33q-62 0 -104.5 -49t-42.5 -120z" />
    <glyph glyph-name="yen" unicode="&#xa5;" horiz-adv-x="501" 
d="M539 687l-183 -283h100l-5 -38h-120l-45 -70l-1 -9h156l-4 -38h-157l-30 -249h-57l31 249h-161l5 38h161l1 9l-28 70h-124l5 38h104l-112 283h64l126 -334l209 334h65z" />
    <glyph glyph-name="brokenbar" unicode="&#xa6;" horiz-adv-x="284" 
d="M179 737h47l-43 -351h-47zM118 240h48l-44 -354h-48z" />
    <glyph glyph-name="section" unicode="&#xa7;" horiz-adv-x="492" 
d="M284 414q43 -19 60 -27.5t43 -26.5t36 -39.5t10 -50.5q0 -103 -105 -147q61 -41 61 -103q0 -79 -52.5 -125.5t-136.5 -46.5q-119 0 -177 90l36 37q21 -38 59.5 -57.5t81.5 -19.5q59 0 95.5 30.5t36.5 84.5q0 20 -7.5 36t-26.5 30t-36 23t-50 24q-38 17 -58 28t-43.5 29.5
t-33.5 40.5t-10 50q0 50 27.5 87.5t74.5 55.5q-54 39 -54 101q0 74 50.5 120t124.5 46q47 0 91 -18t70 -48l-35 -37q-48 52 -125 52q-50 0 -84.5 -30.5t-34.5 -79.5q0 -39 26.5 -61t85.5 -48zM281 149q98 31 98 114q0 20 -7 34.5t-27 27.5t-35 20.5t-50 23.5q-8 3 -44 20
q-42 -10 -68.5 -40.5t-26.5 -68.5q0 -19 7 -33.5t26.5 -29t34 -22.5t50.5 -26z" />
    <glyph glyph-name="dieresis" unicode="&#xa8;" horiz-adv-x="466" 
d="M204 659q16 0 27.5 -11.5t11.5 -27.5q0 -17 -11.5 -29t-29.5 -12q-16 0 -27 11t-11 28q0 18 11.5 29.5t28.5 11.5zM356 659q16 0 27.5 -11.5t11.5 -27.5q0 -17 -11.5 -29t-29.5 -12q-16 0 -27 11t-11 28q0 18 11.5 29.5t28.5 11.5z" />
    <glyph glyph-name="copyright" unicode="&#xa9;" horiz-adv-x="690" 
d="M346 615q123 0 208 -87.5t85 -209.5q0 -121 -86 -209t-209 -88q-122 0 -208 87.5t-86 209.5t86 209.5t210 87.5zM598 318q0 106 -73.5 181t-178.5 75q-107 0 -181 -75.5t-74 -181.5q0 -105 73.5 -180t179.5 -75t180 75.5t74 180.5zM353 191q60 0 97 47l29 -24
q-48 -60 -126 -60q-69 0 -115 42.5t-46 118.5q0 72 42.5 118.5t118.5 46.5q77 0 126 -62l-29 -23q-39 48 -97 48q-57 0 -89.5 -35t-32.5 -93t34 -91t88 -33z" />
    <glyph glyph-name="ordfeminine" unicode="&#xaa;" horiz-adv-x="373" 
d="M326 687h42l-36 -291h-41l7 60h-2q-47 -62 -114 -62q-45 0 -73.5 31t-28.5 86q0 75 43 127t111 52q55 0 87 -32h2zM189 434q41 0 76 35t45 89l7 59q-19 33 -79 33q-50 0 -82.5 -39t-32.5 -98q0 -37 17 -58t49 -21z" />
    <glyph glyph-name="guillemotleft" unicode="&#xab;" horiz-adv-x="413" 
d="M184 20h-51l-89 225l144 224h51l-142 -224zM335 20h-50l-89 225l143 224h51l-141 -224z" />
    <glyph glyph-name="logicalnot" unicode="&#xac;" horiz-adv-x="534" 
d="M458 175h-49l19 156h-349l6 48h398z" />
    <glyph glyph-name="registered" unicode="&#xae;" horiz-adv-x="691" 
d="M347 616q123 0 208.5 -88t85.5 -210t-86 -209.5t-210 -87.5q-123 0 -209 87.5t-86 209.5t86.5 210t210.5 88zM345 61q106 0 180 76t74 181q0 106 -73.5 181.5t-179.5 75.5q-107 0 -181 -76t-74 -182q0 -105 74 -180.5t180 -75.5zM462 385q0 -80 -79 -95l93 -132h-45
l-90 129h-58v-129h-37v324h111q53 0 79 -26.5t26 -70.5zM283 447v-125h65q75 0 75 63q0 29 -18.5 45.5t-50.5 16.5h-71z" />
    <glyph glyph-name="macron" unicode="&#xaf;" horiz-adv-x="429" 
d="M138 639h251l-6 -46h-252z" />
    <glyph glyph-name="degree" unicode="&#xb0;" horiz-adv-x="380" 
d="M247 715q49 0 80 -31.5t31 -84.5q0 -61 -40.5 -105.5t-103.5 -44.5q-51 0 -80.5 30t-29.5 79q0 65 41 111t102 46zM245 675q-43 0 -72 -32.5t-29 -81.5q0 -34 19.5 -53t53.5 -19q43 0 72 31t29 76q0 36 -19.5 57.5t-53.5 21.5z" />
    <glyph glyph-name="plusminus" unicode="&#xb1;" horiz-adv-x="543" 
d="M497 357h-184l-26 -208h-49l25 208h-185l6 49h185l26 208h50l-26 -208h184zM452 -1h-419l6 49h419z" />
    <glyph glyph-name="uni00B2" unicode="&#xb2;" horiz-adv-x="314" 
 />
    <glyph glyph-name="uni00B3" unicode="&#xb3;" horiz-adv-x="316" 
 />
    <glyph glyph-name="acute" unicode="&#xb4;" horiz-adv-x="466" 
d="M326 683h62l-129 -139h-57z" />
    <glyph glyph-name="uni00B5" unicode="&#xb5;" 
d="M499 48l10 -40q-26 -13 -58 -13q-78 0 -76 92h-2q-60 -92 -164 -92q-76 0 -102 71h-1q-2 -61 -7 -107l-20 -157h-52l84 683h52l-38 -308q-4 -70 21.5 -101.5t67.5 -31.5q64 0 116.5 55t63.5 154l29 232h52l-45 -358q-5 -44 1.5 -64t38.5 -20q11 0 29 5z" />
    <glyph glyph-name="paragraph" unicode="&#xb6;" horiz-adv-x="411" 
d="M239 641h121l-96 -790h-39l92 750h-53l-74 -601h-39l48 383q-52 1 -84 28.5t-32 77.5q0 63 42.5 107.5t113.5 44.5z" />
    <glyph glyph-name="periodcentered" unicode="&#xb7;" horiz-adv-x="208" 
d="M116 278q16 0 27.5 -11t11.5 -28q0 -18 -11.5 -29.5t-28.5 -11.5t-28 11t-11 28q0 18 11.5 29.5t28.5 11.5z" />
    <glyph glyph-name="cedilla" unicode="&#xb8;" horiz-adv-x="313" 
d="M113 -35q70 -5 70 -62q0 -37 -28.5 -63t-71.5 -26q-26 0 -45 7l3 33q14 -7 39 -7t44 14.5t19 40.5q0 34 -69 37l3 26l22 41h37l-24 -40z" />
    <glyph glyph-name="uni00B9" unicode="&#xb9;" horiz-adv-x="239" 
 />
    <glyph glyph-name="ordmasculine" unicode="&#xba;" horiz-adv-x="357" 
d="M233 690q53 0 85 -30.5t32 -88.5q0 -74 -41.5 -125.5t-110.5 -51.5q-54 0 -86 32t-32 90q0 71 42.5 122.5t110.5 51.5zM231 650q-45 0 -76 -38t-31 -92q0 -40 20.5 -63t56.5 -23q45 0 76 38.5t31 95.5q0 41 -21 61.5t-56 20.5z" />
    <glyph glyph-name="guillemotright" unicode="&#xbb;" horiz-adv-x="414" 
d="M23 20l142 225l-87 224h51l89 -224l-144 -225h-51zM176 20l141 225l-87 224h51l89 -224l-143 -225h-51z" />
    <glyph glyph-name="onequarter" unicode="&#xbc;" horiz-adv-x="683" 
d="M501 721l43 -20l-365 -713l-43 19zM178 299h-46l43 351l-85 -60l-20 36l122 84h36zM583 114h58l-5 -42h-58l-9 -72h-46l10 72h-181l4 33l227 306h37zM410 112h130l27 214z" />
    <glyph glyph-name="onehalf" unicode="&#xbd;" horiz-adv-x="716" 
d="M501 721l43 -20l-365 -713l-43 19zM178 299h-46l43 351l-85 -60l-20 36l122 84h36zM479 45v-2h178l-5 -43h-249l3 33l154 143q37 35 56.5 64t19.5 64q0 31 -16.5 49.5t-47.5 18.5q-25 0 -52 -16t-43 -44l-33 27q21 34 57 55.5t76 21.5q47 0 76.5 -28.5t29.5 -77.5
q0 -79 -86 -157z" />
    <glyph glyph-name="threequarters" unicode="&#xbe;" horiz-adv-x="747" 
d="M565 721l43 -20l-365 -713l-43 19zM309 425q0 -59 -40 -94.5t-101 -35.5q-49 0 -82.5 22.5t-44.5 59.5l44 16q16 -56 82 -56q42 0 68 25.5t26 65.5q0 29 -20.5 47t-56.5 18h-35l5 38h39q37 0 61 24t24 59q0 28 -18 43t-49 15q-55 0 -86 -45l-37 24q42 64 124 64
q49 0 80 -25t31 -69q0 -38 -18.5 -66t-51.5 -42v-1q56 -24 56 -87zM647 114h58l-5 -42h-58l-9 -72h-46l10 72h-181l4 33l227 306h37zM474 112h130l27 214z" />
    <glyph glyph-name="questiondown" unicode="&#xbf;" horiz-adv-x="381" 
d="M244 410q-16 0 -27.5 11t-11.5 28q0 18 11.5 29.5t28.5 11.5t28 -11t11 -28q0 -18 -11.5 -29.5t-28.5 -11.5zM295 -127q-51 -76 -135 -76q-46 0 -74 28t-28 80q0 51 22.5 90t68.5 88q4 4 16 16.5t16 17t14 15.5t14 16.5t12 15.5t11.5 17t8 17t7 19.5t3.5 19.5l6 56h-47
l-9 -56q-3 -22 -19 -46.5t-29 -37.5l-46 -46q-52 -53 -80 -100.5t-28 -107.5q0 -71 41 -113t108 -42q52 0 100 24t81 70z" />
    <glyph glyph-name="Agrave" unicode="&#xc0;" horiz-adv-x="613" 
d="M397 795h-57l-95 139h62zM494 0l-41 191h-305l-87 -191h-59l331 710h60l159 -710h-58zM172 242h270l-86 398h-2z" />
    <glyph glyph-name="Aacute" unicode="&#xc1;" horiz-adv-x="613" 
d="M546 934l-129 -139h-57l124 139h62zM494 0l-41 191h-305l-87 -191h-59l331 710h60l159 -710h-58zM172 242h270l-86 398h-2z" />
    <glyph glyph-name="Acircumflex" unicode="&#xc2;" horiz-adv-x="613" 
d="M389 901l-90 -106h-56l123 140h51l93 -140h-55l-64 106h-2zM494 0l-41 191h-305l-87 -191h-59l331 710h60l159 -710h-58zM172 242h270l-86 398h-2z" />
    <glyph glyph-name="Atilde" unicode="&#xc3;" horiz-adv-x="613" 
d="M326 873q-38 0 -64 -59l-35 17q36 87 95 87q30 0 68 -32t57 -32q38 0 62 60l35 -15q-17 -44 -41.5 -67t-51.5 -23q-7 0 -13 1t-12.5 4t-11 5t-11 7t-9 7t-9.5 8t-8 7q-32 25 -51 25zM494 0l-41 191h-305l-87 -191h-59l331 710h60l159 -710h-58zM172 242h270l-86 398h-2z
" />
    <glyph glyph-name="Adieresis" unicode="&#xc4;" horiz-adv-x="613" 
d="M309 831q-16 0 -27 11t-11 28q0 18 11.5 29.5t28.5 11.5t28 -11.5t11 -27.5q0 -17 -11.5 -29t-29.5 -12zM461 831q-16 0 -27 11t-11 28q0 18 11.5 29.5t28.5 11.5t28 -11.5t11 -27.5q0 -17 -11.5 -29t-29.5 -12zM494 0l-41 191h-305l-87 -191h-59l331 710h60l159 -710
h-58zM172 242h270l-86 398h-2z" />
    <glyph glyph-name="Aring" unicode="&#xc5;" horiz-adv-x="613" 
d="M383 785q-35 0 -58.5 23.5t-23.5 58.5q0 37 24 60.5t61 23.5q36 0 59.5 -23t23.5 -58q0 -37 -24.5 -61t-61.5 -24zM386 914q-21 0 -34.5 -13t-13.5 -33t13 -33t33 -13q21 0 34.5 13.5t13.5 34.5q0 19 -13 31.5t-33 12.5zM494 0l-41 191h-305l-87 -191h-59l331 710h60
l159 -710h-58zM172 242h270l-86 398h-2z" />
    <glyph glyph-name="AE" unicode="&#xc6;" horiz-adv-x="848" 
d="M830 659h-331l-34 -279h277l-6 -52h-278l-33 -276h347l-5 -52h-403l24 191h-228l-118 -191h-63l440 710h416zM394 242l50 408h-2l-251 -408h203z" />
    <glyph glyph-name="Ccedilla" unicode="&#xc7;" horiz-adv-x="679" 
d="M434 662q-87 0 -157 -52.5t-107 -136t-37 -178.5q0 -114 58.5 -180.5t160.5 -66.5q55 0 111 26.5t99 74.5l42 -35q-49 -54 -116 -86.5t-139 -32.5h-1l-17 -29l1 -1q70 -5 70 -62q0 -37 -28.5 -63t-71.5 -26q-26 0 -45 7l3 33q14 -7 39 -7t44 14.5t19 40.5q0 34 -69 37
l3 26l16 30l-1 2q-108 12 -171.5 90.5t-63.5 206.5q0 172 102 296.5t257 124.5q149 0 243 -151l-48 -32q-74 130 -196 130z" />
    <glyph glyph-name="Egrave" unicode="&#xc8;" horiz-adv-x="552" 
d="M350 937l90 -139h-57l-95 139h62zM477 52l-6 -52h-404l87 710h384l-6 -51h-328l-35 -279h273l-6 -51h-273l-34 -277h348z" />
    <glyph glyph-name="Eacute" unicode="&#xc9;" horiz-adv-x="552" 
d="M412 937h62l-129 -139h-57zM477 52l-6 -52h-404l87 710h384l-6 -51h-328l-35 -279h273l-6 -51h-273l-34 -277h348z" />
    <glyph glyph-name="Ecircumflex" unicode="&#xca;" horiz-adv-x="552" 
d="M377 903l-90 -106h-56l123 140h51l93 -140h-55l-64 106h-2zM532 659h-328l-35 -279h273l-6 -51h-273l-34 -277h348l-6 -52h-404l87 710h384z" />
    <glyph glyph-name="Edieresis" unicode="&#xcb;" horiz-adv-x="552" 
d="M299 913q17 0 28 -11.5t11 -27.5q0 -17 -11.5 -29t-29.5 -12q-16 0 -27 11t-11 28q0 18 11.5 29.5t28.5 11.5zM451 913q17 0 28 -11.5t11 -27.5q0 -17 -11.5 -29t-29.5 -12q-16 0 -27 11t-11 28q0 18 11.5 29.5t28.5 11.5zM477 52l-6 -52h-404l87 710h384l-6 -51h-328
l-35 -279h273l-6 -51h-273l-34 -277h348z" />
    <glyph glyph-name="Igrave" unicode="&#xcc;" horiz-adv-x="262" 
d="M132 934l90 -139h-57l-95 139h62zM129 0h-56l87 710h56z" />
    <glyph glyph-name="Iacute" unicode="&#xcd;" horiz-adv-x="262" 
d="M305 934h62l-129 -139h-57zM129 0h-56l87 710h56z" />
    <glyph glyph-name="Icircumflex" unicode="&#xce;" horiz-adv-x="262" 
d="M240 935l93 -140h-55l-64 106h-2l-90 -106h-56l123 140h51zM73 0l87 710h56l-87 -710h-56z" />
    <glyph glyph-name="Idieresis" unicode="&#xcf;" horiz-adv-x="262" 
d="M134 911q16 0 27.5 -11.5t11.5 -27.5q0 -17 -11.5 -29t-29.5 -12q-16 0 -27 11t-11 28q0 18 11.5 29.5t28.5 11.5zM286 911q16 0 27.5 -11.5t11.5 -27.5q0 -17 -11.5 -29t-29.5 -12q-16 0 -27 11t-11 28q0 18 11.5 29.5t28.5 11.5zM129 0h-56l87 710h56z" />
    <glyph glyph-name="Eth" unicode="&#xd0;" horiz-adv-x="676" 
d="M345 710q137 0 211 -77t74 -213q0 -186 -104 -303t-274 -117h-184l42 343h-57l6 51h57l39 316h190zM256 52q141 0 229 103.5t88 263.5q0 113 -60.5 176.5t-172.5 63.5h-134l-33 -265h150l-6 -51h-150l-36 -291h125z" />
    <glyph glyph-name="Ntilde" unicode="&#xd1;" horiz-adv-x="704" 
d="M373 873q-38 0 -64 -59l-35 17q36 87 95 87q30 0 68 -32t57 -32q38 0 62 60l35 -15q-35 -90 -93 -90q-7 0 -13 1t-12.5 4t-11 5t-11 7t-9 7t-9.5 8t-8 7q-32 25 -51 25zM607 710h56l-86 -710h-59l-318 609h-2l-75 -609h-56l87 710h57l320 -613h1z" />
    <glyph glyph-name="Ograve" unicode="&#xd2;" horiz-adv-x="766" 
d="M399 934l90 -139h-57l-95 139h62zM438 715q128 0 204 -78t76 -218q0 -176 -100.5 -300t-263.5 -124q-128 0 -203.5 79t-75.5 218q0 112 44.5 208t128.5 155.5t190 59.5zM357 48q134 0 218.5 109t84.5 261q0 118 -60 181t-166 63q-88 0 -157.5 -52.5t-106.5 -136.5
t-37 -181q0 -116 60 -180t164 -64z" />
    <glyph glyph-name="Oacute" unicode="&#xd3;" horiz-adv-x="766" 
d="M556 934h62l-129 -139h-57zM438 715q128 0 204 -78t76 -218q0 -176 -100.5 -300t-263.5 -124q-128 0 -203.5 79t-75.5 218q0 112 44.5 208t128.5 155.5t190 59.5zM357 48q134 0 218.5 109t84.5 261q0 118 -60 181t-166 63q-88 0 -157.5 -52.5t-106.5 -136.5t-37 -181
q0 -116 60 -180t164 -64z" />
    <glyph glyph-name="Ocircumflex" unicode="&#xd4;" horiz-adv-x="766" 
d="M471 901l-90 -106h-56l123 140h51l93 -140h-55l-64 106h-2zM438 715q128 0 204 -78t76 -218q0 -176 -100.5 -300t-263.5 -124q-128 0 -203.5 79t-75.5 218q0 112 44.5 208t128.5 155.5t190 59.5zM357 48q134 0 218.5 109t84.5 261q0 118 -60 181t-166 63
q-88 0 -157.5 -52.5t-106.5 -136.5t-37 -181q0 -116 60 -180t164 -64z" />
    <glyph glyph-name="Otilde" unicode="&#xd5;" horiz-adv-x="766" 
d="M309 831q36 87 95 87q30 0 68 -32t57 -32q38 0 62 60l35 -15q-17 -44 -41.5 -67t-51.5 -23q-7 0 -13 1t-12.5 4t-11 5t-11 7t-9 7t-9.5 8t-8 7q-32 25 -51 25q-38 0 -64 -59zM438 715q128 0 204 -78t76 -218q0 -176 -100.5 -300t-263.5 -124q-128 0 -203.5 79t-75.5 218
q0 112 44.5 208t128.5 155.5t190 59.5zM357 48q134 0 218.5 109t84.5 261q0 118 -60 181t-166 63q-88 0 -157.5 -52.5t-106.5 -136.5t-37 -181q0 -116 60 -180t164 -64z" />
    <glyph glyph-name="Odieresis" unicode="&#xd6;" horiz-adv-x="766" 
d="M393 911q17 0 28 -11.5t11 -27.5q0 -17 -11.5 -29t-29.5 -12q-16 0 -27 11t-11 28q0 18 11.5 29.5t28.5 11.5zM545 911q17 0 28 -11.5t11 -27.5q0 -17 -11.5 -29t-29.5 -12q-16 0 -27 11t-11 28q0 18 11.5 29.5t28.5 11.5zM438 715q128 0 204 -78t76 -218
q0 -176 -100.5 -300t-263.5 -124q-128 0 -203.5 79t-75.5 218q0 112 44.5 208t128.5 155.5t190 59.5zM357 48q134 0 218.5 109t84.5 261q0 118 -60 181t-166 63q-88 0 -157.5 -52.5t-106.5 -136.5t-37 -181q0 -116 60 -180t164 -64z" />
    <glyph glyph-name="multiply" unicode="&#xd7;" horiz-adv-x="473" 
d="M356 86l-120 156l-157 -156l-32 34l159 156l-120 156l38 35l119 -156l159 156l32 -34l-159 -157l120 -156z" />
    <glyph glyph-name="Oslash" unicode="&#xd8;" horiz-adv-x="766" 
d="M735 692l-72 -80q55 -75 55 -193q0 -176 -100.5 -300t-263.5 -124q-118 0 -191 67l-71 -78l-30 31l72 79q-59 76 -59 198q0 112 44.5 208t128.5 155.5t190 59.5q123 0 197 -71l70 77zM133 292q0 -93 40 -155l424 465q-58 60 -163 60q-88 0 -157.5 -52.5t-106.5 -136.5
t-37 -181zM660 418q0 91 -37 151l-422 -465q58 -56 156 -56q134 0 218.5 109t84.5 261z" />
    <glyph glyph-name="Ugrave" unicode="&#xd9;" horiz-adv-x="660" 
d="M335 934l90 -139h-57l-95 139h62zM578 283q-35 -288 -280 -288q-105 0 -157 62.5t-52 171.5q0 34 4 62l52 419h55l-52 -420q-4 -42 -4 -58q0 -86 38 -135t118 -49q93 0 150.5 58.5t72.5 177.5l52 426h55z" />
    <glyph glyph-name="Uacute" unicode="&#xda;" horiz-adv-x="660" 
d="M483 934h62l-129 -139h-57zM578 283q-35 -288 -280 -288q-105 0 -157 62.5t-52 171.5q0 34 4 62l52 419h55l-52 -420q-4 -42 -4 -58q0 -86 38 -135t118 -49q93 0 150.5 58.5t72.5 177.5l52 426h55z" />
    <glyph glyph-name="Ucircumflex" unicode="&#xdb;" horiz-adv-x="660" 
d="M413 901l-90 -106h-56l123 140h51l93 -140h-55l-64 106h-2zM575 710h55l-52 -427q-35 -288 -280 -288q-105 0 -157 62.5t-52 171.5q0 34 4 62l52 419h55l-52 -420q-4 -42 -4 -58q0 -86 38 -135t118 -49q93 0 150.5 58.5t72.5 177.5z" />
    <glyph glyph-name="Udieresis" unicode="&#xdc;" horiz-adv-x="660" 
d="M335 911q17 0 28 -11.5t11 -27.5q0 -17 -11.5 -29t-29.5 -12q-16 0 -27 11t-11 28q0 18 11.5 29.5t28.5 11.5zM487 911q17 0 28 -11.5t11 -27.5q0 -17 -11.5 -29t-29.5 -12q-16 0 -27 11t-11 28q0 18 11.5 29.5t28.5 11.5zM578 283q-35 -288 -280 -288q-105 0 -157 62.5
t-52 171.5q0 34 4 62l52 419h55l-52 -420q-4 -42 -4 -58q0 -86 38 -135t118 -49q93 0 150.5 58.5t72.5 177.5l52 426h55z" />
    <glyph glyph-name="Yacute" unicode="&#xdd;" horiz-adv-x="538" 
d="M488 934l-129 -139h-57l124 139h62zM510 710h66l-269 -390l-40 -320h-56l40 320l-172 390h61l142 -334h2z" />
    <glyph glyph-name="Thorn" unicode="&#xde;" horiz-adv-x="584" 
d="M141 140l-18 -140h-56l87 710h56l-18 -147h178q91 0 137 -46t46 -129q0 -113 -66.5 -180.5t-184.5 -67.5h-161zM309 191q87 0 136.5 54t49.5 144q0 61 -36.5 91.5t-97.5 30.5h-175l-40 -320h163z" />
    <glyph glyph-name="germandbls" unicode="&#xdf;" horiz-adv-x="586" 
d="M552 135q0 -67 -46.5 -103.5t-119.5 -36.5q-110 0 -169 73l35 36q27 -30 56.5 -45.5t77.5 -15.5q50 0 81.5 25t31.5 65q0 33 -23 53.5t-79 50.5q-62 33 -91 61.5t-26 74.5q1 14 4.5 26.5t11.5 24t14 19.5t20.5 19t20.5 15t23.5 15.5t21.5 14.5q36 25 55 47.5t19 53.5
q0 39 -34.5 61.5t-95.5 22.5t-108.5 -35.5t-57.5 -113.5l-67 -543h-52l68 552q11 93 72.5 141t143.5 48q86 0 134.5 -35t48.5 -95q0 -48 -26.5 -80t-77.5 -66q-57 -37 -71 -54q-13 -16 -14 -34q-2 -29 18.5 -48.5t69.5 -46.5q37 -20 52.5 -30t38.5 -29t31.5 -40t8.5 -48z
" />
    <glyph glyph-name="agrave" unicode="&#xe0;" 
d="M373 559h-57l-95 139h62zM451 485h51l-59 -485h-52l16 126h-2q-34 -59 -83 -95t-107 -36q-79 0 -123 55t-44 139q0 124 69.5 212.5t178.5 88.5q96 0 146 -56h2zM223 43q76 0 134.5 77t70.5 183l10 79q-24 31 -64 45t-76 14q-87 0 -141.5 -74.5t-54.5 -178.5
q0 -65 31.5 -105t89.5 -40z" />
    <glyph glyph-name="aacute" unicode="&#xe1;" 
d="M493 698l-129 -139h-57l124 139h62zM451 485h51l-59 -485h-52l16 126h-2q-34 -59 -83 -95t-107 -36q-79 0 -123 55t-44 139q0 124 69.5 212.5t178.5 88.5q96 0 146 -56h2zM223 43q76 0 134.5 77t70.5 183l10 79q-24 31 -64 45t-76 14q-87 0 -141.5 -74.5t-54.5 -178.5
q0 -65 31.5 -105t89.5 -40z" />
    <glyph glyph-name="acircumflex" unicode="&#xe2;" 
d="M352 664l-90 -106h-56l123 140h51l93 -140h-55l-64 106h-2zM451 485h51l-59 -485h-52l16 126h-2q-34 -59 -83 -95t-107 -36q-79 0 -123 55t-44 139q0 124 69.5 212.5t178.5 88.5q96 0 146 -56h2zM223 43q76 0 134.5 77t70.5 183l10 79q-24 31 -64 45t-76 14
q-87 0 -141.5 -74.5t-54.5 -178.5q0 -65 31.5 -105t89.5 -40z" />
    <glyph glyph-name="atilde" unicode="&#xe3;" 
d="M289 636q-38 0 -64 -59l-35 17q36 87 95 87q30 0 68 -32t57 -32q38 0 62 60l35 -15q-35 -90 -93 -90q-7 0 -13 1t-12.5 4t-11 5t-11 7t-9 7t-9.5 8t-8 7q-32 25 -51 25zM444 434l7 51h51l-59 -485h-52l16 126h-2q-34 -59 -83 -95t-107 -36q-79 0 -123 55t-44 139
q0 124 69.5 212.5t178.5 88.5q96 0 146 -56h2zM223 43q76 0 134.5 77t70.5 183l10 79q-24 31 -64 45t-76 14q-87 0 -141.5 -74.5t-54.5 -178.5q0 -65 31.5 -105t89.5 -40z" />
    <glyph glyph-name="adieresis" unicode="&#xe4;" 
d="M272 594q-16 0 -27 11t-11 28q0 18 11.5 29.5t28.5 11.5q16 0 27.5 -11t11.5 -28t-11.5 -29t-29.5 -12zM424 594q-16 0 -27 11t-11 28q0 18 11.5 29.5t28.5 11.5q16 0 27.5 -11t11.5 -28t-11.5 -29t-29.5 -12zM451 485h51l-59 -485h-52l16 126h-2q-34 -59 -83 -95
t-107 -36q-79 0 -123 55t-44 139q0 124 69.5 212.5t178.5 88.5q96 0 146 -56h2zM223 43q76 0 134.5 77t70.5 183l10 79q-24 31 -64 45t-76 14q-87 0 -141.5 -74.5t-54.5 -178.5q0 -65 31.5 -105t89.5 -40z" />
    <glyph glyph-name="aring" unicode="&#xe5;" 
d="M346 548q-35 0 -58.5 23.5t-23.5 58.5q0 37 24 60.5t61 23.5q36 0 59.5 -23t23.5 -58q0 -37 -24.5 -61t-61.5 -24zM349 677q-21 0 -34.5 -13t-13.5 -33t13 -33t33 -13q21 0 34.5 13.5t13.5 34.5q0 19 -13 31.5t-33 12.5zM451 485h51l-59 -485h-52l16 126h-2
q-34 -59 -83 -95t-107 -36q-79 0 -123 55t-44 139q0 124 69.5 212.5t178.5 88.5q96 0 146 -56h2zM223 43q76 0 134.5 77t70.5 183l10 79q-24 31 -64 45t-76 14q-87 0 -141.5 -74.5t-54.5 -178.5q0 -65 31.5 -105t89.5 -40z" />
    <glyph glyph-name="ae" unicode="&#xe6;" horiz-adv-x="667" 
d="M466 44q28 0 62.5 17.5t59.5 51.5l41 -30q-31 -41 -75 -64t-89 -23q-59 0 -102 29.5t-62 84.5h-2q-59 -114 -148 -115q-51 -1 -84.5 38.5t-33.5 107.5q0 142 89 237t229 95q38 0 72 -10q49 27 106 27q56 0 91 -29t35 -79q0 -81 -87 -135.5t-225 -82.5q8 -56 41 -88
t82 -32zM602 378q0 33 -23.5 48t-54.5 15q-77 0 -128 -66.5t-55 -166.5q113 25 187 68.5t74 101.5zM157 44q40 0 74.5 44t56.5 113q2 136 82 221v2h-26q-114 0 -186.5 -81.5t-71.5 -200.5q0 -42 18.5 -70t52.5 -28z" />
    <glyph glyph-name="ccedilla" unicode="&#xe7;" horiz-adv-x="487" 
d="M235 44q95 0 152 69l41 -30q-71 -83 -182 -87l-18 -30l1 -1q70 -5 70 -62q0 -37 -28.5 -63t-71.5 -26q-26 0 -45 7l3 33q14 -7 39 -7t44 14.5t19 40.5q0 34 -69 37l3 26l16 30v2q-70 8 -115.5 60t-45.5 139q0 123 70 208.5t185 85.5q110 0 163 -79l-42 -31
q-41 61 -122 61q-90 0 -145.5 -70t-55.5 -172q0 -70 38.5 -112.5t95.5 -42.5z" />
    <glyph glyph-name="egrave" unicode="&#xe8;" horiz-adv-x="473" 
d="M356 559h-57l-95 139h62zM240 44q78 0 139 69l41 -30q-76 -87 -182 -87q-86 0 -138 54t-52 147q0 122 70.5 207.5t181.5 85.5q53 0 99.5 -29t46.5 -88q0 -46 -31 -81.5t-84 -57.5t-109.5 -34.5t-120.5 -18.5q4 -64 42.5 -100.5t96.5 -36.5zM297 441q-75 0 -131 -59.5
t-65 -153.5q52 4 100 14t93 26.5t72 43t27 58.5q0 38 -30 54.5t-66 16.5z" />
    <glyph glyph-name="eacute" unicode="&#xe9;" horiz-adv-x="473" 
d="M463 698l-129 -139h-57l124 139h62zM446 373q0 -46 -31 -81.5t-84 -57.5t-109.5 -34.5t-120.5 -18.5q4 -64 42.5 -100.5t96.5 -36.5q78 0 139 69l41 -30q-76 -87 -182 -87q-86 0 -138 54t-52 147q0 122 70.5 207.5t181.5 85.5q53 0 99.5 -29t46.5 -88zM101 228
q52 4 100 14t93 26.5t72 43t27 58.5q0 38 -30 54.5t-66 16.5q-75 0 -131 -59.5t-65 -153.5z" />
    <glyph glyph-name="ecircumflex" unicode="&#xea;" horiz-adv-x="473" 
d="M322 664l-90 -106h-56l123 140h51l93 -140h-55l-64 106h-2zM240 44q78 0 139 69l41 -30q-76 -87 -182 -87q-86 0 -138 54t-52 147q0 122 70.5 207.5t181.5 85.5q53 0 99.5 -29t46.5 -88q0 -46 -31 -81.5t-84 -57.5t-109.5 -34.5t-120.5 -18.5q4 -64 42.5 -100.5
t96.5 -36.5zM297 441q-75 0 -131 -59.5t-65 -153.5q52 4 100 14t93 26.5t72 43t27 58.5q0 38 -30 54.5t-66 16.5z" />
    <glyph glyph-name="edieresis" unicode="&#xeb;" horiz-adv-x="473" 
d="M242 594q-16 0 -27 11t-11 28q0 18 11.5 29.5t28.5 11.5q16 0 27.5 -11t11.5 -28t-11.5 -29t-29.5 -12zM394 594q-16 0 -27 11t-11 28q0 18 11.5 29.5t28.5 11.5q16 0 27.5 -11t11.5 -28t-11.5 -29t-29.5 -12zM240 44q78 0 139 69l41 -30q-76 -87 -182 -87q-86 0 -138 54
t-52 147q0 122 70.5 207.5t181.5 85.5q53 0 99.5 -29t46.5 -88q0 -46 -31 -81.5t-84 -57.5t-109.5 -34.5t-120.5 -18.5q4 -64 42.5 -100.5t96.5 -36.5zM297 441q-75 0 -131 -59.5t-65 -153.5q52 4 100 14t93 26.5t72 43t27 58.5q0 38 -30 54.5t-66 16.5z" />
    <glyph glyph-name="igrave" unicode="&#xec;" horiz-adv-x="232" 
d="M123 702l59 -139h-56l-64 139h61zM118 485h52l-59 -485h-52z" />
    <glyph glyph-name="iacute" unicode="&#xed;" horiz-adv-x="234" 
d="M259 698h62l-129 -139h-57zM118 485h52l-59 -485h-52z" />
    <glyph glyph-name="icircumflex" unicode="&#xee;" horiz-adv-x="229" 
d="M194 698l93 -140h-55l-64 106h-2l-90 -106h-56l123 140h51zM59 0l59 485h52l-59 -485h-52z" />
    <glyph glyph-name="idieresis" unicode="&#xef;" horiz-adv-x="229" 
d="M88 674q16 0 27.5 -11t11.5 -28t-11.5 -29t-29.5 -12q-16 0 -27 11t-11 28q0 18 11.5 29.5t28.5 11.5zM238 674q16 0 27.5 -11t11.5 -28t-11.5 -29t-28.5 -12t-28 11t-11 28q0 18 11.5 29.5t28.5 11.5zM118 485h52l-59 -485h-52z" />
    <glyph glyph-name="eth" unicode="&#xf0;" horiz-adv-x="547" 
d="M500 308q0 -36 -2 -60q-10 -108 -79.5 -180.5t-172.5 -72.5q-91 0 -144.5 54.5t-53.5 150.5q0 118 71.5 203.5t179.5 85.5q85 0 132 -61l1 1q-31 123 -122 201l-78 -60l-23 30l70 55q-38 27 -79 43l27 41q47 -18 94 -52l71 56l23 -33l-63 -48q70 -63 109 -154.5
t39 -199.5zM247 44q87 0 143 69.5t56 174.5q0 68 -38.5 110t-103.5 42q-88 0 -145.5 -70t-57.5 -167q0 -76 39 -117.5t107 -41.5z" />
    <glyph glyph-name="ntilde" unicode="&#xf1;" horiz-adv-x="547" 
d="M279 636q-38 0 -64 -59l-35 17q36 87 95 87q30 0 68 -32t57 -32q38 0 62 60l35 -15q-35 -90 -93 -90q-7 0 -13 1t-12.5 4t-11 5t-11 7t-9 7t-9.5 8t-8 7q-32 25 -51 25zM359 490q147 0 120 -198l-38 -292h-52l38 289q20 152 -81 152q-66 0 -131 -66t-82 -158l-26 -217
h-52l59 485h52l-14 -119h1q40 58 95 91t111 33z" />
    <glyph glyph-name="ograve" unicode="&#xf2;" horiz-adv-x="546" 
d="M272 698l90 -139h-57l-95 139h62zM302 490q90 0 143.5 -52t53.5 -146q0 -127 -69 -212t-184 -85q-91 0 -144.5 53.5t-53.5 149.5q0 121 70 206.5t184 85.5zM300 441q-86 0 -142.5 -69t-56.5 -169q0 -74 39.5 -116.5t106.5 -42.5q87 0 142.5 69t55.5 176q0 75 -40 113.5
t-105 38.5z" />
    <glyph glyph-name="oacute" unicode="&#xf3;" horiz-adv-x="546" 
d="M419 698h62l-129 -139h-57zM302 490q90 0 143.5 -52t53.5 -146q0 -127 -69 -212t-184 -85q-91 0 -144.5 53.5t-53.5 149.5q0 121 70 206.5t184 85.5zM300 441q-86 0 -142.5 -69t-56.5 -169q0 -74 39.5 -116.5t106.5 -42.5q87 0 142.5 69t55.5 176q0 75 -40 113.5
t-105 38.5z" />
    <glyph glyph-name="ocircumflex" unicode="&#xf4;" horiz-adv-x="546" 
d="M331 664l-90 -106h-56l123 140h51l93 -140h-55l-64 106h-2zM302 490q90 0 143.5 -52t53.5 -146q0 -127 -69 -212t-184 -85q-91 0 -144.5 53.5t-53.5 149.5q0 121 70 206.5t184 85.5zM247 44q87 0 142.5 69t55.5 176q0 75 -40 113.5t-105 38.5q-86 0 -142.5 -69
t-56.5 -169q0 -74 39.5 -116.5t106.5 -42.5z" />
    <glyph glyph-name="otilde" unicode="&#xf5;" horiz-adv-x="546" 
d="M169 594q36 87 95 87q30 0 68 -32t57 -32q38 0 62 60l35 -15q-17 -44 -41.5 -67t-51.5 -23q-7 0 -13 1t-12.5 4t-11 5t-11 7t-9 7t-9.5 8t-8 7q-32 25 -51 25q-38 0 -64 -59zM302 490q90 0 143.5 -52t53.5 -146q0 -127 -69 -212t-184 -85q-91 0 -144.5 53.5t-53.5 149.5
q0 121 70 206.5t184 85.5zM300 441q-86 0 -142.5 -69t-56.5 -169q0 -74 39.5 -116.5t106.5 -42.5q87 0 142.5 69t55.5 176q0 75 -40 113.5t-105 38.5z" />
    <glyph glyph-name="odieresis" unicode="&#xf6;" horiz-adv-x="546" 
d="M253 674q17 0 28 -11t11 -28t-11.5 -29t-29.5 -12q-16 0 -27 11t-11 28q0 18 11.5 29.5t28.5 11.5zM405 674q17 0 28 -11t11 -28t-11.5 -29t-29.5 -12q-16 0 -27 11t-11 28q0 18 11.5 29.5t28.5 11.5zM302 490q90 0 143.5 -52t53.5 -146q0 -127 -69 -212t-184 -85
q-91 0 -144.5 53.5t-53.5 149.5q0 121 70 206.5t184 85.5zM300 441q-86 0 -142.5 -69t-56.5 -169q0 -74 39.5 -116.5t106.5 -42.5q87 0 142.5 69t55.5 176q0 75 -40 113.5t-105 38.5z" />
    <glyph glyph-name="divide" unicode="&#xf7;" horiz-adv-x="552" 
d="M315 509q17 0 28 -11.5t11 -27.5q0 -17 -11.5 -29t-29.5 -12q-16 0 -27 11t-11 28q0 18 11.5 29.5t28.5 11.5zM499 252h-419l6 49h419zM272 120q16 0 27.5 -11t11.5 -28t-11.5 -29t-29.5 -12q-16 0 -27 11t-11 28q0 18 11.5 29.5t28.5 11.5z" />
    <glyph glyph-name="oslash" unicode="&#xf8;" 
d="M522 471l-56 -58q33 -49 33 -121q0 -127 -69 -212t-184 -85q-85 0 -138 48l-57 -59l-29 26l60 62q-34 51 -34 126q0 121 70 206.5t184 85.5q86 0 139 -48l54 55zM101 203q0 -54 21 -90l282 290q-38 38 -104 38q-86 0 -142.5 -69t-56.5 -169zM445 289q0 49 -18 84
l-282 -291q38 -38 102 -38q87 0 142.5 69t55.5 176z" />
    <glyph glyph-name="ugrave" unicode="&#xf9;" horiz-adv-x="529" 
d="M341 559h-57l-95 139h62zM429 485h52l-59 -485h-52l14 113h-3q-35 -54 -84 -86t-102 -32q-153 0 -129 197l36 293h52l-35 -290q-11 -84 12.5 -117.5t75.5 -33.5q62 0 121.5 66t73.5 156z" />
    <glyph glyph-name="uacute" unicode="&#xfa;" horiz-adv-x="529" 
d="M453 698l-129 -139h-57l124 139h62zM429 485h52l-59 -485h-52l14 113h-3q-35 -54 -84 -86t-102 -32q-153 0 -129 197l36 293h52l-35 -290q-11 -84 12.5 -117.5t75.5 -33.5q62 0 121.5 66t73.5 156z" />
    <glyph glyph-name="ucircumflex" unicode="&#xfb;" horiz-adv-x="529" 
d="M311 664l-90 -106h-56l123 140h51l93 -140h-55l-64 106h-2zM429 485h52l-59 -485h-52l14 113h-3q-35 -54 -84 -86t-102 -32q-153 0 -129 197l36 293h52l-35 -290q-11 -84 12.5 -117.5t75.5 -33.5q62 0 121.5 66t73.5 156z" />
    <glyph glyph-name="udieresis" unicode="&#xfc;" horiz-adv-x="529" 
d="M231 594q-16 0 -27 11t-11 28q0 18 11.5 29.5t28.5 11.5t28 -11t11 -28t-11.5 -29t-29.5 -12zM383 594q-16 0 -27 11t-11 28q0 18 11.5 29.5t28.5 11.5t28 -11t11 -28t-11.5 -29t-29.5 -12zM429 485h52l-59 -485h-52l14 113h-3q-35 -54 -84 -86t-102 -32q-153 0 -129 197
l36 293h52l-35 -290q-11 -84 12.5 -117.5t75.5 -33.5q62 0 121.5 66t73.5 156z" />
    <glyph glyph-name="yacute" unicode="&#xfd;" horiz-adv-x="528" 
d="M455 698l-129 -139h-57l124 139h62zM429 485h52l-51 -421q-8 -63 -25.5 -111t-40.5 -77.5t-54 -47.5t-61.5 -24.5t-66.5 -6.5q-79 0 -155 41l17 48q68 -40 139 -40q78 0 128.5 47.5t66.5 174.5l6 52h-2q-35 -58 -84.5 -91.5t-104.5 -33.5q-153 0 -129 197l36 293h52
l-35 -290q-11 -84 12.5 -117.5t75.5 -33.5q65 0 126 69.5t72 163.5h1z" />
    <glyph glyph-name="thorn" unicode="&#xfe;" horiz-adv-x="560" 
d="M348 490q77 0 121 -55t44 -139q0 -124 -70 -212.5t-181 -88.5q-95 0 -147 55h-3l-29 -248h-52l114 934h52l-46 -373h2q76 127 195 127zM258 44q89 0 145 74t56 181q0 62 -31.5 102t-89.5 40q-78 0 -137 -76t-72 -183l-9 -72q19 -35 58 -50.5t80 -15.5z" />
    <glyph glyph-name="ydieresis" unicode="&#xff;" horiz-adv-x="528" 
d="M232 594q-16 0 -27 11t-11 28q0 18 11.5 29.5t28.5 11.5q16 0 27.5 -11t11.5 -28t-11.5 -29t-29.5 -12zM384 594q-16 0 -27 11t-11 28q0 18 11.5 29.5t28.5 11.5q16 0 27.5 -11t11.5 -28t-11.5 -29t-29.5 -12zM429 485h52l-51 -421q-8 -63 -25.5 -111t-40.5 -77.5
t-54 -47.5t-61.5 -24.5t-66.5 -6.5q-79 0 -155 41l17 48q68 -40 139 -40q78 0 128.5 47.5t66.5 174.5l6 52h-2q-35 -58 -84.5 -91.5t-104.5 -33.5q-153 0 -129 197l36 293h52l-35 -290q-11 -84 12.5 -117.5t75.5 -33.5q65 0 126 69.5t72 163.5h1z" />
    <glyph glyph-name="Amacron" unicode="&#x100;" horiz-adv-x="613" 
d="M515 891l-6 -46h-252l7 46h251zM494 0l-41 191h-305l-87 -191h-59l331 710h60l159 -710h-58zM172 242h270l-86 398h-2z" />
    <glyph glyph-name="amacron" unicode="&#x101;" 
d="M478 654l-6 -46h-252l7 46h251zM451 485h51l-59 -485h-52l16 126h-2q-34 -59 -83 -95t-107 -36q-79 0 -123 55t-44 139q0 124 69.5 212.5t178.5 88.5q96 0 146 -56h2zM223 43q76 0 134.5 77t70.5 183l10 79q-24 31 -64 45t-76 14q-87 0 -141.5 -74.5t-54.5 -178.5
q0 -65 31.5 -105t89.5 -40z" />
    <glyph glyph-name="Abreve" unicode="&#x102;" horiz-adv-x="613" 
d="M381 795q-50 0 -80 35.5t-26 98.5l43 -1q-5 -92 64 -92q38 0 63.5 26t32.5 67l43 -1q-12 -62 -50 -97.5t-90 -35.5zM494 0l-41 191h-305l-87 -191h-59l331 710h60l159 -710h-58zM172 242h270l-86 398h-2z" />
    <glyph glyph-name="abreve" unicode="&#x103;" 
d="M344 558q-50 0 -80 35.5t-26 98.5l43 -1q-5 -92 64 -92q38 0 63.5 26t32.5 67l43 -1q-12 -62 -50 -97.5t-90 -35.5zM451 485h51l-59 -485h-52l16 126h-2q-34 -59 -83 -95t-107 -36q-79 0 -123 55t-44 139q0 124 69.5 212.5t178.5 88.5q96 0 146 -56h2zM223 43
q76 0 134.5 77t70.5 183l10 79q-24 31 -64 45t-76 14q-87 0 -141.5 -74.5t-54.5 -178.5q0 -65 31.5 -105t89.5 -40z" />
    <glyph glyph-name="Aogonek" unicode="&#x104;" horiz-adv-x="613" 
d="M556 -132l2 -39q-25 -13 -62 -13q-38 0 -57.5 18.5t-17.5 53.5q1 58 73 113l-41 190h-305l-87 -191h-59l331 710h60l159 -710q-85 -49 -86 -104q-1 -18 9 -29t31 -11q29 0 50 12zM172 242h270l-86 398h-2z" />
    <glyph glyph-name="aogonek" unicode="&#x105;" 
d="M397 -144q29 0 50 12l2 -39q-25 -13 -62 -13q-38 0 -57.5 18.5t-17.5 53.5q1 60 80 119l15 119h-2q-34 -59 -83 -95t-107 -36q-79 0 -123 55t-44 139q0 124 69.5 212.5t178.5 88.5q96 0 146 -56h2l7 51h51l-59 -485q-85 -49 -86 -104q-1 -18 9 -29t31 -11zM223 43
q76 0 134.5 77t70.5 183l10 79q-24 31 -64 45t-76 14q-87 0 -141.5 -74.5t-54.5 -178.5q0 -65 31.5 -105t89.5 -40z" />
    <glyph glyph-name="Cacute" unicode="&#x106;" horiz-adv-x="679" 
d="M550 934h62l-129 -139h-57zM604 114q-49 -54 -116 -86.5t-139 -32.5q-123 0 -198 79.5t-75 219.5q0 172 102 296.5t257 124.5q149 0 243 -151l-48 -32q-74 130 -196 130q-87 0 -157 -52.5t-107 -136t-37 -178.5q0 -114 58.5 -180.5t160.5 -66.5q55 0 111 26.5t99 74.5z
" />
    <glyph glyph-name="cacute" unicode="&#x107;" horiz-adv-x="487" 
d="M409 698h62l-129 -139h-57zM232 -4q-78 0 -131 53t-53 147q0 123 70 208.5t185 85.5q110 0 163 -79l-42 -31q-41 61 -122 61q-90 0 -145.5 -70t-55.5 -172q0 -70 38.5 -112.5t95.5 -42.5q95 0 152 69l41 -30q-75 -87 -196 -87z" />
    <glyph glyph-name="Ccircumflex" unicode="&#x108;" horiz-adv-x="679" 
d="M479 901l-90 -106h-56l123 140h51l93 -140h-55l-64 106h-2zM434 662q-87 0 -157 -52.5t-107 -136t-37 -178.5q0 -114 58.5 -180.5t160.5 -66.5q55 0 111 26.5t99 74.5l42 -35q-49 -54 -116 -86.5t-139 -32.5q-123 0 -198 79.5t-75 219.5q0 172 102 296.5t257 124.5
q149 0 243 -151l-48 -32q-74 130 -196 130z" />
    <glyph glyph-name="ccircumflex" unicode="&#x109;" horiz-adv-x="487" 
d="M332 664l-90 -106h-56l123 140h51l93 -140h-55l-64 106h-2zM235 44q95 0 152 69l41 -30q-75 -87 -196 -87q-78 0 -131 53t-53 147q0 123 70 208.5t185 85.5q110 0 163 -79l-42 -31q-41 61 -122 61q-90 0 -145.5 -70t-55.5 -172q0 -70 38.5 -112.5t95.5 -42.5z" />
    <glyph glyph-name="Cdotaccent" unicode="&#x10a;" horiz-adv-x="679" 
d="M478 911q16 0 27.5 -11.5t11.5 -27.5q0 -17 -11.5 -29t-29.5 -12q-16 0 -27 11t-11 28q0 18 11.5 29.5t28.5 11.5zM604 114q-49 -54 -116 -86.5t-139 -32.5q-123 0 -198 79.5t-75 219.5q0 172 102 296.5t257 124.5q149 0 243 -151l-48 -32q-74 130 -196 130
q-87 0 -157 -52.5t-107 -136t-37 -178.5q0 -114 58.5 -180.5t160.5 -66.5q55 0 111 26.5t99 74.5z" />
    <glyph glyph-name="cdotaccent" unicode="&#x10b;" horiz-adv-x="487" 
d="M331 674q17 0 28 -11t11 -28t-11.5 -29t-29.5 -12q-16 0 -27 11t-11 28q0 18 11.5 29.5t28.5 11.5zM232 -4q-78 0 -131 53t-53 147q0 123 70 208.5t185 85.5q110 0 163 -79l-42 -31q-41 61 -122 61q-90 0 -145.5 -70t-55.5 -172q0 -70 38.5 -112.5t95.5 -42.5
q95 0 152 69l41 -30q-75 -87 -196 -87z" />
    <glyph glyph-name="Ccaron" unicode="&#x10c;" horiz-adv-x="679" 
d="M493 795h-51l-90 140h54l64 -104h3l89 104h57zM434 662q-87 0 -157 -52.5t-107 -136t-37 -178.5q0 -114 58.5 -180.5t160.5 -66.5q55 0 111 26.5t99 74.5l42 -35q-49 -54 -116 -86.5t-139 -32.5q-123 0 -198 79.5t-75 219.5q0 172 102 296.5t257 124.5q149 0 243 -151
l-48 -32q-74 130 -196 130z" />
    <glyph glyph-name="ccaron" unicode="&#x10d;" horiz-adv-x="487" 
d="M346 558h-51l-90 140h54l64 -104h3l89 104h57zM302 441q-90 0 -145.5 -70t-55.5 -172q0 -70 38.5 -112.5t95.5 -42.5q95 0 152 69l41 -30q-75 -87 -196 -87q-78 0 -131 53t-53 147q0 123 70 208.5t185 85.5q110 0 163 -79l-42 -31q-41 61 -122 61z" />
    <glyph glyph-name="Dcaron" unicode="&#x10e;" horiz-adv-x="677" 
d="M432 795h-51l-90 140h54l64 -104h3l89 104h57zM344 710q137 0 211 -77t74 -213q0 -186 -104 -303t-274 -117h-184l87 710h190zM255 52q141 0 229 103.5t88 263.5q0 113 -60.5 176.5t-172.5 63.5h-134l-75 -607h125z" />
    <glyph glyph-name="dcaron" unicode="&#x10f;" horiz-adv-x="599" 
d="M631 764h56l-60 -172h-41zM447 437l37 299h52l-90 -736h-52l15 128h-1q-34 -60 -84 -96.5t-109 -36.5q-79 0 -123 55t-44 139q0 124 69.5 212.5t178.5 88.5q100 0 149 -53h2zM223 43q73 0 130 69t75 169l12 98q-42 62 -142 62q-87 0 -141.5 -75t-54.5 -178
q0 -65 31.5 -105t89.5 -40z" />
    <glyph glyph-name="Dcroat" unicode="&#x110;" horiz-adv-x="676" 
d="M345 710q137 0 211 -77t74 -213q0 -186 -104 -303t-274 -117h-184l42 343h-57l6 51h57l39 316h190zM256 52q141 0 229 103.5t88 263.5q0 113 -60.5 176.5t-172.5 63.5h-134l-33 -265h150l-6 -51h-150l-36 -291h125z" />
    <glyph glyph-name="dcroat" unicode="&#x111;" 
d="M579 619l-6 -40h-56l-71 -579h-52l15 128h-1q-34 -60 -84 -96.5t-109 -36.5q-79 0 -123 55t-44 139q0 124 69.5 212.5t178.5 88.5q100 0 149 -53h2l18 142h-128l5 40h128l14 117h52l-14 -117h57zM223 43q73 0 130 69t75 169l12 98q-42 62 -142 62q-87 0 -141.5 -75
t-54.5 -178q0 -65 31.5 -105t89.5 -40z" />
    <glyph glyph-name="Emacron" unicode="&#x112;" horiz-adv-x="552" 
d="M252 893h251l-6 -46h-252zM477 52l-6 -52h-404l87 710h384l-6 -51h-328l-35 -279h273l-6 -51h-273l-34 -277h348z" />
    <glyph glyph-name="emacron" unicode="&#x113;" horiz-adv-x="473" 
d="M448 654l-6 -46h-252l7 46h251zM446 373q0 -46 -31 -81.5t-84 -57.5t-109.5 -34.5t-120.5 -18.5q4 -64 42.5 -100.5t96.5 -36.5q78 0 139 69l41 -30q-76 -87 -182 -87q-86 0 -138 54t-52 147q0 122 70.5 207.5t181.5 85.5q53 0 99.5 -29t46.5 -88zM101 228q52 4 100 14
t93 26.5t72 43t27 58.5q0 38 -30 54.5t-66 16.5q-75 0 -131 -59.5t-65 -153.5z" />
    <glyph glyph-name="Ebreve" unicode="&#x114;" horiz-adv-x="552" 
d="M369 797q-50 0 -80 35.5t-26 98.5l43 -1q-5 -92 64 -92q38 0 63.5 26t32.5 67l43 -1q-12 -62 -50 -97.5t-90 -35.5zM477 52l-6 -52h-404l87 710h384l-6 -51h-328l-35 -279h273l-6 -51h-273l-34 -277h348z" />
    <glyph glyph-name="ebreve" unicode="&#x115;" horiz-adv-x="473" 
d="M314 558q-50 0 -80 35.5t-26 98.5l43 -1q-5 -92 64 -92q38 0 63.5 26t32.5 67l43 -1q-12 -62 -50 -97.5t-90 -35.5zM446 373q0 -46 -31 -81.5t-84 -57.5t-109.5 -34.5t-120.5 -18.5q4 -64 42.5 -100.5t96.5 -36.5q78 0 139 69l41 -30q-76 -87 -182 -87q-86 0 -138 54
t-52 147q0 122 70.5 207.5t181.5 85.5q53 0 99.5 -29t46.5 -88zM101 228q52 4 100 14t93 26.5t72 43t27 58.5q0 38 -30 54.5t-66 16.5q-75 0 -131 -59.5t-65 -153.5z" />
    <glyph glyph-name="Edotaccent" unicode="&#x116;" horiz-adv-x="552" 
d="M376 913q16 0 27.5 -11.5t11.5 -27.5q0 -17 -11.5 -29t-29.5 -12q-16 0 -27 11t-11 28q0 18 11.5 29.5t28.5 11.5zM477 52l-6 -52h-404l87 710h384l-6 -51h-328l-35 -279h273l-6 -51h-273l-34 -277h348z" />
    <glyph glyph-name="edotaccent" unicode="&#x117;" horiz-adv-x="473" 
d="M319 594q-16 0 -27 11t-11 28q0 18 11.5 29.5t28.5 11.5t28 -11t11 -28t-11.5 -29t-29.5 -12zM240 44q78 0 139 69l41 -30q-76 -87 -182 -87q-86 0 -138 54t-52 147q0 122 70.5 207.5t181.5 85.5q53 0 99.5 -29t46.5 -88q0 -46 -31 -81.5t-84 -57.5t-109.5 -34.5
t-120.5 -18.5q4 -64 42.5 -100.5t96.5 -36.5zM297 441q-75 0 -131 -59.5t-65 -153.5q52 4 100 14t93 26.5t72 43t27 58.5q0 38 -30 54.5t-66 16.5z" />
    <glyph glyph-name="Eogonek" unicode="&#x118;" horiz-adv-x="552" 
d="M532 659h-328l-35 -279h273l-6 -51h-273l-34 -277h348l-6 -52q-85 -49 -86 -104q-1 -18 9 -29t31 -11q29 0 50 12l2 -39q-25 -13 -62 -13q-38 0 -57.5 18.5t-17.5 53.5q1 54 68 110l1 2h-342l87 710h384z" />
    <glyph glyph-name="eogonek" unicode="&#x119;" horiz-adv-x="473" 
d="M240 44q78 0 139 69l41 -30q-49 -56 -108 -76q-45 -16 -77 -48.5t-32 -64.5q0 -38 42 -38q28 0 47 12l2 -39q-23 -13 -61 -13q-36 0 -56 17.5t-20 49.5q0 63 67 111v2q-80 5 -128 58.5t-48 142.5q0 122 70.5 207.5t181.5 85.5q53 0 99.5 -29t46.5 -88q0 -46 -31 -81.5
t-84 -57.5t-109.5 -34.5t-120.5 -18.5q4 -64 42.5 -100.5t96.5 -36.5zM297 441q-75 0 -131 -59.5t-65 -153.5q52 4 100 14t93 26.5t72 43t27 58.5q0 38 -30 54.5t-66 16.5z" />
    <glyph glyph-name="Ecaron" unicode="&#x11a;" horiz-adv-x="552" 
d="M391 797h-51l-90 140h54l64 -104h3l89 104h57zM532 659h-328l-35 -279h273l-6 -51h-273l-34 -277h348l-6 -52h-404l87 710h384z" />
    <glyph glyph-name="ecaron" unicode="&#x11b;" horiz-adv-x="473" 
d="M336 558h-51l-90 140h54l64 -104h3l89 104h57zM446 373q0 -46 -31 -81.5t-84 -57.5t-109.5 -34.5t-120.5 -18.5q4 -64 42.5 -100.5t96.5 -36.5q78 0 139 69l41 -30q-76 -87 -182 -87q-86 0 -138 54t-52 147q0 122 70.5 207.5t181.5 85.5q53 0 99.5 -29t46.5 -88zM101 228
q52 4 100 14t93 26.5t72 43t27 58.5q0 38 -30 54.5t-66 16.5q-75 0 -131 -59.5t-65 -153.5z" />
    <glyph glyph-name="Gcircumflex" unicode="&#x11c;" horiz-adv-x="711" 
d="M463 901l-90 -106h-56l123 140h51l93 -140h-55l-64 106h-2zM374 302l6 52h264l-32 -267q-50 -45 -118.5 -68.5t-138.5 -23.5q-129 0 -204 79t-75 219q0 173 102 297.5t257 124.5q144 0 231 -113l-44 -36q-77 96 -188 96q-130 0 -215.5 -109t-85.5 -259q0 -115 59 -180.5
t166 -65.5q116 0 201 69l23 185h-208z" />
    <glyph glyph-name="gcircumflex" unicode="&#x11d;" horiz-adv-x="550" 
d="M340 664l-90 -106h-56l123 140h51l93 -140h-55l-64 106h-2zM451 485h52l-52 -421q-10 -79 -33.5 -133t-59.5 -82.5t-76.5 -40t-93.5 -11.5q-84 0 -160 41l17 49q70 -41 145 -41q89 0 141.5 47t68.5 175l9 75h-1q-34 -60 -84.5 -96.5t-108.5 -36.5q-79 0 -123 55t-44 139
q0 114 70 200t178 86q96 0 147 -57h1zM223 58q75 0 133.5 74.5t71.5 170.5l10 78q-25 31 -65 45.5t-75 14.5q-86 0 -141 -72.5t-55 -165.5q0 -65 31.5 -105t89.5 -40z" />
    <glyph glyph-name="Gbreve" unicode="&#x11e;" horiz-adv-x="711" 
d="M455 795q-50 0 -80 35.5t-26 98.5l43 -1q-5 -92 64 -92q38 0 63.5 26t32.5 67l43 -1q-12 -62 -50 -97.5t-90 -35.5zM644 354l-32 -267q-50 -45 -118.5 -68.5t-138.5 -23.5q-129 0 -204 79t-75 219q0 173 102 297.5t257 124.5q144 0 231 -113l-44 -36q-77 96 -188 96
q-130 0 -215.5 -109t-85.5 -259q0 -115 59 -180.5t166 -65.5q116 0 201 69l23 185h-208l6 52h264z" />
    <glyph glyph-name="gbreve" unicode="&#x11f;" horiz-adv-x="550" 
d="M332 558q-50 0 -80 35.5t-26 98.5l43 -1q-5 -92 64 -92q38 0 63.5 26t32.5 67l43 -1q-12 -62 -50 -97.5t-90 -35.5zM451 485h52l-52 -421q-10 -79 -33.5 -133t-59.5 -82.5t-76.5 -40t-93.5 -11.5q-84 0 -160 41l17 49q70 -41 145 -41q89 0 141.5 47t68.5 175l9 75h-1
q-34 -60 -84.5 -96.5t-108.5 -36.5q-79 0 -123 55t-44 139q0 114 70 200t178 86q96 0 147 -57h1zM223 58q75 0 133.5 74.5t71.5 170.5l10 78q-25 31 -65 45.5t-75 14.5q-86 0 -141 -72.5t-55 -165.5q0 -65 31.5 -105t89.5 -40z" />
    <glyph glyph-name="Gdotaccent" unicode="&#x120;" horiz-adv-x="711" 
d="M462 911q16 0 27.5 -11.5t11.5 -27.5q0 -17 -11.5 -29t-29.5 -12q-16 0 -27 11t-11 28q0 18 11.5 29.5t28.5 11.5zM644 354l-32 -267q-50 -45 -118.5 -68.5t-138.5 -23.5q-129 0 -204 79t-75 219q0 173 102 297.5t257 124.5q144 0 231 -113l-44 -36q-77 96 -188 96
q-130 0 -215.5 -109t-85.5 -259q0 -115 59 -180.5t166 -65.5q116 0 201 69l23 185h-208l6 52h264z" />
    <glyph glyph-name="gdotaccent" unicode="&#x121;" horiz-adv-x="550" 
d="M337 594q-16 0 -27 11t-11 28q0 18 11.5 29.5t28.5 11.5t28 -11t11 -28t-11.5 -29t-29.5 -12zM451 485h52l-52 -421q-10 -79 -33.5 -133t-59.5 -82.5t-76.5 -40t-93.5 -11.5q-84 0 -160 41l17 49q70 -41 145 -41q89 0 141.5 47t68.5 175l9 75h-1q-34 -60 -84.5 -96.5
t-108.5 -36.5q-79 0 -123 55t-44 139q0 114 70 200t178 86q96 0 147 -57h1zM223 58q75 0 133.5 74.5t71.5 170.5l10 78q-25 31 -65 45.5t-75 14.5q-86 0 -141 -72.5t-55 -165.5q0 -65 31.5 -105t89.5 -40z" />
    <glyph glyph-name="Gcommaaccent" unicode="&#x122;" horiz-adv-x="711" 
d="M644 354l-32 -267q-50 -45 -118.5 -68.5t-138.5 -23.5q-129 0 -204 79t-75 219q0 173 102 297.5t257 124.5q144 0 231 -113l-44 -36q-77 96 -188 96q-130 0 -215.5 -109t-85.5 -259q0 -115 59 -180.5t166 -65.5q116 0 201 69l23 185h-208l6 52h264zM365 -54v-22
q0 -122 -106 -130l-9 34q36 5 52 28t16 70v20h47z" />
    <glyph glyph-name="gcommaaccent" unicode="&#x123;" horiz-adv-x="550" 
d="M358 574v-20h-47v22q0 122 106 130l9 -34q-36 -5 -52 -28t-16 -70zM451 485h52l-52 -421q-10 -79 -33.5 -133t-59.5 -82.5t-76.5 -40t-93.5 -11.5q-84 0 -160 41l17 49q70 -41 145 -41q89 0 141.5 47t68.5 175l9 75h-1q-34 -60 -84.5 -96.5t-108.5 -36.5q-79 0 -123 55
t-44 139q0 114 70 200t178 86q96 0 147 -57h1zM223 58q75 0 133.5 74.5t71.5 170.5l10 78q-25 31 -65 45.5t-75 14.5q-86 0 -141 -72.5t-55 -165.5q0 -65 31.5 -105t89.5 -40z" />
    <glyph glyph-name="Hcircumflex" unicode="&#x124;" horiz-adv-x="675" 
d="M421 901l-90 -106h-56l123 140h51l93 -140h-55l-64 106h-2zM580 710h55l-87 -710h-55l38 310h-370l-38 -310h-56l87 710h56l-43 -348h370z" />
    <glyph glyph-name="hcircumflex" unicode="&#x125;" 
d="M315 913l-90 -106h-56l123 140h51l93 -140h-55l-64 106h-2zM360 490q147 0 120 -198l-38 -292h-52l38 289q20 152 -81 152q-66 0 -131 -66.5t-82 -158.5l-26 -216h-52l90 736h52l-45 -369h1q41 58 96 90.5t110 32.5z" />
    <glyph glyph-name="Hbar" unicode="&#x126;" horiz-adv-x="677" 
d="M670 575l-5 -41h-51l-65 -534h-55l38 310h-370l-38 -310h-56l65 534h-59l5 41h59l17 135h56l-17 -135h370l17 135h55l-17 -135h51zM538 362l21 172h-370l-21 -172h370z" />
    <glyph glyph-name="hbar" unicode="&#x127;" 
d="M360 490q147 0 120 -198l-38 -292h-52l38 289q20 152 -81 152q-66 0 -131 -66.5t-82 -158.5l-26 -216h-52l71 579h-82l5 40h82l14 117h52l-14 -117h103l-5 -40h-103l-26 -212h1q41 58 96 90.5t110 32.5z" />
    <glyph glyph-name="Itilde" unicode="&#x128;" horiz-adv-x="262" 
d="M50 831q36 87 95 87q30 0 68 -32t57 -32q38 0 62 60l35 -15q-35 -90 -93 -90q-7 0 -13 1t-12.5 4t-11 5t-11 7t-9 7t-9.5 8t-8 7q-32 25 -51 25q-38 0 -64 -59zM129 0h-56l87 710h56z" />
    <glyph glyph-name="itilde" unicode="&#x129;" horiz-adv-x="229" 
d="M11 594q35 87 92 87q32 0 66 -32q4 -3 17 -13t21.5 -14.5t17.5 -4.5q37 0 60 60l34 -15q-35 -90 -90 -90q-28 0 -72 39q-35 25 -50 25q-37 0 -63 -59zM118 485h52l-59 -485h-52z" />
    <glyph glyph-name="Imacron" unicode="&#x12a;" horiz-adv-x="262" 
d="M87 891h251l-6 -46h-252zM129 0h-56l87 710h56z" />
    <glyph glyph-name="imacron" unicode="&#x12b;" horiz-adv-x="229" 
d="M41 654h251l-6 -46h-252zM118 485h52l-59 -485h-52z" />
    <glyph glyph-name="Ibreve" unicode="&#x12c;" horiz-adv-x="262" 
d="M204 795q-50 0 -80 35.5t-26 98.5l43 -1q-5 -92 64 -92q38 0 63.5 26t32.5 67l43 -1q-12 -62 -50 -97.5t-90 -35.5zM129 0h-56l87 710h56z" />
    <glyph glyph-name="ibreve" unicode="&#x12d;" horiz-adv-x="229" 
d="M158 558q-47 0 -74.5 35.5t-23.5 98.5l42 -1q-4 -42 10.5 -67t47.5 -25t54 26t26 67l44 -1q-11 -62 -45 -97.5t-81 -35.5zM118 485h52l-59 -485h-52z" />
    <glyph glyph-name="Iogonek" unicode="&#x12e;" horiz-adv-x="262" 
d="M83 -144q29 0 50 12l2 -39q-25 -13 -62 -13q-38 0 -57.5 18.5t-17.5 53.5q1 58 75 115l87 707h56l-87 -710q-85 -49 -86 -104q-1 -18 9 -29t31 -11z" />
    <glyph glyph-name="iogonek" unicode="&#x12f;" horiz-adv-x="229" 
d="M165 674q17 0 28 -11t11 -28t-11.5 -29t-29.5 -12q-16 0 -27 11t-11 28q0 18 11.5 29.5t28.5 11.5zM111 0q-85 -49 -86 -104q-1 -18 9 -29t31 -11q29 0 50 12l2 -39q-25 -13 -62 -13q-38 0 -57.5 18.5t-17.5 53.5q1 60 80 119l58 478h52z" />
    <glyph glyph-name="Idotaccent" unicode="&#x130;" horiz-adv-x="262" 
d="M211 911q17 0 28 -11.5t11 -27.5q0 -17 -11.5 -29t-29.5 -12q-16 0 -27 11t-11 28q0 18 11.5 29.5t28.5 11.5zM129 0h-56l87 710h56z" />
    <glyph glyph-name="dotlessi" unicode="&#x131;" horiz-adv-x="229" 
d="M118 485h52l-59 -485h-52z" />
    <glyph glyph-name="IJ" unicode="&#x132;" horiz-adv-x="720" 
d="M129 0h-56l87 710h56zM314 129q50 -81 128 -81q114 0 136 180l59 482h56l-59 -485q-28 -230 -190 -230q-109 0 -168 94z" />
    <glyph glyph-name="ij" unicode="&#x133;" horiz-adv-x="424" 
d="M165 674q17 0 28 -11t11 -28t-11.5 -29t-29.5 -12q-16 0 -27 11t-11 28q0 18 11.5 29.5t28.5 11.5zM372 674q16 0 27.5 -11t11.5 -28t-11.5 -29t-29.5 -12q-16 0 -27 11t-11 28q0 18 11.5 29.5t28.5 11.5zM118 485h52l-59 -485h-52zM134 -140q20 -15 49 -15q31 0 50 22.5
t26 82.5l66 535h52l-66 -541q-10 -75 -39.5 -111t-83.5 -36q-36 0 -66 18z" />
    <glyph glyph-name="Jcircumflex" unicode="&#x134;" horiz-adv-x="458" 
d="M454 935l93 -140h-55l-64 106h-2l-90 -106h-56l123 140h51zM316 228l59 482h56l-59 -485q-28 -230 -190 -230q-109 0 -168 94l38 40q50 -81 128 -81q114 0 136 180z" />
    <glyph glyph-name="jcircumflex" unicode="&#x135;" horiz-adv-x="195" 
d="M172 698l93 -140h-55l-64 106h-2l-90 -106h-56l123 140h51zM30 -50l66 535h52l-66 -541q-10 -75 -39.5 -111t-83.5 -36q-36 0 -66 18l12 45q20 -15 49 -15q31 0 50 22.5t26 82.5z" />
    <glyph glyph-name="Kcommaaccent" unicode="&#x136;" horiz-adv-x="599" 
d="M609 710l-293 -330l211 -380h-68l-184 332h-2l-128 -143l-22 -189h-56l87 710h56l-53 -428h2l379 428h71zM242 -74v20h47v-22q0 -122 -106 -130l-9 34q36 5 52 28t16 70z" />
    <glyph glyph-name="kcommaaccent" unicode="&#x137;" horiz-adv-x="488" 
d="M346 138q24 -57 40 -76t40 -24l-15 -42q-7 -1 -17 1q-22 3 -39.5 20.5t-26 34t-26.5 58.5q-3 7 -5 11l-34 79h-2q-68 -56 -141 -91l-14 -109h-52l91 736h52l-69 -568h2q101 57 176.5 143.5t103.5 173.5h54q-35 -128 -161 -248zM187 -74v20h47v-22q0 -122 -106 -130l-9 34
q36 5 52 28t16 70z" />
    <glyph glyph-name="kgreenlandic" unicode="&#x138;" horiz-adv-x="488" 
d="M346 138q24 -57 40 -76t40 -24l-15 -42q-7 -1 -17 1q-22 3 -39.5 20.5t-26 34t-26.5 58.5q-3 7 -5 11l-34 80h-1q-70 -57 -142 -92l-14 -109h-52l60 485h52l-39 -318h2q102 57 177.5 144t103.5 174h54q-35 -128 -161 -248z" />
    <glyph glyph-name="Lacute" unicode="&#x139;" horiz-adv-x="515" 
d="M376 935h62l-129 -139h-57zM461 52l-6 -52h-388l87 710h56l-81 -658h332z" />
    <glyph glyph-name="lacute" unicode="&#x13a;" horiz-adv-x="223" 
d="M286 948h62l-129 -139h-57zM150 736h53l-90 -736h-52z" />
    <glyph glyph-name="Lcommaaccent" unicode="&#x13b;" horiz-adv-x="515" 
d="M461 52l-6 -52h-388l87 710h56l-81 -658h332zM274 -54v-22q0 -122 -106 -130l-9 34q36 5 52 28t16 70v20h47z" />
    <glyph glyph-name="lcommaaccent" unicode="&#x13c;" horiz-adv-x="223" 
d="M150 736h53l-90 -736h-52zM104 -54v-22q0 -122 -106 -130l-9 34q36 5 52 28t16 70v20h47z" />
    <glyph glyph-name="Lcaron" unicode="&#x13d;" horiz-adv-x="515" 
d="M344 764h55l-59 -172h-41zM461 52l-6 -52h-388l87 710h56l-81 -658h332z" />
    <glyph glyph-name="lcaron" unicode="&#x13e;" horiz-adv-x="265" 
d="M298 764h56l-59 -172h-42zM150 736h53l-90 -736h-52z" />
    <glyph glyph-name="Ldot" unicode="&#x13f;" horiz-adv-x="515" 
d="M461 52l-6 -52h-388l87 710h56l-81 -658h332zM383 376q17 0 28 -11t11 -28q0 -18 -11.5 -29.5t-28.5 -11.5q-16 0 -27.5 11t-11.5 28q0 18 11.5 29.5t28.5 11.5z" />
    <glyph glyph-name="ldot" unicode="&#x140;" horiz-adv-x="300" 
d="M150 736h53l-90 -736h-52zM272 301q16 0 27.5 -11.5t11.5 -27.5q0 -18 -11.5 -29.5t-28.5 -11.5t-28 11.5t-11 27.5q0 18 11.5 29.5t28.5 11.5z" />
    <glyph glyph-name="Lslash" unicode="&#x141;" horiz-adv-x="525" 
d="M139 52h332l-6 -52h-388l36 295l-84 -40l7 50l83 40l45 365h56l-41 -336l88 43l-7 -51l-88 -42z" />
    <glyph glyph-name="lslash" unicode="&#x142;" horiz-adv-x="235" 
d="M226 396l-6 -53l-64 -30l-38 -313h-52l35 287l-65 -31l6 52l65 31l48 397h53l-45 -370z" />
    <glyph glyph-name="Nacute" unicode="&#x143;" horiz-adv-x="704" 
d="M533 935l-129 -139h-57l124 139h62zM607 710h56l-86 -710h-59l-318 609h-2l-75 -609h-56l87 710h57l320 -613h1z" />
    <glyph glyph-name="nacute" unicode="&#x144;" horiz-adv-x="547" 
d="M464 698l-129 -139h-57l124 139h62zM359 490q147 0 120 -198l-38 -292h-52l38 289q20 152 -81 152q-66 0 -131 -66t-82 -158l-26 -217h-52l59 485h52l-14 -119h1q40 58 95 91t111 33z" />
    <glyph glyph-name="Ncommaaccent" unicode="&#x145;" horiz-adv-x="704" 
d="M607 710h56l-86 -710h-59l-318 609h-2l-75 -609h-56l87 710h57l320 -613h1zM290 -74v20h47v-22q0 -122 -106 -130l-9 34q36 5 52 28t16 70z" />
    <glyph glyph-name="ncommaaccent" unicode="&#x146;" horiz-adv-x="547" 
d="M359 490q147 0 120 -198l-38 -292h-52l38 289q20 152 -81 152q-66 0 -131 -66t-82 -158l-26 -217h-52l59 485h52l-14 -119h1q40 58 95 91t111 33zM214 -74v20h47v-22q0 -122 -106 -130l-9 34q36 5 52 28t16 70z" />
    <glyph glyph-name="Ncaron" unicode="&#x147;" horiz-adv-x="704" 
d="M450 795h-51l-90 140h54l64 -104h3l89 104h57zM607 710h56l-86 -710h-59l-318 609h-2l-75 -609h-56l87 710h57l320 -613h1z" />
    <glyph glyph-name="ncaron" unicode="&#x148;" horiz-adv-x="547" 
d="M356 558h-51l-90 140h54l64 -104h3l89 104h57zM359 490q147 0 120 -198l-38 -292h-52l38 289q20 152 -81 152q-66 0 -131 -66t-82 -158l-26 -217h-52l59 485h52l-14 -119h1q40 58 95 91t111 33z" />
    <glyph glyph-name="napostrophe" unicode="&#x149;" horiz-adv-x="637" 
d="M104 710h55l-58 -181h-42zM449 490q147 0 120 -198l-38 -292h-52l38 289q20 152 -81 152q-66 0 -131 -66t-82 -158l-26 -217h-52l59 485h52l-14 -119h1q40 58 95 91t111 33z" />
    <glyph glyph-name="Eng" unicode="&#x14a;" horiz-adv-x="703" 
d="M608 710h56l-95 -766q-8 -75 -38 -111t-88 -36q-37 0 -67 18l13 45q20 -15 49 -15q31 0 49.5 22.5t26.5 82.5l6 45l-320 613h-2l-75 -608h-56l87 710h57l320 -613h1z" />
    <glyph glyph-name="eng" unicode="&#x14b;" horiz-adv-x="527" 
d="M345 490q140 0 115 -191l-45 -353q-10 -74 -39.5 -110t-83.5 -36q-38 0 -66 17l12 45q22 -15 49 -15q31 0 49.5 22.5t26.5 82.5l44 343q20 146 -77 146q-58 0 -118.5 -65t-77.5 -154l-27 -222h-52l59 485h52l-14 -119h1q39 58 90 91t102 33z" />
    <glyph glyph-name="Omacron" unicode="&#x14c;" horiz-adv-x="766" 
d="M346 891h251l-6 -46h-252zM438 715q128 0 204 -78t76 -218q0 -176 -100.5 -300t-263.5 -124q-128 0 -203.5 79t-75.5 218q0 112 44.5 208t128.5 155.5t190 59.5zM357 48q134 0 218.5 109t84.5 261q0 118 -60 181t-166 63q-88 0 -157.5 -52.5t-106.5 -136.5t-37 -181
q0 -116 60 -180t164 -64z" />
    <glyph glyph-name="omacron" unicode="&#x14d;" horiz-adv-x="546" 
d="M206 654h251l-6 -46h-252zM302 490q90 0 143.5 -52t53.5 -146q0 -127 -69 -212t-184 -85q-91 0 -144.5 53.5t-53.5 149.5q0 121 70 206.5t184 85.5zM300 441q-86 0 -142.5 -69t-56.5 -169q0 -74 39.5 -116.5t106.5 -42.5q87 0 142.5 69t55.5 176q0 75 -40 113.5
t-105 38.5z" />
    <glyph glyph-name="Obreve" unicode="&#x14e;" horiz-adv-x="766" 
d="M463 795q-50 0 -80 35.5t-26 98.5l43 -1q-5 -92 64 -92q38 0 63.5 26t32.5 67l43 -1q-12 -62 -50 -97.5t-90 -35.5zM438 715q128 0 204 -78t76 -218q0 -176 -100.5 -300t-263.5 -124q-128 0 -203.5 79t-75.5 218q0 112 44.5 208t128.5 155.5t190 59.5zM357 48
q134 0 218.5 109t84.5 261q0 118 -60 181t-166 63q-88 0 -157.5 -52.5t-106.5 -136.5t-37 -181q0 -116 60 -180t164 -64z" />
    <glyph glyph-name="obreve" unicode="&#x14f;" horiz-adv-x="546" 
d="M323 558q-50 0 -80 35.5t-26 98.5l43 -1q-5 -92 64 -92q38 0 63.5 26t32.5 67l43 -1q-12 -62 -50 -97.5t-90 -35.5zM302 490q90 0 143.5 -52t53.5 -146q0 -127 -69 -212t-184 -85q-91 0 -144.5 53.5t-53.5 149.5q0 121 70 206.5t184 85.5zM300 441q-86 0 -142.5 -69
t-56.5 -169q0 -74 39.5 -116.5t106.5 -42.5q87 0 142.5 69t55.5 176q0 75 -40 113.5t-105 38.5z" />
    <glyph glyph-name="Ohungarumlaut" unicode="&#x150;" horiz-adv-x="766" 
d="M496 934h59l-129 -139h-54zM632 934h59l-129 -139h-53zM438 715q128 0 204 -78t76 -218q0 -176 -100.5 -300t-263.5 -124q-128 0 -203.5 79t-75.5 218q0 112 44.5 208t128.5 155.5t190 59.5zM357 48q134 0 218.5 109t84.5 261q0 118 -60 181t-166 63q-88 0 -157.5 -52.5
t-106.5 -136.5t-37 -181q0 -116 60 -180t164 -64z" />
    <glyph glyph-name="ohungarumlaut" unicode="&#x151;" 
d="M344 698h59l-129 -139h-54zM480 698h59l-129 -139h-53zM302 490q90 0 143.5 -52t53.5 -146q0 -127 -69 -212t-184 -85q-91 0 -144.5 53.5t-53.5 149.5q0 121 70 206.5t184 85.5zM300 441q-86 0 -142.5 -69t-56.5 -169q0 -74 39.5 -116.5t106.5 -42.5q87 0 142.5 69
t55.5 176q0 75 -40 113.5t-105 38.5z" />
    <glyph glyph-name="OE" unicode="&#x152;" horiz-adv-x="874" 
d="M854 659h-327l-35 -279h272l-6 -51h-272l-34 -277h346l-6 -52h-441q-127 0 -201 79.5t-74 216.5q0 111 44 205t127.5 151.5t188.5 57.5h424zM397 53l75 604h-41q-86 0 -155.5 -50.5t-106 -132.5t-36.5 -177q0 -114 59 -179t162 -65h43z" />
    <glyph glyph-name="oe" unicode="&#x153;" horiz-adv-x="743" 
d="M542 44q28 0 62 17.5t60 51.5l41 -30q-31 -41 -75.5 -64t-89.5 -23q-59 0 -101.5 30.5t-60.5 86.5h-2q-30 -54 -76 -85.5t-102 -31.5q-72 0 -117 53t-45 144q0 126 65.5 211.5t164.5 85.5q52 0 89 -31t53 -87h2q31 56 81.5 87t112.5 31q56 0 91 -29t35 -79
q0 -81 -87 -130.5t-226 -72.5q5 -64 39 -99.5t86 -35.5zM202 44q65 0 114 65.5t54 163.5q4 77 -25.5 122.5t-81.5 45.5q-72 0 -123 -71.5t-51 -173.5q0 -73 31.5 -112.5t81.5 -39.5zM600 441q-72 0 -123 -60t-59 -157q114 20 186.5 58.5t72.5 95.5q0 33 -23.5 48t-53.5 15z
" />
    <glyph glyph-name="Racute" unicode="&#x154;" horiz-adv-x="600" 
d="M472 935l-129 -139h-57l124 139h62zM365 293l-1 -2l144 -291h-65l-140 288h-145l-35 -288h-56l87 710h222q90 0 135.5 -45.5t45.5 -128.5q0 -97 -50.5 -162t-141.5 -81zM204 659l-39 -320h148q87 0 137 54t50 143q0 62 -37 92.5t-98 30.5h-161z" />
    <glyph glyph-name="racute" unicode="&#x155;" horiz-adv-x="310" 
d="M348 698l-129 -139h-57l124 139h62zM155 373q63 98 167 117l-8 -62q-69 -7 -117.5 -63.5t-62.5 -144.5l-27 -220h-52l59 485h52l-14 -112h3z" />
    <glyph glyph-name="Rcommaaccent" unicode="&#x156;" horiz-adv-x="600" 
d="M365 293l-1 -2l144 -291h-65l-140 288h-145l-35 -288h-56l87 710h222q90 0 135.5 -45.5t45.5 -128.5q0 -97 -50.5 -162t-141.5 -81zM204 659l-39 -320h148q87 0 137 54t50 143q0 62 -37 92.5t-98 30.5h-161zM233 -74v20h47v-22q0 -122 -106 -130l-9 34q36 5 52 28t16 70z
" />
    <glyph glyph-name="rcommaaccent" unicode="&#x157;" horiz-adv-x="309" 
d="M155 373q63 98 167 117l-8 -62q-69 -7 -117.5 -63.5t-62.5 -144.5l-27 -220h-52l59 485h52l-14 -112h3zM51 -74v20h47v-22q0 -122 -106 -130l-9 34q36 5 52 28t16 70z" />
    <glyph glyph-name="Rcaron" unicode="&#x158;" horiz-adv-x="600" 
d="M389 795h-51l-90 140h54l64 -104h3l89 104h57zM365 293l-1 -2l144 -291h-65l-140 288h-145l-35 -288h-56l87 710h222q90 0 135.5 -45.5t45.5 -128.5q0 -97 -50.5 -162t-141.5 -81zM204 659l-39 -320h148q87 0 137 54t50 143q0 62 -37 92.5t-98 30.5h-161z" />
    <glyph glyph-name="rcaron" unicode="&#x159;" horiz-adv-x="309" 
d="M261 558h-51l-90 140h54l64 -104h3l89 104h57zM155 373q63 98 167 117l-8 -62q-69 -7 -117.5 -63.5t-62.5 -144.5l-27 -220h-52l59 485h52l-14 -112h3z" />
    <glyph glyph-name="Sacute" unicode="&#x15a;" horiz-adv-x="545" 
d="M441 934h62l-129 -139h-57zM296 391q6 -3 18 -10q35 -19 52 -29.5t43.5 -29.5t39 -35t22.5 -40t10 -50q0 -93 -62.5 -147.5t-160.5 -54.5q-67 0 -128 30t-98 85l43 39q31 -50 79 -75.5t102 -25.5q73 0 120 39.5t47 103.5q0 23 -10 42.5t-30.5 36t-41.5 29.5t-53 30
q-11 6 -17 9q-38 21 -50.5 28.5t-43 29.5t-42.5 38t-23.5 41.5t-11.5 54.5q0 83 59.5 134t153.5 51q54 0 105.5 -23t86.5 -64l-42 -38q-58 72 -154 72q-65 0 -108.5 -35t-42.5 -90q0 -25 9.5 -45.5t33.5 -39.5t40.5 -29.5t54.5 -31.5z" />
    <glyph glyph-name="sacute" unicode="&#x15b;" horiz-adv-x="410" 
d="M337 698h62l-129 -139h-57zM51 104q54 -61 131 -61q52 0 84.5 23.5t32.5 63.5q0 44 -59 74q-12 6 -56 25q-55 23 -86 52t-31 77q0 60 45 96t109 36q89 0 145 -61l-35 -36q-44 49 -113 49q-42 0 -70 -22t-28 -60q0 -30 24.5 -50t69.5 -39q2 -1 18.5 -8.5t20 -9.5t18.5 -9
t19 -10.5t16 -11.5t16 -13.5t11.5 -14.5t10.5 -17t5.5 -19t2.5 -22q1 -67 -47.5 -104t-122.5 -37q-104 0 -165 73z" />
    <glyph glyph-name="Scircumflex" unicode="&#x15c;" horiz-adv-x="545" 
d="M342 901l-90 -106h-56l123 140h51l93 -140h-55l-64 106h-2zM296 391q6 -3 18 -10q35 -19 52 -29.5t43.5 -29.5t39 -35t22.5 -40t10 -50q0 -93 -62.5 -147.5t-160.5 -54.5q-67 0 -128 30t-98 85l43 39q31 -50 79 -75.5t102 -25.5q73 0 120 39.5t47 103.5q0 23 -10 42.5
t-30.5 36t-41.5 29.5t-53 30q-11 6 -17 9q-38 21 -50.5 28.5t-43 29.5t-42.5 38t-23.5 41.5t-11.5 54.5q0 83 59.5 134t153.5 51q54 0 105.5 -23t86.5 -64l-42 -38q-58 72 -154 72q-65 0 -108.5 -35t-42.5 -90q0 -25 9.5 -45.5t33.5 -39.5t40.5 -29.5t54.5 -31.5z" />
    <glyph glyph-name="scircumflex" unicode="&#x15d;" horiz-adv-x="410" 
d="M256 664l-90 -106h-56l123 140h51l93 -140h-55l-64 106h-2zM218 442q-42 0 -70 -22t-28 -60q0 -30 24.5 -50t69.5 -39q2 -1 18.5 -8.5t20 -9.5t18.5 -9t19 -10.5t16 -11.5t16 -13.5t11.5 -14.5t10.5 -17t5.5 -19t2.5 -22q1 -67 -47.5 -104t-122.5 -37q-104 0 -165 73
l34 36q54 -61 131 -61q52 0 84.5 23.5t32.5 63.5q0 44 -59 74q-12 6 -56 25q-55 23 -86 52t-31 77q0 60 45 96t109 36q89 0 145 -61l-35 -36q-44 49 -113 49z" />
    <glyph glyph-name="Scedilla" unicode="&#x15e;" horiz-adv-x="545" 
d="M296 391q6 -3 18 -10q35 -19 52 -29.5t43.5 -29.5t39 -35t22.5 -40t10 -50q0 -93 -62.5 -147.5t-160.5 -54.5h-5l-17 -29l1 -1q70 -5 70 -62q0 -37 -28.5 -63t-71.5 -26q-26 0 -45 7l3 33q14 -7 39 -7t44 14.5t19 40.5q0 34 -69 37l3 26l18 33q-123 17 -187 112l43 39
q31 -50 79 -75.5t102 -25.5q73 0 120 39.5t47 103.5q0 23 -10 42.5t-30.5 36t-41.5 29.5t-53 30q-11 6 -17 9q-38 21 -50.5 28.5t-43 29.5t-42.5 38t-23.5 41.5t-11.5 54.5q0 83 59.5 134t153.5 51q54 0 105.5 -23t86.5 -64l-42 -38q-58 72 -154 72q-65 0 -108.5 -35
t-42.5 -90q0 -25 9.5 -45.5t33.5 -39.5t40.5 -29.5t54.5 -31.5z" />
    <glyph glyph-name="scedilla" unicode="&#x15f;" horiz-adv-x="410" 
d="M214 271q2 -1 18.5 -8.5t20 -9.5t18.5 -9t19 -10.5t16 -11.5t16 -13.5t11.5 -14.5t10.5 -17t5.5 -19t2.5 -22q1 -67 -47.5 -104t-122.5 -37h-6l-17 -29l1 -1q70 -5 70 -62q0 -37 -28.5 -63t-71.5 -26q-26 0 -45 7l3 33q14 -7 39 -7t44 14.5t19 40.5q0 34 -69 37l3 26
l18 33q-76 12 -125 70l34 36q54 -61 131 -61q52 0 84.5 23.5t32.5 63.5q0 44 -59 74q-12 6 -56 25q-55 23 -86 52t-31 77q0 60 45 96t109 36q89 0 145 -61l-35 -36q-44 49 -113 49q-42 0 -70 -22t-28 -60q0 -30 24.5 -50t69.5 -39z" />
    <glyph glyph-name="Scaron" unicode="&#x160;" horiz-adv-x="545" 
d="M356 795h-51l-90 140h54l64 -104h3l89 104h57zM296 391q6 -3 18 -10q35 -19 52 -29.5t43.5 -29.5t39 -35t22.5 -40t10 -50q0 -93 -62.5 -147.5t-160.5 -54.5q-67 0 -128 30t-98 85l43 39q31 -50 79 -75.5t102 -25.5q73 0 120 39.5t47 103.5q0 23 -10 42.5t-30.5 36
t-41.5 29.5t-53 30q-11 6 -17 9q-38 21 -50.5 28.5t-43 29.5t-42.5 38t-23.5 41.5t-11.5 54.5q0 83 59.5 134t153.5 51q54 0 105.5 -23t86.5 -64l-42 -38q-58 72 -154 72q-65 0 -108.5 -35t-42.5 -90q0 -25 9.5 -45.5t33.5 -39.5t40.5 -29.5t54.5 -31.5z" />
    <glyph glyph-name="scaron" unicode="&#x161;" horiz-adv-x="410" 
d="M270 558h-51l-90 140h54l64 -104h3l89 104h57zM218 442q-42 0 -70 -22t-28 -60q0 -30 24.5 -50t69.5 -39q2 -1 18.5 -8.5t20 -9.5t18.5 -9t19 -10.5t16 -11.5t16 -13.5t11.5 -14.5t10.5 -17t5.5 -19t2.5 -22q1 -67 -47.5 -104t-122.5 -37q-104 0 -165 73l34 36
q54 -61 131 -61q52 0 84.5 23.5t32.5 63.5q0 44 -59 74q-12 6 -56 25q-55 23 -86 52t-31 77q0 60 45 96t109 36q89 0 145 -61l-35 -36q-44 49 -113 49z" />
    <glyph glyph-name="uni0162" unicode="&#x162;" horiz-adv-x="520" 
d="M89 710h456l-6 -51h-201l-81 -659h-20l-20 -34l1 -1q70 -5 70 -62q0 -37 -28.5 -63t-71.5 -26q-26 0 -45 7l3 33q14 -7 39 -7t44 14.5t19 40.5q0 34 -69 37l3 26l20 38l80 656h-199z" />
    <glyph glyph-name="uni0163" unicode="&#x163;" horiz-adv-x="338" 
d="M165 439l-37 -302q-5 -45 5 -68t43 -23q42 0 89 33l7 -50q-49 -34 -110 -34h-8l-18 -29l1 -1q70 -5 70 -62q0 -37 -28.5 -63t-71.5 -26q-26 0 -45 7l3 33q14 -7 39 -7t44 14.5t19 40.5q0 34 -69 37l3 26l20 37q-59 24 -46 129l38 308h-57l5 46h58l20 168l53 9l-22 -177
h155l-5 -46h-155z" />
    <glyph glyph-name="Tcaron" unicode="&#x164;" horiz-adv-x="520" 
d="M353 795h-51l-90 140h54l64 -104h3l89 104h57zM89 710h456l-6 -51h-201l-81 -659h-55l80 659h-199z" />
    <glyph glyph-name="tcaron" unicode="&#x165;" horiz-adv-x="343" 
d="M309 764h55l-59 -172h-41zM265 79l7 -50q-49 -34 -110 -34q-104 0 -87 136l38 308h-57l5 46h58l20 168l53 9l-22 -177h155l-5 -46h-155l-37 -302q-5 -45 5 -68t43 -23q42 0 89 33z" />
    <glyph glyph-name="Tbar" unicode="&#x166;" horiz-adv-x="520" 
d="M539 659h-201l-33 -267h113l-7 -47h-112l-42 -345h-55l42 345h-101l8 47h99l32 267h-199l6 51h456z" />
    <glyph glyph-name="tbar" unicode="&#x167;" horiz-adv-x="338" 
d="M320 439h-155l-17 -140h132l-5 -40h-132l-15 -122q-5 -45 5 -68t43 -23q42 0 89 33l7 -50q-49 -34 -110 -34q-104 0 -87 136l16 128h-50l5 40h50l17 140h-57l5 46h58l20 168l53 9l-22 -177h155z" />
    <glyph glyph-name="Utilde" unicode="&#x168;" horiz-adv-x="660" 
d="M251 831q36 87 95 87q30 0 68 -32t57 -32q38 0 62 60l35 -15q-17 -44 -41.5 -67t-51.5 -23q-7 0 -13 1t-12.5 4t-11 5t-11 7t-9 7t-9.5 8t-8 7q-32 25 -51 25q-38 0 -64 -59zM578 283q-35 -288 -280 -288q-105 0 -157 62.5t-52 171.5q0 34 4 62l52 419h55l-52 -420
q-4 -42 -4 -58q0 -86 38 -135t118 -49q93 0 150.5 58.5t72.5 177.5l52 426h55z" />
    <glyph glyph-name="utilde" unicode="&#x169;" horiz-adv-x="529" 
d="M248 636q-38 0 -64 -59l-35 17q36 87 95 87q30 0 68 -32t57 -32q38 0 62 60l35 -15q-17 -44 -41.5 -67t-51.5 -23q-7 0 -13 1t-12.5 4t-11 5t-11 7t-9 7t-9.5 8t-8 7q-32 25 -51 25zM429 485h52l-59 -485h-52l14 113h-3q-35 -54 -84 -86t-102 -32q-153 0 -129 197l36 293
h52l-35 -290q-11 -84 12.5 -117.5t75.5 -33.5q62 0 121.5 66t73.5 156z" />
    <glyph glyph-name="Umacron" unicode="&#x16a;" horiz-adv-x="660" 
d="M288 891h251l-6 -46h-252zM578 283q-35 -288 -280 -288q-105 0 -157 62.5t-52 171.5q0 34 4 62l52 419h55l-52 -420q-4 -42 -4 -58q0 -86 38 -135t118 -49q93 0 150.5 58.5t72.5 177.5l52 426h55z" />
    <glyph glyph-name="umacron" unicode="&#x16b;" horiz-adv-x="529" 
d="M437 654l-6 -46h-252l7 46h251zM429 485h52l-59 -485h-52l14 113h-3q-35 -54 -84 -86t-102 -32q-153 0 -129 197l36 293h52l-35 -290q-11 -84 12.5 -117.5t75.5 -33.5q62 0 121.5 66t73.5 156z" />
    <glyph glyph-name="Ubreve" unicode="&#x16c;" horiz-adv-x="660" 
d="M405 795q-50 0 -80 35.5t-26 98.5l43 -1q-5 -92 64 -92q38 0 63.5 26t32.5 67l43 -1q-12 -62 -50 -97.5t-90 -35.5zM578 283q-35 -288 -280 -288q-105 0 -157 62.5t-52 171.5q0 34 4 62l52 419h55l-52 -420q-4 -42 -4 -58q0 -86 38 -135t118 -49q93 0 150.5 58.5
t72.5 177.5l52 426h55z" />
    <glyph glyph-name="ubreve" unicode="&#x16d;" horiz-adv-x="529" 
d="M303 558q-50 0 -80 35.5t-26 98.5l43 -1q-5 -92 64 -92q38 0 63.5 26t32.5 67l43 -1q-12 -62 -50 -97.5t-90 -35.5zM429 485h52l-59 -485h-52l14 113h-3q-35 -54 -84 -86t-102 -32q-153 0 -129 197l36 293h52l-35 -290q-11 -84 12.5 -117.5t75.5 -33.5q62 0 121.5 66
t73.5 156z" />
    <glyph glyph-name="Uring" unicode="&#x16e;" horiz-adv-x="660" 
d="M410 951q36 0 59.5 -23t23.5 -58q0 -37 -24.5 -61t-61.5 -24q-35 0 -58.5 23.5t-23.5 58.5q0 37 24 60.5t61 23.5zM410 914q-21 0 -34.5 -13t-13.5 -33t13 -33t33 -13q21 0 34.5 13.5t13.5 34.5q0 19 -13 31.5t-33 12.5zM578 283q-35 -288 -280 -288q-105 0 -157 62.5
t-52 171.5q0 34 4 62l52 419h55l-52 -420q-4 -42 -4 -58q0 -86 38 -135t118 -49q93 0 150.5 58.5t72.5 177.5l52 426h55z" />
    <glyph glyph-name="uring" unicode="&#x16f;" horiz-adv-x="529" 
d="M305 548q-35 0 -58.5 23.5t-23.5 58.5q0 37 24 60.5t61 23.5q36 0 59.5 -23t23.5 -58q0 -37 -24.5 -61t-61.5 -24zM308 677q-21 0 -34.5 -13t-13.5 -33t13 -33t33 -13q21 0 34.5 13.5t13.5 34.5q0 19 -13 31.5t-33 12.5zM429 485h52l-59 -485h-52l14 113h-3
q-35 -54 -84 -86t-102 -32q-153 0 -129 197l36 293h52l-35 -290q-11 -84 12.5 -117.5t75.5 -33.5q62 0 121.5 66t73.5 156z" />
    <glyph glyph-name="Uhungarumlaut" unicode="&#x170;" horiz-adv-x="660" 
d="M399 934h59l-129 -139h-54zM535 934h59l-129 -139h-53zM578 283q-35 -288 -280 -288q-105 0 -157 62.5t-52 171.5q0 34 4 62l52 419h55l-52 -420q-4 -42 -4 -58q0 -86 38 -135t118 -49q93 0 150.5 58.5t72.5 177.5l52 426h55z" />
    <glyph glyph-name="uhungarumlaut" unicode="&#x171;" horiz-adv-x="533" 
d="M378 698l-129 -139h-54l124 139h59zM385 559h-53l123 139h59zM402 266l27 219h52l-59 -485h-52l14 113h-3q-35 -54 -84 -86t-102 -32q-153 0 -129 197l36 293h52l-35 -290q-11 -84 12.5 -117.5t75.5 -33.5q62 0 121.5 66t73.5 156z" />
    <glyph glyph-name="Uogonek" unicode="&#x172;" horiz-adv-x="660" 
d="M575 710h55l-52 -427q-28 -228 -189 -276q-49 -20 -82.5 -51t-34.5 -60q-1 -17 10.5 -28.5t30.5 -11.5q29 0 49 12l3 -39q-25 -13 -62 -13q-39 0 -58 20.5t-18 51.5q3 54 72 105v2h-1q-105 0 -157 62.5t-52 171.5q0 34 4 62l52 419h55l-52 -420q-4 -42 -4 -58
q0 -86 38 -135t118 -49q93 0 150.5 58.5t72.5 177.5z" />
    <glyph glyph-name="uogonek" unicode="&#x173;" horiz-adv-x="529" 
d="M376 -144q29 0 50 12l2 -39q-25 -13 -62 -13q-38 0 -57.5 18.5t-17.5 53.5q1 60 80 119l13 106h-3q-35 -54 -84 -86t-102 -32q-153 0 -129 197l36 293h52l-35 -290q-11 -84 12.5 -117.5t75.5 -33.5q62 0 121.5 66t73.5 156l27 219h52l-59 -485q-85 -49 -86 -104
q-1 -18 9 -29t31 -11z" />
    <glyph glyph-name="Wcircumflex" unicode="&#x174;" horiz-adv-x="925" 
d="M543 901l-90 -106h-56l123 140h51l93 -140h-55l-64 106h-2zM885 710h60l-292 -710h-58l-85 615h-3l-235 -615h-58l-118 710h58l98 -614h3l232 614h65l83 -612h1z" />
    <glyph glyph-name="wcircumflex" unicode="&#x175;" horiz-adv-x="691" 
d="M399 664l-90 -106h-56l123 140h51l93 -140h-55l-64 106h-2zM650 485q14 -78 6 -150q-14 -164 -82.5 -252t-145.5 -88q-92 0 -108 96h-1q-27 -47 -65.5 -71.5t-75.5 -24.5q-135 0 -111 203l36 287h52l-35 -283q-19 -158 68 -158q44 0 84 54t50 133l32 254h52l-36 -288
q-18 -153 65 -153q56 0 108 86t61 212q5 63 -7 143h53z" />
    <glyph glyph-name="Ycircumflex" unicode="&#x176;" horiz-adv-x="538" 
d="M347 901l-90 -106h-56l123 140h51l93 -140h-55l-64 106h-2zM510 710h66l-269 -390l-40 -320h-56l40 320l-172 390h61l142 -334h2z" />
    <glyph glyph-name="ycircumflex" unicode="&#x177;" horiz-adv-x="528" 
d="M312 664l-90 -106h-56l123 140h51l93 -140h-55l-64 106h-2zM429 485h52l-51 -421q-8 -63 -25.5 -111t-40.5 -77.5t-54 -47.5t-61.5 -24.5t-66.5 -6.5q-79 0 -155 41l17 48q68 -40 139 -40q78 0 128.5 47.5t66.5 174.5l6 52h-2q-35 -58 -84.5 -91.5t-104.5 -33.5
q-153 0 -129 197l36 293h52l-35 -290q-11 -84 12.5 -117.5t75.5 -33.5q65 0 126 69.5t72 163.5h1z" />
    <glyph glyph-name="Ydieresis" unicode="&#x178;" horiz-adv-x="538" 
d="M267 831q-16 0 -27 11t-11 28q0 18 11.5 29.5t28.5 11.5t28 -11.5t11 -27.5q0 -17 -11.5 -29t-29.5 -12zM419 831q-16 0 -27 11t-11 28q0 18 11.5 29.5t28.5 11.5t28 -11.5t11 -27.5q0 -17 -11.5 -29t-29.5 -12zM510 710h66l-269 -390l-40 -320h-56l40 320l-172 390h61
l142 -334h2z" />
    <glyph glyph-name="Zacute" unicode="&#x179;" horiz-adv-x="569" 
d="M463 935l-129 -139h-57l124 139h62zM549 664l-440 -610l-1 -2h369l-6 -52h-438l6 46l438 611l1 2h-344l6 51h414z" />
    <glyph glyph-name="zacute" unicode="&#x17a;" horiz-adv-x="434" 
d="M388 698l-129 -139h-57l124 139h62zM411 446l-327 -399v-1q213 0 286 -25l-14 -45q-54 16 -125 20t-223 4l5 42l325 395v2h-263l5 46h336z" />
    <glyph glyph-name="Zdotaccent" unicode="&#x17b;" horiz-adv-x="569" 
d="M363 831q-16 0 -27 11t-11 28q0 18 11.5 29.5t28.5 11.5t28 -11.5t11 -27.5q0 -17 -11.5 -29t-29.5 -12zM549 664l-440 -610l-1 -2h369l-6 -52h-438l6 46l438 611l1 2h-344l6 51h414z" />
    <glyph glyph-name="zdotaccent" unicode="&#x17c;" horiz-adv-x="434" 
d="M264 594q-16 0 -27 11t-11 28q0 18 11.5 29.5t28.5 11.5q16 0 27.5 -11t11.5 -28t-11.5 -29t-29.5 -12zM411 446l-327 -399v-1q213 0 286 -25l-14 -45q-54 16 -125 20t-223 4l5 42l325 395v2h-263l5 46h336z" />
    <glyph glyph-name="Zcaron" unicode="&#x17d;" horiz-adv-x="569" 
d="M380 795h-51l-90 140h54l64 -104h3l89 104h57zM549 664l-440 -610l-1 -2h369l-6 -52h-438l6 46l438 611l1 2h-344l6 51h414z" />
    <glyph glyph-name="zcaron" unicode="&#x17e;" horiz-adv-x="434" 
d="M281 558h-51l-90 140h54l64 -104h3l89 104h57zM411 446l-327 -399v-1q213 0 286 -25l-14 -45q-54 16 -125 20t-223 4l5 42l325 395v2h-263l5 46h336z" />
    <glyph glyph-name="longs" unicode="&#x17f;" horiz-adv-x="283" 
d="M350 668q-30 24 -74 24q-71 0 -84 -109l-71 -583h-53l54 439h-56l5 46h57l13 109q17 147 130 147q55 0 94 -26z" />
    <glyph glyph-name="uni018F" unicode="&#x18f;" horiz-adv-x="646" 
d="M341 715q117 0 189.5 -81.5t72.5 -210.5q0 -183 -101 -305.5t-270 -122.5q-82 0 -134 43t-52 111q0 67 39 119.5t103 82t136 44.5t146 14q30 0 75 -5v19q0 106 -56.5 172.5t-151.5 66.5q-108 0 -180 -67l-34 40q92 80 218 80zM237 48q119 0 202 84t101 220q-40 5 -70 5
q-163 1 -264.5 -57t-101.5 -145q0 -46 36.5 -76.5t96.5 -30.5z" />
    <glyph glyph-name="florin" unicode="&#x192;" horiz-adv-x="474" 
d="M426 692q-77 0 -103 -112l-26 -113h141l-12 -48h-142l-92 -377q-18 -79 -55.5 -115t-95.5 -36q-72 0 -109 42l27 36q28 -28 76 -28q80 0 107 112l88 366h-71l12 48h72l30 125q36 149 148 149q72 0 108 -40l-27 -37q-31 28 -76 28z" />
    <glyph glyph-name="uni019D" unicode="&#x19d;" horiz-adv-x="704" 
d="M608 710h55l-86 -710h-59l-318 609h-2l-81 -665q-10 -75 -40 -111t-87 -36q-37 0 -67 18l13 45q20 -15 49 -15q31 0 50 22.5t26 82.5l93 760h57l320 -614h1z" />
    <glyph glyph-name="Ohorn" unicode="&#x1a0;" horiz-adv-x="820" 
d="M776 774h51l-13 -99q-18 -143 -111 -146q15 -50 15 -110q0 -176 -100.5 -300t-263.5 -124q-128 0 -203.5 79t-75.5 218q0 112 44.5 208t128.5 155.5t190 59.5q87 0 151 -37t97 -106h10q30 0 45.5 26t23.5 84zM357 48q134 0 218.5 109t84.5 261q0 118 -60 181t-166 63
q-88 0 -157.5 -52.5t-106.5 -136.5t-37 -181q0 -116 60 -180t164 -64z" />
    <glyph glyph-name="ohorn" unicode="&#x1a1;" horiz-adv-x="618" 
d="M579 565h51l-13 -99q-18 -146 -116 -146h-3q1 -9 1 -28q0 -127 -69 -212t-184 -85q-91 0 -144.5 53.5t-53.5 149.5q0 121 70 206.5t184 85.5q71 0 120 -32.5t67 -93.5q4 -1 10 -1q30 0 45.5 26t23.5 84zM247 44q87 0 142.5 69t55.5 176q0 75 -40 113.5t-105 38.5
q-86 0 -142.5 -69t-56.5 -169q0 -74 39.5 -116.5t106.5 -42.5z" />
    <glyph glyph-name="Uhorn" unicode="&#x1af;" horiz-adv-x="727" 
d="M713 774h51l-13 -99q-18 -146 -116 -146q-9 0 -27 2l-30 -248q-35 -288 -280 -288q-105 0 -157 62.5t-52 171.5q0 34 4 62l52 419h55l-52 -420q-4 -42 -4 -58q0 -86 38 -135t118 -49q93 0 150.5 58.5t72.5 177.5l52 426h55l-17 -136q16 -2 20 -2q30 0 45.5 26t23.5 84z
" />
    <glyph glyph-name="uhorn" unicode="&#x1b0;" horiz-adv-x="598" 
d="M565 565h51l-13 -99q-18 -146 -116 -146q-8 0 -26 2l-39 -322h-52l14 113h-3q-35 -54 -84 -86t-102 -32q-153 0 -129 197l36 293h52l-35 -290q-11 -84 12.5 -117.5t75.5 -33.5q62 0 121.5 66t73.5 156l27 219h52l-15 -120q7 -2 19 -2q30 0 45.5 26t23.5 84z" />
    <glyph glyph-name="Gcaron" unicode="&#x1e6;" horiz-adv-x="711" 
d="M477 795h-51l-90 140h54l64 -104h3l89 104h57zM374 302l6 52h264l-32 -267q-50 -45 -118.5 -68.5t-138.5 -23.5q-129 0 -204 79t-75 219q0 173 102 297.5t257 124.5q144 0 231 -113l-44 -36q-77 96 -188 96q-130 0 -215.5 -109t-85.5 -259q0 -115 59 -180.5t166 -65.5
q116 0 201 69l23 185h-208z" />
    <glyph glyph-name="gcaron" unicode="&#x1e7;" horiz-adv-x="550" 
d="M354 558h-51l-90 140h54l64 -104h3l89 104h57zM451 485h52l-52 -421q-10 -79 -33.5 -133t-59.5 -82.5t-76.5 -40t-93.5 -11.5q-84 0 -160 41l17 49q70 -41 145 -41q89 0 141.5 47t68.5 175l9 75h-1q-34 -60 -84.5 -96.5t-108.5 -36.5q-79 0 -123 55t-44 139q0 114 70 200
t178 86q96 0 147 -57h1zM223 58q75 0 133.5 74.5t71.5 170.5l10 78q-25 31 -65 45.5t-75 14.5q-86 0 -141 -72.5t-55 -165.5q0 -65 31.5 -105t89.5 -40z" />
    <glyph glyph-name="uni01EA" unicode="&#x1ea;" horiz-adv-x="766" 
d="M391 -3q-80 -49 -81 -101q-1 -18 9 -29t31 -11q29 0 50 12l2 -39q-25 -13 -62 -13q-38 0 -57.5 18.5t-17.5 53.5q1 52 64 107l1 1q-118 8 -186.5 85.5t-68.5 210.5q0 112 44.5 208t128.5 155.5t190 59.5q128 0 204 -78t76 -218q0 -165 -89.5 -286t-237.5 -136zM133 292
q0 -116 60 -180t164 -64q134 0 218.5 109t84.5 261q0 118 -60 181t-166 63q-88 0 -157.5 -52.5t-106.5 -136.5t-37 -181z" />
    <glyph glyph-name="uni01EB" unicode="&#x1eb;" horiz-adv-x="546" 
d="M285 -2q-81 -48 -82 -102q-1 -18 9 -29t31 -11q29 0 50 12l2 -39q-25 -13 -62 -13q-38 0 -57.5 18.5t-17.5 53.5q1 54 65 107v1q-81 7 -128 59.5t-47 142.5q0 121 70 206.5t184 85.5q90 0 143.5 -52t53.5 -146q0 -116 -57.5 -197.5t-156.5 -96.5zM101 203
q0 -74 39.5 -116.5t106.5 -42.5q87 0 142.5 69t55.5 176q0 75 -40 113.5t-105 38.5q-86 0 -142.5 -69t-56.5 -169z" />
    <glyph glyph-name="Aringacute" unicode="&#x1fa;" horiz-adv-x="613" 
d="M382 784q-35 0 -58.5 23.5t-23.5 58.5q0 37 24 60.5t61 23.5q39 0 62 -25l70 48l67 1l-119 -83q3 -11 3 -22q0 -37 -24.5 -61t-61.5 -24zM385 913q-21 0 -34.5 -13t-13.5 -33t13 -33t33 -13q21 0 34.5 13.5t13.5 34.5q0 19 -13 31.5t-33 12.5zM333 710h60l159 -710h-58
l-41 191h-305l-87 -191h-59zM172 242h270l-86 398h-2z" />
    <glyph glyph-name="aringacute" unicode="&#x1fb;" horiz-adv-x="551" 
d="M348 548q-35 0 -58.5 23.5t-23.5 58.5q0 37 24 60.5t61 23.5q39 0 63 -26l75 50h67l-124 -85q2 -12 2 -20q0 -37 -24.5 -61t-61.5 -24zM351 677q-21 0 -34.5 -13t-13.5 -33t13 -33t33 -13q21 0 34.5 13.5t13.5 34.5q0 19 -13 31.5t-33 12.5zM444 434l7 51h51l-59 -485
h-52l16 126h-2q-34 -59 -83 -95t-107 -36q-79 0 -123 55t-44 139q0 124 69.5 212.5t178.5 88.5q96 0 146 -56h2zM223 43q76 0 134.5 77t70.5 183l10 79q-24 31 -64 45t-76 14q-87 0 -141.5 -74.5t-54.5 -178.5q0 -65 31.5 -105t89.5 -40z" />
    <glyph glyph-name="AEacute" unicode="&#x1fc;" horiz-adv-x="848" 
d="M649 935l-129 -139h-57l124 139h62zM830 659h-331l-34 -279h277l-6 -52h-278l-33 -276h347l-5 -52h-403l24 191h-228l-118 -191h-63l440 710h416zM394 242l50 408h-2l-251 -408h203z" />
    <glyph glyph-name="aeacute" unicode="&#x1fd;" horiz-adv-x="667" 
d="M572 698l-129 -139h-57l124 139h62zM466 44q28 0 62.5 17.5t59.5 51.5l41 -30q-31 -41 -75 -64t-89 -23q-59 0 -102 29.5t-62 84.5h-2q-59 -114 -148 -115q-51 -1 -84.5 38.5t-33.5 107.5q0 142 89 237t229 95q38 0 72 -10q49 27 106 27q56 0 91 -29t35 -79
q0 -81 -87 -135.5t-225 -82.5q8 -56 41 -88t82 -32zM602 378q0 33 -23.5 48t-54.5 15q-77 0 -128 -66.5t-55 -166.5q113 25 187 68.5t74 101.5zM157 44q40 0 74.5 44t56.5 113q2 136 82 221v2h-26q-114 0 -186.5 -81.5t-71.5 -200.5q0 -42 18.5 -70t52.5 -28z" />
    <glyph glyph-name="Oslashacute" unicode="&#x1fe;" horiz-adv-x="766" 
d="M610 935l-129 -139h-57l124 139h62zM735 692l-72 -80q55 -75 55 -193q0 -176 -100.5 -300t-263.5 -124q-118 0 -191 67l-71 -78l-30 31l72 79q-59 76 -59 198q0 112 44.5 208t128.5 155.5t190 59.5q123 0 197 -71l70 77zM133 292q0 -93 40 -155l424 465q-58 60 -163 60
q-88 0 -157.5 -52.5t-106.5 -136.5t-37 -181zM660 418q0 91 -37 151l-422 -465q58 -56 156 -56q134 0 218.5 109t84.5 261z" />
    <glyph glyph-name="oslashacute" unicode="&#x1ff;" 
d="M455 699l-129 -139h-57l124 139h62zM522 471l-56 -58q33 -49 33 -121q0 -127 -69 -212t-184 -85q-85 0 -138 48l-57 -59l-29 26l60 62q-34 51 -34 126q0 121 70 206.5t184 85.5q86 0 139 -48l54 55zM101 203q0 -54 21 -90l282 290q-38 38 -104 38q-86 0 -142.5 -69
t-56.5 -169zM445 289q0 49 -18 84l-282 -291q38 -38 102 -38q87 0 142.5 69t55.5 176z" />
    <glyph glyph-name="Scommaaccent" unicode="&#x218;" horiz-adv-x="545" 
d="M296 391q6 -3 18 -10q35 -19 52 -29.5t43.5 -29.5t39 -35t22.5 -40t10 -50q0 -93 -62.5 -147.5t-160.5 -54.5q-67 0 -128 30t-98 85l43 39q31 -50 79 -75.5t102 -25.5q73 0 120 39.5t47 103.5q0 23 -10 42.5t-30.5 36t-41.5 29.5t-53 30q-11 6 -17 9q-38 21 -50.5 28.5
t-43 29.5t-42.5 38t-23.5 41.5t-11.5 54.5q0 83 59.5 134t153.5 51q54 0 105.5 -23t86.5 -64l-42 -38q-58 72 -154 72q-65 0 -108.5 -35t-42.5 -90q0 -25 9.5 -45.5t33.5 -39.5t40.5 -29.5t54.5 -31.5zM265 -54v-22q0 -122 -106 -130l-9 34q36 5 52 28t16 70v20h47z" />
    <glyph glyph-name="scommaaccent" unicode="&#x219;" horiz-adv-x="410" 
d="M51 104q54 -61 131 -61q52 0 84.5 23.5t32.5 63.5q0 44 -59 74q-12 6 -56 25q-55 23 -86 52t-31 77q0 60 45 96t109 36q89 0 145 -61l-35 -36q-44 49 -113 49q-42 0 -70 -22t-28 -60q0 -30 24.5 -50t69.5 -39q2 -1 18.5 -8.5t20 -9.5t18.5 -9t19 -10.5t16 -11.5t16 -13.5
t11.5 -14.5t10.5 -17t5.5 -19t2.5 -22q1 -67 -47.5 -104t-122.5 -37q-104 0 -165 73zM188 -54v-22q0 -122 -106 -130l-9 34q36 5 52 28t16 70v20h47z" />
    <glyph glyph-name="uni021A" unicode="&#x21a;" horiz-adv-x="520" 
d="M539 659h-201l-81 -659h-55l80 659h-199l6 51h456zM246 -54v-22q0 -122 -106 -130l-9 34q36 5 52 28t16 70v20h47z" />
    <glyph glyph-name="uni021B" unicode="&#x21b;" horiz-adv-x="338" 
d="M265 79l7 -50q-49 -34 -110 -34q-104 0 -87 136l38 308h-57l5 46h58l20 168l53 9l-22 -177h155l-5 -46h-155l-37 -302q-5 -45 5 -68t43 -23q42 0 89 33zM165 -54v-22q0 -122 -106 -130l-9 34q36 5 52 28t16 70v20h47z" />
    <glyph glyph-name="uni0232" unicode="&#x232;" horiz-adv-x="538" 
d="M473 891l-6 -46h-252l7 46h251zM510 710h66l-269 -390l-40 -320h-56l40 320l-172 390h61l142 -334h2z" />
    <glyph glyph-name="uni0233" unicode="&#x233;" horiz-adv-x="528" 
d="M438 654l-6 -46h-252l7 46h251zM429 485h52l-51 -421q-8 -63 -25.5 -111t-40.5 -77.5t-54 -47.5t-61.5 -24.5t-66.5 -6.5q-79 0 -155 41l17 48q68 -40 139 -40q78 0 128.5 47.5t66.5 174.5l6 52h-2q-35 -58 -84.5 -91.5t-104.5 -33.5q-153 0 -129 197l36 293h52l-35 -290
q-11 -84 12.5 -117.5t75.5 -33.5q65 0 126 69.5t72 163.5h1z" />
    <glyph glyph-name="uni0237" unicode="&#x237;" horiz-adv-x="195" 
d="M-95 -140q20 -15 49 -15q31 0 50 22.5t26 82.5l66 535h52l-66 -541q-10 -75 -39.5 -111t-83.5 -36q-36 0 -66 18z" />
    <glyph glyph-name="uni0259" unicode="&#x259;" horiz-adv-x="453" 
d="M233 490q78 0 129.5 -54t51.5 -144q0 -123 -73 -209.5t-191 -86.5q-57 0 -91.5 28t-34.5 75q0 49 31 88t82 63.5t107 39t116 20.5q-4 61 -40 96t-91 35q-72 0 -124 -48l-33 36q70 61 161 61zM155 44q81 0 138 60.5t66 157.5l-1 1q-116 -14 -198 -54.5t-82 -104.5
q0 -27 20 -43.5t57 -16.5z" />
    <glyph glyph-name="uni0272" unicode="&#x272;" horiz-adv-x="547" 
d="M359 490q147 0 120 -198l-38 -292h-52l38 289q20 152 -81 152q-69 0 -135.5 -70.5t-78.5 -166.5l-32 -260q-9 -74 -38.5 -110.5t-83.5 -36.5q-37 0 -67 18l12 45q20 -15 49 -15q31 0 50 22.5t27 82.5l65 535h52l-15 -120h2q39 59 94.5 92t111.5 33z" />
    <glyph glyph-name="circumflex" unicode="&#x2c6;" horiz-adv-x="466" 
d="M348 543l-64 106h-2l-90 -106h-56l123 140h51l93 -140h-55z" />
    <glyph glyph-name="caron" unicode="&#x2c7;" horiz-adv-x="466" 
d="M364 683h57l-126 -140h-51l-90 140h54l64 -104h3z" />
    <glyph glyph-name="breve" unicode="&#x2d8;" horiz-adv-x="432" 
d="M252 543q-50 0 -80 35.5t-26 98.5l43 -1q-5 -92 64 -92q38 0 63.5 26t32.5 67l43 -1q-12 -62 -50 -97.5t-90 -35.5z" />
    <glyph glyph-name="dotaccent" unicode="&#x2d9;" horiz-adv-x="458" 
d="M276 659q16 0 27.5 -11.5t11.5 -27.5q0 -17 -11.5 -29t-29.5 -12q-16 0 -27 11t-11 28q0 18 11.5 29.5t28.5 11.5z" />
    <glyph glyph-name="ring" unicode="&#x2da;" horiz-adv-x="425" 
d="M259 699q36 0 59.5 -23t23.5 -58q0 -37 -24.5 -61t-61.5 -24q-35 0 -58.5 23.5t-23.5 58.5q0 37 24 60.5t61 23.5zM259 662q-21 0 -34.5 -13t-13.5 -33t13 -33t33 -13q21 0 34.5 13.5t13.5 34.5q0 19 -13 31.5t-33 12.5z" />
    <glyph glyph-name="ogonek" unicode="&#x2db;" horiz-adv-x="435" 
d="M261 -171q-25 -13 -62 -13q-38 0 -57.5 18.5t-17.5 53.5q1 33 26.5 66.5t63.5 59.5l41 -14q-85 -49 -86 -104q-1 -18 9 -29t31 -11q29 0 50 12z" />
    <glyph glyph-name="tilde" unicode="&#x2dc;" horiz-adv-x="471" 
d="M123 579q36 87 95 87q30 0 68 -32t57 -32q38 0 62 60l35 -15q-17 -44 -41.5 -67t-51.5 -23q-7 0 -13 1t-12.5 4t-11 5t-11 7t-9 7t-9.5 8t-8 7q-32 25 -51 25q-38 0 -64 -59z" />
    <glyph glyph-name="hungarumlaut" unicode="&#x2dd;" horiz-adv-x="474" 
d="M248 683h59l-129 -139h-54zM384 683h59l-129 -139h-53z" />
    <glyph glyph-name="uni0374" unicode="&#x374;" horiz-adv-x="236" 
d="M150 723h56l-80 -239h-48z" />
    <glyph glyph-name="uni0375" unicode="&#x375;" horiz-adv-x="236" 
d="M112 97h56l-80 -239h-48z" />
    <glyph glyph-name="uni037E" unicode="&#x37e;" horiz-adv-x="208" 
d="M129 491q17 0 28 -11.5t11 -27.5q0 -18 -11.5 -29.5t-28.5 -11.5q-16 0 -27.5 11.5t-11.5 27.5q0 18 11.5 29.5t28.5 11.5zM62 100h58l-76 -229h-41z" />
    <glyph glyph-name="tonos" unicode="&#x384;" horiz-adv-x="428" 
d="M282 703h63l-89 -159h-54z" />
    <glyph glyph-name="dieresistonos" unicode="&#x385;" horiz-adv-x="535" 
d="M342 703h53l-83 -159h-45zM181 659q17 0 28 -11t11 -28t-11.5 -29t-28.5 -12q-16 0 -27.5 11.5t-11.5 27.5q0 18 11.5 29.5t28.5 11.5zM438 659q17 0 28.5 -11t11.5 -28t-12 -29t-29 -12t-28 11.5t-11 27.5q0 18 11.5 29.5t28.5 11.5z" />
    <glyph glyph-name="Alphatonos" unicode="&#x386;" horiz-adv-x="612" 
d="M493 0l-41 191h-305l-87 -191h-59l331 710h60l159 -710h-58zM201 703l-97 -159h-52l87 159h62zM171 242h270l-86 398h-2z" />
    <glyph glyph-name="anoteleia" unicode="&#x387;" horiz-adv-x="216" 
d="M137 491q17 0 28 -11.5t11 -27.5q0 -18 -11.5 -29.5t-28.5 -11.5q-16 0 -27.5 11.5t-11.5 27.5q0 18 11.5 29.5t28.5 11.5z" />
    <glyph glyph-name="Epsilontonos" unicode="&#x388;" horiz-adv-x="554" 
d="M479 52l-6 -52h-404l87 710h384l-6 -51h-328l-35 -279h273l-6 -51h-273l-34 -277h348zM22 704h62l-97 -159h-52z" />
    <glyph glyph-name="Etatonos" unicode="&#x389;" horiz-adv-x="676" 
d="M636 710l-87 -710h-55l38 310h-370l-38 -310h-56l87 710h56l-43 -348h370l43 348h55zM21 704h62l-97 -159h-52z" />
    <glyph glyph-name="Iotatonos" unicode="&#x38a;" horiz-adv-x="260" 
d="M128 0h-56l87 710h56zM20 704h62l-97 -159h-52z" />
    <glyph glyph-name="Omicrontonos" unicode="&#x38c;" horiz-adv-x="767" 
d="M439 715q128 0 204 -78t76 -218q0 -176 -100.5 -300t-263.5 -124q-128 0 -203.5 79t-75.5 218q0 112 44.5 208t128.5 155.5t190 59.5zM78 704h62l-97 -159h-52zM358 48q134 0 218.5 109t84.5 261q0 118 -60 181t-166 63q-88 0 -157.5 -52.5t-106.5 -136.5t-37 -181
q0 -116 60 -180t164 -64z" />
    <glyph glyph-name="Upsilontonos" unicode="&#x38e;" horiz-adv-x="541" 
d="M512 710h66l-269 -390l-40 -320h-56l40 320l-172 390h61l142 -334h2zM-109 545l87 159h62l-97 -159h-52z" />
    <glyph glyph-name="Omegatonos" unicode="&#x38f;" horiz-adv-x="727" 
d="M476 53l-1 -1h154l-6 -52h-236l6 52q109 59 170 154t61 215q0 102 -57.5 171.5t-146.5 69.5q-124 0 -202.5 -97t-78.5 -230q0 -90 39 -164t109 -119l-7 -52h-235l6 52h160v1q-61 49 -95.5 123.5t-34.5 160.5q0 158 96 268t245 110q114 0 187 -84t73 -205
q0 -116 -55.5 -214t-150.5 -159zM71 704h62l-97 -159h-52z" />
    <glyph glyph-name="iotadieresistonos" unicode="&#x390;" horiz-adv-x="267" 
d="M206 718h53l-83 -159h-45zM45 674q17 0 28 -11t11 -28t-11.5 -29t-28.5 -12q-16 0 -27.5 11t-11.5 28q0 18 11.5 29.5t28.5 11.5zM302 674q17 0 28.5 -11t11.5 -28t-12 -29t-29 -12t-28 11t-11 28q0 18 11.5 29.5t28.5 11.5zM229 12q-36 -17 -72 -17q-57 0 -74.5 34.5
t-9.5 97.5l44 358h52l-43 -346q-6 -51 3.5 -73t44.5 -22q20 0 46 11z" />
    <glyph glyph-name="Alpha" unicode="&#x391;" horiz-adv-x="613" 
d="M494 0l-41 191h-305l-87 -191h-59l331 710h60l159 -710h-58zM172 242h270l-86 398h-2z" />
    <glyph glyph-name="Beta" unicode="&#x392;" horiz-adv-x="594" 
d="M417 372q112 -28 112 -143q0 -102 -69.5 -165.5t-178.5 -63.5h-214l87 710h211q173 0 173 -140q0 -63 -31.5 -117.5t-88.5 -77.5zM204 659l-33 -265h150q69 0 114 48.5t45 119.5q0 97 -128 97h-148zM272 52q86 0 142.5 48.5t56.5 126.5q0 115 -151 115h-154l-37 -290h143
z" />
    <glyph glyph-name="Gamma" unicode="&#x393;" horiz-adv-x="519" 
d="M542 659h-339l-81 -659h-56l88 710h394z" />
    <glyph glyph-name="uni0394" unicode="&#x394;" horiz-adv-x="593" 
d="M383 710l149 -665l-6 -45h-519l5 45l311 665h60zM74 52h398l-125 589h-3z" />
    <glyph glyph-name="Epsilon" unicode="&#x395;" horiz-adv-x="552" 
d="M477 52l-6 -52h-404l87 710h384l-6 -51h-328l-35 -279h273l-6 -51h-273l-34 -277h348z" />
    <glyph glyph-name="Zeta" unicode="&#x396;" horiz-adv-x="569" 
d="M549 664l-440 -610l-1 -2h369l-6 -52h-438l6 46l438 611l1 2h-344l6 51h414z" />
    <glyph glyph-name="Eta" unicode="&#x397;" horiz-adv-x="675" 
d="M635 710l-87 -710h-55l38 310h-370l-38 -310h-56l87 710h56l-43 -348h370l43 348h55z" />
    <glyph glyph-name="Theta" unicode="&#x398;" horiz-adv-x="766" 
d="M441 715q128 0 204 -78t76 -218q0 -176 -100.5 -300t-263.5 -124q-128 0 -203.5 79t-75.5 218q0 112 44.5 208t128.5 155.5t190 59.5zM360 48q134 0 218.5 109t84.5 261q0 118 -60 181t-166 63q-88 0 -157.5 -52.5t-106.5 -136.5t-37 -181q0 -116 60 -180t164 -64z
M223 326l6 52h337l-6 -52h-337z" />
    <glyph glyph-name="Iota" unicode="&#x399;" horiz-adv-x="262" 
d="M129 0h-56l87 710h56z" />
    <glyph glyph-name="Kappa" unicode="&#x39a;" horiz-adv-x="599" 
d="M609 710l-293 -330l211 -380h-68l-184 332h-2l-128 -143l-22 -189h-56l87 710h56l-53 -428h2l379 428h71z" />
    <glyph glyph-name="Lambda" unicode="&#x39b;" horiz-adv-x="612" 
d="M490 0l-135 639h-2l-290 -639h-59l328 710h60l156 -710h-58z" />
    <glyph glyph-name="Mu" unicode="&#x39c;" horiz-adv-x="814" 
d="M716 710h59l-87 -710h-55l72 595h-2l-286 -446h-41l-179 448h-1l-73 -597h-56l87 710h58l192 -489h2z" />
    <glyph glyph-name="Nu" unicode="&#x39d;" horiz-adv-x="704" 
d="M607 710h56l-86 -710h-59l-318 609h-2l-75 -609h-56l87 710h57l320 -613h1z" />
    <glyph glyph-name="Xi" unicode="&#x39e;" horiz-adv-x="579" 
d="M554 657h-427l6 53h428zM474 326h-350l6 52h350zM480 0h-440l6 53h440z" />
    <glyph glyph-name="Omicron" unicode="&#x39f;" horiz-adv-x="766" 
d="M438 715q128 0 204 -78t76 -218q0 -176 -100.5 -300t-263.5 -124q-128 0 -203.5 79t-75.5 218q0 112 44.5 208t128.5 155.5t190 59.5zM357 48q134 0 218.5 109t84.5 261q0 118 -60 181t-166 63q-88 0 -157.5 -52.5t-106.5 -136.5t-37 -181q0 -116 60 -180t164 -64z" />
    <glyph glyph-name="Pi" unicode="&#x3a0;" horiz-adv-x="653" 
d="M154 710h459l-87 -710h-55l80 659h-348l-81 -659h-56z" />
    <glyph glyph-name="Rho" unicode="&#x3a1;" horiz-adv-x="569" 
d="M374 710q91 0 136 -45.5t45 -128.5q0 -113 -66.5 -180.5t-184.5 -67.5h-146l-35 -288h-56l87 710h220zM311 339q87 0 137 53.5t50 143.5q0 62 -37 92.5t-97 30.5h-160l-39 -320h146z" />
    <glyph glyph-name="Sigma" unicode="&#x3a3;" horiz-adv-x="534" 
d="M535 659h-350l-1 -5l143 -297l-216 -303v-2h349l-6 -52h-423l5 42l224 315l-147 310l5 43h423z" />
    <glyph glyph-name="Tau" unicode="&#x3a4;" horiz-adv-x="520" 
d="M539 659h-201l-81 -659h-55l80 659h-199l6 51h456z" />
    <glyph glyph-name="Upsilon" unicode="&#x3a5;" horiz-adv-x="538" 
d="M510 710h66l-269 -390l-40 -320h-56l40 320l-172 390h61l142 -334h2z" />
    <glyph glyph-name="Phi" unicode="&#x3a6;" horiz-adv-x="761" 
d="M719 411q2 -144 -88.5 -245.5t-246.5 -108.5l-7 -57h-55l7 58q-118 9 -188 76.5t-71 181.5q-2 139 90 242.5t244 110.5l7 51h55l-6 -51q118 -9 188 -76t71 -182zM127 318q1 -94 56.5 -148.5t153.5 -61.5l63 510q-122 -8 -198.5 -94t-74.5 -206zM390 108q125 8 199.5 92.5
t72.5 208.5q-1 93 -56.5 147t-153.5 62z" />
    <glyph glyph-name="Chi" unicode="&#x3a7;" horiz-adv-x="595" 
d="M613 710l-264 -357l178 -353h-65l-154 308h-3l-230 -308h-67l266 355l-177 355h63l155 -311h1l228 311h69z" />
    <glyph glyph-name="Psi" unicode="&#x3a8;" horiz-adv-x="731" 
d="M653 710h55l-32 -254q-18 -142 -87.5 -211.5t-204.5 -69.5l-22 -175h-55l21 175q-257 1 -222 283l31 252h56l-31 -250q-15 -117 24 -174.5t149 -58.5l59 483h56l-60 -483q106 1 161 56t71 179z" />
    <glyph glyph-name="uni03A9" unicode="&#x3a9;" horiz-adv-x="725" 
d="M475 53l-1 -1h154l-6 -52h-236l6 52q109 59 170 154t61 215q0 102 -57.5 171.5t-146.5 69.5q-124 0 -202.5 -97t-78.5 -230q0 -90 39 -164t109 -119l-7 -52h-235l6 52h160v1q-61 49 -95.5 123.5t-34.5 160.5q0 158 96 268t245 110q114 0 187 -84t73 -205
q0 -116 -55.5 -214t-150.5 -159z" />
    <glyph glyph-name="Iotadieresis" unicode="&#x3aa;" horiz-adv-x="262" 
d="M101 911q17 0 28 -11.5t11 -27.5q0 -17 -11.5 -29t-29.5 -12q-16 0 -27 11t-11 28q0 18 11.5 29.5t28.5 11.5zM309 911q17 0 28 -11t11 -28t-11.5 -29t-28.5 -12q-16 0 -27.5 11.5t-11.5 27.5q0 18 11.5 29.5t28.5 11.5zM129 0h-56l87 710h56z" />
    <glyph glyph-name="Upsilondieresis" unicode="&#x3ab;" horiz-adv-x="538" 
d="M235 831q-16 0 -27 11t-11 28q0 18 11.5 29.5t28.5 11.5t28 -11.5t11 -27.5q0 -17 -11.5 -29t-29.5 -12zM444 831q-16 0 -27.5 11.5t-11.5 27.5q0 18 11.5 29.5t28.5 11.5t28 -11t11 -28t-11.5 -29t-28.5 -12zM510 710h66l-269 -390l-40 -320h-56l40 320l-172 390h61
l142 -334h2z" />
    <glyph glyph-name="alphatonos" unicode="&#x3ac;" horiz-adv-x="573" 
d="M431 719l-89 -159h-54l80 159h63zM483 43q18 0 41 9l11 -41q-29 -16 -66 -16q-42 0 -61.5 32.5t-18.5 101.5v8h-2q-35 -65 -85 -103.5t-109 -38.5q-64 0 -106.5 52.5t-42.5 141.5q0 117 64 209t163 92q66 0 103.5 -45t48.5 -123h2l66 170l48 -19l-103 -245v-84
q0 -53 10 -77t37 -24zM200 44q114 0 187 192q0 94 -29 149t-85 55q-78 0 -127 -77t-49 -169q0 -68 27.5 -109t75.5 -41z" />
    <glyph glyph-name="epsilontonos" unicode="&#x3ad;" horiz-adv-x="447" 
d="M384 719l-89 -159h-54l80 159h63zM261 441q-58 0 -97 -27t-39 -73q0 -28 22.5 -48t68.5 -20h86l-5 -47h-93q-50 0 -83 -31t-33 -74q0 -77 110 -77q97 0 179 60l19 -43q-95 -66 -205 -66q-74 0 -114.5 30.5t-40.5 84.5q0 48 24.5 86t67.5 56v2q-56 31 -56 89
q0 66 53 106.5t130 40.5q101 0 170 -56l-22 -40q-63 47 -142 47z" />
    <glyph glyph-name="etatonos" unicode="&#x3ae;" horiz-adv-x="550" 
d="M429 719l-89 -159h-54l80 159h63zM358 490q150 0 123 -198l-64 -490h-52l64 487q20 152 -81 152q-60 0 -122.5 -68.5t-77.5 -160.5l-26 -212h-52l43 353q6 55 0.5 73t-24.5 18q-11 0 -22 -4l-2 43q20 7 38 7q38 0 53.5 -28.5t9.5 -92.5h1q38 57 89 89t102 32z" />
    <glyph glyph-name="iotatonos" unicode="&#x3af;" horiz-adv-x="267" 
d="M208 718h63l-89 -159h-54zM229 12q-36 -17 -72 -17q-57 0 -74.5 34.5t-9.5 97.5l44 358h52l-43 -346q-6 -51 3.5 -73t44.5 -22q20 0 46 11z" />
    <glyph glyph-name="upsilondieresistonos" unicode="&#x3b0;" horiz-adv-x="519" 
d="M351 719h53l-83 -159h-45zM190 675q17 0 28 -11t11 -28t-11.5 -29t-28.5 -12t-28 11.5t-11 27.5q0 18 11.5 29.5t28.5 11.5zM447 675q17 0 28.5 -11t11.5 -28t-12 -29t-29 -12q-16 0 -27.5 11.5t-11.5 27.5q0 18 11.5 29.5t28.5 11.5zM216 -5q-70 0 -110 45.5t-35 123.5
q4 57 20 136t17 106q1 23 -7 30t-22 7q-12 0 -21 -3l-2 42q21 8 41 8q66 0 65 -74q-1 -33 -17.5 -113.5t-20.5 -132.5q-5 -57 21.5 -91.5t74.5 -34.5q89 0 143.5 95t55.5 233q1 46 -7 111l49 10q12 -63 12 -123q-2 -156 -69 -265.5t-188 -109.5z" />
    <glyph glyph-name="alpha" unicode="&#x3b1;" horiz-adv-x="573" 
d="M483 43q18 0 41 9l11 -41q-29 -16 -66 -16q-42 0 -61.5 32.5t-18.5 101.5v8h-2q-35 -65 -85 -103.5t-109 -38.5q-64 0 -106.5 52.5t-42.5 141.5q0 117 64 209t163 92q66 0 103.5 -45t48.5 -123h2l66 170l48 -19l-103 -245v-84q0 -53 10 -77t37 -24zM200 44q114 0 187 192
q0 94 -29 149t-85 55q-78 0 -127 -77t-49 -169q0 -68 27.5 -109t75.5 -41z" />
    <glyph glyph-name="beta" unicode="&#x3b2;" horiz-adv-x="525" 
d="M515 595q0 -119 -130 -210v-1q40 -25 63.5 -67.5t23.5 -92.5q0 -98 -60 -163t-152 -65q-88 0 -144 64.5t-55 190.5q1 132 38.5 243.5t107 178.5t155.5 67q73 0 113.5 -40.5t39.5 -104.5zM359 691q-66 0 -119 -54.5t-83.5 -137t-39.5 -178.5q157 38 251 112.5t94 158.5
q0 46 -27 72.5t-76 26.5zM420 224q0 43 -21.5 79t-58.5 53q-97 -56 -226 -82v-24q0 -94 40 -150t108 -56t113 52t45 128z" />
    <glyph glyph-name="gamma" unicode="&#x3b3;" horiz-adv-x="488" 
d="M470 485q-29 -140 -93 -259.5t-159 -243.5q1 -62 -10 -180h-56q21 178 0 351q-19 160 -40 225.5t-53 65.5q-6 0 -20 -4l-2 43q21 7 35 7q48 0 76 -61.5t46 -195.5q12 -93 18 -174h3q153 214 200 426h55z" />
    <glyph glyph-name="delta" unicode="&#x3b4;" horiz-adv-x="531" 
d="M351 476q69 -37 100.5 -82.5t31.5 -115.5q0 -120 -68 -201.5t-175 -81.5q-91 0 -142.5 56t-51.5 144q0 93 49.5 168.5t134.5 115.5l1 2q-77 46 -77 122q0 60 49.5 98.5t129.5 39.5q102 2 173 -58l-27 -43q-67 52 -148 52q-55 -1 -89 -25t-34 -63q0 -53 71 -92zM241 44
q83 0 136.5 66t53.5 162q0 56 -25.5 94.5t-81.5 66.5l-43 21q-82 -35 -132.5 -103.5t-49.5 -152.5q1 -71 40 -112.5t102 -41.5z" />
    <glyph glyph-name="epsilon" unicode="&#x3b5;" horiz-adv-x="447" 
d="M261 441q-58 0 -97 -27t-39 -73q0 -28 22.5 -48t68.5 -20h86l-5 -47h-93q-50 0 -83 -31t-33 -74q0 -77 110 -77q97 0 179 60l19 -43q-95 -66 -205 -66q-74 0 -114.5 30.5t-40.5 84.5q0 48 24.5 86t67.5 56v2q-56 31 -56 89q0 66 53 106.5t130 40.5q101 0 170 -56l-22 -40
q-63 47 -142 47z" />
    <glyph glyph-name="zeta" unicode="&#x3b6;" horiz-adv-x="409" 
d="M467 694q-161 -122 -264.5 -257t-103.5 -240q0 -25 8 -44.5t17.5 -31.5t34 -26t39.5 -20.5t52 -21.5q62 -26 86 -47.5t24 -56.5q0 -62 -78 -156l-43 28q23 28 35.5 44t22.5 37.5t10 40.5q0 23 -17 35t-69 33q-31 12 -46.5 19t-40 20t-37 25.5t-26.5 30t-19.5 40
t-5.5 49.5q0 206 343 493l1 2h-265l5 46h341z" />
    <glyph glyph-name="eta" unicode="&#x3b7;" horiz-adv-x="550" 
d="M358 490q150 0 123 -198l-64 -490h-52l64 487q20 152 -81 152q-60 0 -122.5 -68.5t-77.5 -160.5l-26 -212h-52l43 353q6 55 0.5 73t-24.5 18q-11 0 -22 -4l-2 43q20 7 38 7q38 0 53.5 -28.5t9.5 -92.5h1q38 57 89 89t102 32z" />
    <glyph glyph-name="theta" unicode="&#x3b8;" horiz-adv-x="544" 
d="M329 741q182 0 182 -263q0 -92 -16 -175.5t-47 -154t-84 -112t-121 -41.5q-81 0 -130.5 62.5t-49.5 199.5q0 89 16.5 173t48.5 154.5t84 113.5t117 43zM328 692q-71 0 -125 -81.5t-76 -209.5h328q3 37 3 76q0 215 -130 215zM244 44q78 0 132.5 86.5t73.5 223.5h-329
q-5 -52 -5 -94q0 -104 33.5 -160t94.5 -56z" />
    <glyph glyph-name="iota" unicode="&#x3b9;" horiz-adv-x="267" 
d="M229 12q-36 -17 -72 -17q-57 0 -74.5 34.5t-9.5 97.5l44 358h52l-43 -346q-6 -51 3.5 -73t44.5 -22q20 0 46 11z" />
    <glyph glyph-name="kappa" unicode="&#x3ba;" horiz-adv-x="526" 
d="M432 44q18 0 43 9l9 -42q-32 -16 -66 -16q-45 0 -69.5 32t-35.5 94q-11 55 -18 154h-1q-111 -114 -183 -204l-9 -71h-50l59 485h53l-37 -301q0 -2 -1 -6.5t-1.5 -9t-1.5 -8.5h2q138 172 331 341l40 -36q-90 -78 -159 -146q12 -127 23 -177q23 -98 72 -98z" />
    <glyph glyph-name="lambda" unicode="&#x3bb;" horiz-adv-x="480" 
d="M364 0q-31 210 -72 412h-2l-226 -412h-60l270 485l-25 113q-22 95 -81 95q-22 0 -46 -7l-3 45q24 10 60 10q50 0 78.5 -35t45.5 -104q64 -258 117 -602h-56z" />
    <glyph glyph-name="uni03BC" unicode="&#x3bc;" 
d="M499 48l10 -40q-26 -13 -58 -13q-78 0 -76 92h-2q-60 -92 -164 -92q-76 0 -102 71h-1q-2 -61 -7 -107l-20 -157h-52l84 683h52l-38 -308q-4 -70 21.5 -101.5t67.5 -31.5q64 0 116.5 55t63.5 154l29 232h52l-45 -358q-5 -44 1.5 -64t38.5 -20q11 0 29 5z" />
    <glyph glyph-name="nu" unicode="&#x3bd;" horiz-adv-x="488" 
d="M415 485h55q-65 -298 -250 -485h-60l-100 485h55l85 -435h2q157 175 213 435z" />
    <glyph glyph-name="xi" unicode="&#x3be;" horiz-adv-x="429" 
d="M465 690q-281 -46 -281 -183q0 -44 33.5 -69t100.5 -25h68l-4 -47h-80q-87 0 -145.5 -42t-58.5 -116q0 -50 29.5 -81t97.5 -61q38 -17 53.5 -24t38 -19.5t30 -22t14 -23.5t6.5 -32q0 -56 -80 -152l-43 28q69 80 69 119q0 24 -20.5 38t-92.5 44q-80 34 -117.5 74
t-37.5 107q0 69 41 119t107 73l1 4q-63 32 -63 103q0 125 170 187v1h-166l6 46h330z" />
    <glyph glyph-name="omicron" unicode="&#x3bf;" horiz-adv-x="536" 
d="M298 490q86 0 139 -53t53 -145q0 -128 -67.5 -212.5t-183.5 -84.5q-85 0 -139 53.5t-54 148.5q0 121 69 207t183 86zM295 441q-84 0 -140 -70t-56 -169q0 -72 40 -115t102 -43q87 0 142 68.5t55 176.5q0 73 -40 112.5t-103 39.5z" />
    <glyph glyph-name="pi" unicode="&#x3c0;" horiz-adv-x="560" 
d="M457 439l-39 -310q-3 -27 -2.5 -46t10.5 -29.5t32 -10.5q13 0 31 6l10 -41q-29 -13 -57 -13q-92 0 -77 124l40 320h-220l-54 -439h-52l54 439h-86l6 41q36 5 93 5h419l-7 -46h-101z" />
    <glyph glyph-name="rho" unicode="&#x3c1;" horiz-adv-x="538" 
d="M304 490q86 0 137.5 -52.5t51.5 -142.5q0 -128 -70 -214t-173 -86q-48 0 -87.5 21t-61.5 54h-1l-33 -268h-52l54 445q15 122 79.5 182.5t155.5 60.5zM246 44q82 0 138 71.5t56 175.5q0 67 -37.5 108.5t-100.5 41.5q-70 0 -119.5 -50.5t-61.5 -145.5l-12 -95
q16 -55 55 -80.5t82 -25.5z" />
    <glyph glyph-name="uni03C2" unicode="&#x3c2;" horiz-adv-x="455" 
d="M99 206q0 -18 2 -32t9.5 -27t11 -21t19 -18.5t20 -14.5t27 -14l27 -12t32.5 -14q62 -26 86 -49t24 -59q0 -31 -19 -65.5t-59 -86.5l-43 28q68 80 68 119q0 23 -19.5 37t-69.5 35q-34 14 -52 22t-44 25t-39.5 35t-23.5 46.5t-10 64.5q-1 116 68 200.5t175 84.5
q44 0 87.5 -20.5t69.5 -58.5l-42 -31q-20 30 -51.5 45.5t-62.5 15.5q-83 0 -137 -69t-54 -166z" />
    <glyph glyph-name="sigma" unicode="&#x3c3;" horiz-adv-x="540" 
d="M533 439h-119v-1q65 -55 65 -156q0 -118 -68.5 -202t-180.5 -84q-83 0 -133.5 53.5t-50.5 148.5q0 120 67 203.5t178 83.5h248zM426 285q0 121 -95 154h-40q-84 0 -138 -68t-54 -171q0 -71 36 -113.5t97 -42.5q83 0 138.5 68.5t55.5 172.5z" />
    <glyph glyph-name="tau" unicode="&#x3c4;" horiz-adv-x="422" 
d="M138 135l37 304h-137l5 46h374l-5 -46h-184l-37 -302q-12 -93 48 -93q42 0 87 31l9 -46q-51 -34 -110 -34q-103 0 -87 140z" />
    <glyph glyph-name="upsilon" unicode="&#x3c5;" horiz-adv-x="519" 
d="M216 -5q-70 0 -110 45.5t-35 123.5q4 57 20 136t17 106q1 23 -7 30t-22 7q-12 0 -21 -3l-2 42q21 8 41 8q66 0 65 -74q-1 -33 -17.5 -113.5t-20.5 -132.5q-5 -57 21.5 -91.5t74.5 -34.5q89 0 143.5 95t55.5 233q1 46 -7 111l49 10q12 -63 12 -123q-2 -156 -69 -265.5
t-188 -109.5z" />
    <glyph glyph-name="phi" unicode="&#x3c6;" horiz-adv-x="630" 
d="M439 489q62 0 105.5 -49.5t42.5 -140.5q-1 -139 -81.5 -219.5t-197.5 -84.5l-23 -193h-53l24 194q-90 2 -149.5 57.5t-59.5 156.5q0 163 129 287l41 -18q-117 -121 -117 -264q0 -80 44.5 -125t117.5 -46l35 285q20 162 142 160zM315 44q94 5 156.5 74.5t62.5 182.5
q0 64 -26.5 102t-71.5 38q-74 -2 -88 -115z" />
    <glyph glyph-name="chi" unicode="&#x3c7;" horiz-adv-x="480" 
d="M394 -156q8 0 19 3l2 -42q-19 -8 -34 -8q-38 0 -60 23.5t-43 93.5l-56 188h-2l-191 -300h-59l233 360l-65 206q-14 47 -29 61t-35 14q-8 0 -19 -3l-2 43q21 7 33 7q39 0 61.5 -23.5t42.5 -93.5l46 -159h1l174 271h60l-217 -329l76 -237q15 -47 30 -61t34 -14z" />
    <glyph glyph-name="psi" unicode="&#x3c8;" horiz-adv-x="633" 
d="M586 367q0 -73 -15.5 -137t-47 -117.5t-85 -85t-124.5 -32.5l-24 -193h-52l24 193q-84 0 -139.5 42.5t-55.5 133.5q0 53 16.5 132t16.5 118q0 46 -11 64h56q8 -19 8 -65q0 -42 -16.5 -119.5t-16.5 -123.5q0 -71 42 -101.5t106 -31.5l72 592l53 3l-73 -595q104 2 158 94
t55 233q1 51 -8 112l49 11q12 -62 12 -127z" />
    <glyph glyph-name="omega" unicode="&#x3c9;" horiz-adv-x="689" 
d="M579 495q63 -102 63 -217q0 -116 -54 -199.5t-143 -83.5q-101 0 -119 109h-2q-48 -109 -144 -109q-63 0 -99.5 48t-36.5 135t34.5 172.5t95.5 146.5l44 -18q-57 -60 -89 -142t-32 -156q0 -66 24 -101.5t66 -35.5q50 0 84.5 53.5t46.5 148.5v2q1 2 1 5l14 111h51l-17 -134
h1q-22 -186 77 -186q67 0 105.5 71t38.5 167q0 106 -55 198z" />
    <glyph glyph-name="iotadieresis" unicode="&#x3ca;" horiz-adv-x="267" 
d="M58 674q16 0 27.5 -11t11.5 -28t-11.5 -29t-29.5 -12q-16 0 -27 11t-11 28q0 18 11.5 29.5t28.5 11.5zM266 674q17 0 28 -11t11 -28t-11.5 -29t-28.5 -12t-28 11t-11 28q0 18 11.5 29.5t28.5 11.5zM229 12q-36 -17 -72 -17q-57 0 -74.5 34.5t-9.5 97.5l44 358h52
l-43 -346q-6 -51 3.5 -73t44.5 -22q20 0 46 11z" />
    <glyph glyph-name="upsilondieresis" unicode="&#x3cb;" horiz-adv-x="519" 
d="M203 675q17 0 28 -11.5t11 -27.5q0 -17 -11.5 -29t-29.5 -12q-16 0 -27 11t-11 28q0 18 11.5 29.5t28.5 11.5zM411 675q17 0 28 -11t11 -28t-11.5 -29t-28.5 -12q-16 0 -27.5 11.5t-11.5 27.5q0 18 11.5 29.5t28.5 11.5zM216 -5q-70 0 -110 45.5t-35 123.5q4 57 20 136
t17 106q1 23 -7 30t-22 7q-12 0 -21 -3l-2 42q21 8 41 8q66 0 65 -74q-1 -33 -17.5 -113.5t-20.5 -132.5q-5 -57 21.5 -91.5t74.5 -34.5q89 0 143.5 95t55.5 233q1 46 -7 111l49 10q12 -63 12 -123q-2 -156 -69 -265.5t-188 -109.5z" />
    <glyph glyph-name="omicrontonos" unicode="&#x3cc;" horiz-adv-x="536" 
d="M358 718h63l-89 -159h-54zM298 490q86 0 139 -53t53 -145q0 -128 -67.5 -212.5t-183.5 -84.5q-85 0 -139 53.5t-54 148.5q0 121 69 207t183 86zM295 441q-84 0 -140 -70t-56 -169q0 -72 40 -115t102 -43q87 0 142 68.5t55 176.5q0 73 -40 112.5t-103 39.5z" />
    <glyph glyph-name="upsilontonos" unicode="&#x3cd;" horiz-adv-x="519" 
d="M353 719h63l-89 -159h-54zM216 -5q-70 0 -110 45.5t-35 123.5q4 57 20 136t17 106q1 23 -7 30t-22 7q-12 0 -21 -3l-2 42q21 8 41 8q66 0 65 -74q-1 -33 -17.5 -113.5t-20.5 -132.5q-5 -57 21.5 -91.5t74.5 -34.5q89 0 143.5 95t55.5 233q1 46 -7 111l49 10
q12 -63 12 -123q-2 -156 -69 -265.5t-188 -109.5z" />
    <glyph glyph-name="omegatonos" unicode="&#x3ce;" horiz-adv-x="689" 
d="M502 719l-89 -159h-54l80 159h63zM579 495q63 -102 63 -217q0 -116 -54 -199.5t-143 -83.5q-101 0 -119 109h-2q-48 -109 -144 -109q-63 0 -99.5 48t-36.5 135t34.5 172.5t95.5 146.5l44 -18q-57 -60 -89 -142t-32 -156q0 -66 24 -101.5t66 -35.5q50 0 84.5 53.5
t46.5 148.5v2q1 2 1 5l14 111h51l-17 -134h1q-22 -186 77 -186q67 0 105.5 71t38.5 167q0 106 -55 198z" />
    <glyph glyph-name="uni03D7" unicode="&#x3d7;" horiz-adv-x="579" 
d="M452 38q10 -2 49 -4l-3 -28q-101 -117 -186 -169.5t-185 -52.5q-112 0 -183 65l27 35q68 -54 152 -54q79 0 151 39.5t150 125.5v1q-50 4 -77.5 33.5t-40.5 91.5l-29 132h-1l-163 -186l-8 -67h-50l59 485h52l-36 -301l-5 -35h1q145 177 324 349l36 -33q-90 -84 -170 -170
l38 -157q8 -32 19 -52.5t26.5 -30t25 -12t27.5 -5.5z" />
    <glyph glyph-name="Wgrave" unicode="&#x1e80;" horiz-adv-x="925" 
d="M558 795h-57l-95 139h62zM885 710h60l-292 -710h-58l-85 615h-3l-235 -615h-58l-118 710h58l98 -614h3l232 614h65l83 -612h1z" />
    <glyph glyph-name="wgrave" unicode="&#x1e81;" horiz-adv-x="691" 
d="M411 559h-57l-95 139h62zM650 485q14 -78 6 -150q-14 -164 -82.5 -252t-145.5 -88q-92 0 -108 96h-1q-27 -47 -65.5 -71.5t-75.5 -24.5q-135 0 -111 203l36 287h52l-35 -283q-19 -158 68 -158q44 0 84 54t50 133l32 254h52l-36 -288q-18 -153 65 -153q56 0 108 86t61 212
q5 63 -7 143h53z" />
    <glyph glyph-name="Wacute" unicode="&#x1e82;" horiz-adv-x="925" 
d="M700 934l-129 -139h-57l124 139h62zM885 710h60l-292 -710h-58l-85 615h-3l-235 -615h-58l-118 710h58l98 -614h3l232 614h65l83 -612h1z" />
    <glyph glyph-name="wacute" unicode="&#x1e83;" horiz-adv-x="691" 
d="M553 698l-129 -139h-57l124 139h62zM650 485q14 -78 6 -150q-14 -164 -82.5 -252t-145.5 -88q-92 0 -108 96h-1q-27 -47 -65.5 -71.5t-75.5 -24.5q-135 0 -111 203l36 287h52l-35 -283q-19 -158 68 -158q44 0 84 54t50 133l32 254h52l-36 -288q-18 -153 65 -153
q56 0 108 86t61 212q5 63 -7 143h53z" />
    <glyph glyph-name="Wdieresis" unicode="&#x1e84;" horiz-adv-x="925" 
d="M463 831q-16 0 -27 11t-11 28q0 18 11.5 29.5t28.5 11.5t28 -11.5t11 -27.5q0 -17 -11.5 -29t-29.5 -12zM615 831q-16 0 -27 11t-11 28q0 18 11.5 29.5t28.5 11.5t28 -11.5t11 -27.5q0 -17 -11.5 -29t-29.5 -12zM885 710h60l-292 -710h-58l-85 615h-3l-235 -615h-58
l-118 710h58l98 -614h3l232 614h65l83 -612h1z" />
    <glyph glyph-name="wdieresis" unicode="&#x1e85;" horiz-adv-x="691" 
d="M319 594q-16 0 -27 11t-11 28q0 18 11.5 29.5t28.5 11.5t28 -11t11 -28t-11.5 -29t-29.5 -12zM471 594q-16 0 -27 11t-11 28q0 18 11.5 29.5t28.5 11.5t28 -11t11 -28t-11.5 -29t-29.5 -12zM650 485q14 -78 6 -150q-14 -164 -82.5 -252t-145.5 -88q-92 0 -108 96h-1
q-27 -47 -65.5 -71.5t-75.5 -24.5q-135 0 -111 203l36 287h52l-35 -283q-19 -158 68 -158q44 0 84 54t50 133l32 254h52l-36 -288q-18 -153 65 -153q56 0 108 86t61 212q5 63 -7 143h53z" />
    <glyph glyph-name="uni1E9E" unicode="&#x1e9e;" horiz-adv-x="708" 
d="M499 387q6 -4 29.5 -17t30.5 -17.5t26.5 -16.5t27 -19t22 -19t20 -22t13.5 -23.5t10.5 -27.5t2.5 -30q0 -91 -61 -145.5t-153 -54.5q-56 0 -111 24t-93 68l32 50q61 -89 171 -89q68 0 113 39.5t45 103.5q0 15 -3.5 27.5t-13.5 25t-16.5 20t-25 20t-26 17.5t-32.5 19.5
t-32 18.5q-43 24 -79 47l167 258q-92 18 -184 18q-96 0 -145 -38t-59 -124l-61 -500h-55l60 504q26 211 260 211q123 0 268 -37l-176 -275z" />
    <glyph glyph-name="uni1EA0" unicode="&#x1ea0;" horiz-adv-x="613" 
d="M552 0h-58l-41 191h-305l-87 -191h-59l331 710h60zM172 242h270l-86 398h-2zM264 -124q16 0 27 -11t11 -28q0 -18 -11.5 -29.5t-28.5 -11.5q-16 0 -27.5 11t-11.5 28t11.5 29t29.5 12z" />
    <glyph glyph-name="uni1EA1" unicode="&#x1ea1;" 
d="M451 485h51l-59 -485h-52l16 126h-2q-34 -59 -83 -95t-107 -36q-79 0 -123 55t-44 139q0 124 69.5 212.5t178.5 88.5q96 0 146 -56h2zM223 43q76 0 134.5 77t70.5 183l10 79q-24 31 -64 45t-76 14q-87 0 -141.5 -74.5t-54.5 -178.5q0 -65 31.5 -105t89.5 -40zM233 -124
q16 0 27 -11t11 -28q0 -18 -11.5 -29.5t-28.5 -11.5t-28 11t-11 28t11.5 29t29.5 12z" />
    <glyph glyph-name="uni1EA2" unicode="&#x1ea2;" horiz-adv-x="613" 
d="M399 914q-40 0 -68 -33l-21 25q40 43 94 43q33 0 51.5 -18t17.5 -46q0 -30 -22 -51t-63 -41l-7 -22h-22q-9 14 -8 22q0 11 42 39t43 52q0 30 -37 30zM494 0l-41 191h-305l-87 -191h-59l331 710h60l159 -710h-58zM172 242h270l-86 398h-2z" />
    <glyph glyph-name="uni1EA3" unicode="&#x1ea3;" 
d="M362 677q-40 0 -68 -33l-21 25q40 43 94 43q33 0 51.5 -18t17.5 -46q0 -30 -22 -51t-63 -41l-7 -22h-22q-9 14 -8 22q0 11 42 39t43 52q0 30 -37 30zM451 485h51l-59 -485h-52l16 126h-2q-34 -59 -83 -95t-107 -36q-79 0 -123 55t-44 139q0 124 69.5 212.5t178.5 88.5
q96 0 146 -56h2zM223 43q76 0 134.5 77t70.5 183l10 79q-24 31 -64 45t-76 14q-87 0 -141.5 -74.5t-54.5 -178.5q0 -65 31.5 -105t89.5 -40z" />
    <glyph glyph-name="uni1EA4" unicode="&#x1ea4;" horiz-adv-x="613" 
d="M671 948l-134 -139h-47l120 138zM385 875l-90 -106h-56l123 140h51l93 -140h-55l-64 106h-2zM333 710h60l159 -710h-58l-41 191h-305l-87 -191h-59zM172 242h270l-86 398h-2z" />
    <glyph glyph-name="uni1EA5" unicode="&#x1ea5;" 
d="M609 780l-134 -138h-46l119 138h61zM351 664l-90 -106h-56l123 140h51l93 -140h-55l-64 106h-2zM444 434l7 51h51l-59 -485h-52l16 126h-2q-34 -59 -83 -95t-107 -36q-79 0 -123 55t-44 139q0 124 69.5 212.5t178.5 88.5q96 0 146 -56h2zM223 43q76 0 134.5 77t70.5 183
l10 79q-24 31 -64 45t-76 14q-87 0 -141.5 -74.5t-54.5 -178.5q0 -65 31.5 -105t89.5 -40z" />
    <glyph glyph-name="uni1EA6" unicode="&#x1ea6;" horiz-adv-x="613" 
d="M590 809h-46l-107 138h60zM384 875l-90 -106h-56l123 140h51l93 -140h-55l-64 106h-2zM333 710h60l159 -710h-58l-41 191h-305l-87 -191h-59zM172 242h270l-86 398h-2z" />
    <glyph glyph-name="uni1EA7" unicode="&#x1ea7;" 
d="M526 642h-46l-108 138h60zM351 664l-90 -106h-56l123 140h51l93 -140h-55l-64 106h-2zM444 434l7 51h51l-59 -485h-52l16 126h-2q-34 -59 -83 -95t-107 -36q-79 0 -123 55t-44 139q0 124 69.5 212.5t178.5 88.5q96 0 146 -56h2zM223 43q76 0 134.5 77t70.5 183l10 79
q-24 31 -64 45t-76 14q-87 0 -141.5 -74.5t-54.5 -178.5q0 -65 31.5 -105t89.5 -40z" />
    <glyph glyph-name="uni1EA8" unicode="&#x1ea8;" horiz-adv-x="613" 
d="M563 954q33 0 51.5 -17.5t18.5 -46.5q-1 -30 -22.5 -51t-62.5 -41l-8 -23l-22 1q-9 14 -8 22q0 11 42 39t43 52q0 30 -37 30q-40 0 -68 -32l-21 25q40 42 94 42zM386 875l-90 -106h-56l123 140h51l93 -140h-55l-64 106h-2zM333 710h60l159 -710h-58l-41 191h-305
l-87 -191h-59zM172 242h270l-86 398h-2z" />
    <glyph glyph-name="uni1EA9" unicode="&#x1ea9;" 
d="M496 795q33 0 51.5 -17.5t18.5 -46.5q-1 -52 -85 -91l-8 -23l-22 1q-8 11 -8 22q1 10 22 23.5t42 30.5t21 36q1 15 -10 23t-26 8q-40 0 -68 -33l-22 25q42 42 94 42zM351 664l-90 -106h-56l123 140h51l93 -140h-55l-64 106h-2zM444 434l7 51h51l-59 -485h-52l16 126h-2
q-34 -59 -83 -95t-107 -36q-79 0 -123 55t-44 139q0 124 69.5 212.5t178.5 88.5q96 0 146 -56h2zM223 43q76 0 134.5 77t70.5 183l10 79q-24 31 -64 45t-76 14q-87 0 -141.5 -74.5t-54.5 -178.5q0 -65 31.5 -105t89.5 -40z" />
    <glyph glyph-name="uni1EAA" unicode="&#x1eaa;" horiz-adv-x="613" 
d="M337 926q-33 0 -54 -47l-29 14q29 67 79 67q29 0 65 -30q28 -19 47 -19q36 0 55 46l28 -13q-28 -68 -79 -68q-28 0 -63 27q-33 23 -49 23zM380 825l-93 -91h-50l123 122h46l97 -122h-50l-69 91h-4zM494 0l-41 191h-305l-87 -191h-59l331 710h60l159 -710h-58zM172 242
h270l-86 398h-2z" />
    <glyph glyph-name="uni1EAB" unicode="&#x1eab;" 
d="M310 781q-37 0 -63 -59l-33 17q35 87 92 87q32 0 66 -32q4 -3 17 -13t21.5 -14.5t17.5 -4.5q17 0 33 15.5t27 44.5l34 -15q-17 -44 -40.5 -67t-49.5 -23q-28 0 -72 39q-35 25 -50 25zM352 664l-90 -106h-56l123 140h51l93 -140h-55l-64 106h-2zM444 434l7 51h51l-59 -485
h-52l16 126h-2q-34 -59 -83 -95t-107 -36q-79 0 -123 55t-44 139q0 124 69.5 212.5t178.5 88.5q96 0 146 -56h2zM223 43q76 0 134.5 77t70.5 183l10 79q-24 31 -64 45t-76 14q-87 0 -141.5 -74.5t-54.5 -178.5q0 -65 31.5 -105t89.5 -40z" />
    <glyph glyph-name="uni1EAC" unicode="&#x1eac;" horiz-adv-x="613" 
d="M389 901l-90 -106h-56l123 140h51l93 -140h-55l-64 106h-2zM552 0h-58l-41 191h-305l-87 -191h-59l331 710h60zM172 242h270l-86 398h-2zM264 -124q16 0 27 -11t11 -28q0 -18 -11.5 -29.5t-28.5 -11.5q-16 0 -27.5 11t-11.5 28t11.5 29t29.5 12z" />
    <glyph glyph-name="uni1EAD" unicode="&#x1ead;" 
d="M352 664l-90 -106h-56l123 140h51l93 -140h-55l-64 106h-2zM451 485h51l-59 -485h-52l16 126h-2q-34 -59 -83 -95t-107 -36q-79 0 -123 55t-44 139q0 124 69.5 212.5t178.5 88.5q96 0 146 -56h2zM223 43q76 0 134.5 77t70.5 183l10 79q-24 31 -64 45t-76 14
q-87 0 -141.5 -74.5t-54.5 -178.5q0 -65 31.5 -105t89.5 -40zM233 -124q16 0 27 -11t11 -28q0 -18 -11.5 -29.5t-28.5 -11.5t-28 11t-11 28t11.5 29t29.5 12z" />
    <glyph glyph-name="uni1EAE" unicode="&#x1eae;" horiz-adv-x="613" 
d="M551 945l-147 -105h-50l138 106zM372 752q-46 0 -76.5 26.5t-35.5 74.5h39q8 -64 76 -64t97 64h41q-19 -48 -56.5 -74.5t-84.5 -26.5zM494 0l-41 191h-305l-87 -191h-59l331 710h60l159 -710h-58zM172 242h270l-86 398h-2z" />
    <glyph glyph-name="uni1EAF" unicode="&#x1eaf;" 
d="M489 841l-129 -139h-57l124 139h62zM341 558q-50 0 -80 35.5t-26 98.5l43 -1q-5 -92 64 -92q38 0 63.5 26t32.5 67l43 -1q-12 -62 -50 -97.5t-90 -35.5zM451 485h51l-59 -485h-52l16 126h-2q-34 -59 -83 -95t-107 -36q-79 0 -123 55t-44 139q0 124 69.5 212.5t178.5 88.5
q96 0 146 -56h2zM223 43q76 0 134.5 77t70.5 183l10 79q-24 31 -64 45t-76 14q-87 0 -141.5 -74.5t-54.5 -178.5q0 -65 31.5 -105t89.5 -40z" />
    <glyph glyph-name="uni1EB0" unicode="&#x1eb0;" horiz-adv-x="613" 
d="M414 840h-51l-134 105l61 1zM299 853q8 -64 76 -64t97 64h41q-19 -48 -56.5 -74.5t-84.5 -26.5q-46 0 -76.5 26.5t-35.5 74.5h39zM494 0l-41 191h-305l-87 -191h-59l331 710h60l159 -710h-58zM172 242h270l-86 398h-2z" />
    <glyph glyph-name="uni1EB1" unicode="&#x1eb1;" 
d="M373 702h-57l-95 139h62zM277 691q-5 -92 64 -92q38 0 63.5 26t32.5 67l43 -1q-12 -62 -50 -97.5t-90 -35.5q-50 0 -80 35.5t-26 98.5zM451 485h51l-59 -485h-52l16 126h-2q-34 -59 -83 -95t-107 -36q-79 0 -123 55t-44 139q0 124 69.5 212.5t178.5 88.5q96 0 146 -56h2z
M223 43q76 0 134.5 77t70.5 183l10 79q-24 31 -64 45t-76 14q-87 0 -141.5 -74.5t-54.5 -178.5q0 -65 31.5 -105t89.5 -40z" />
    <glyph glyph-name="uni1EB2" unicode="&#x1eb2;" horiz-adv-x="613" 
d="M403 930q-40 0 -65 -32l-20 24q39 41 89 41q25 0 41 -15t16 -37q0 -15 -5.5 -27t-19 -22.5t-20 -15t-24.5 -14.5l-8 -23l-16 1q-10 6 -10 17q0 16 17.5 28.5t35 25.5t17.5 28q0 21 -28 21zM372 752q-46 0 -76.5 26.5t-35.5 74.5h39q8 -64 76 -64t97 64h41
q-19 -48 -56.5 -74.5t-84.5 -26.5zM494 0l-41 191h-305l-87 -191h-59l331 710h60l159 -710h-58zM172 242h270l-86 398h-2z" />
    <glyph glyph-name="uni1EB3" unicode="&#x1eb3;" 
d="M384 822q-40 0 -68 -33l-21 25q40 43 94 43q33 0 51.5 -18t17.5 -46q0 -30 -22 -51t-63 -41l-7 -22h-22q-9 14 -8 22q0 11 42 39t43 52q0 30 -37 30zM342 558q-50 0 -80 35.5t-26 98.5l43 -1q-5 -92 64 -92q38 0 63.5 26t32.5 67l43 -1q-12 -62 -50 -97.5t-90 -35.5z
M451 485h51l-59 -485h-52l16 126h-2q-34 -59 -83 -95t-107 -36q-79 0 -123 55t-44 139q0 124 69.5 212.5t178.5 88.5q96 0 146 -56h2zM223 43q76 0 134.5 77t70.5 183l10 79q-24 31 -64 45t-76 14q-87 0 -141.5 -74.5t-54.5 -178.5q0 -65 31.5 -105t89.5 -40z" />
    <glyph glyph-name="uni1EB4" unicode="&#x1eb4;" horiz-adv-x="613" 
d="M331 926q-35 0 -57 -46l-32 12q32 68 88 68q29 0 72 -28q28 -21 52 -21q38 0 57 45l31 -11q-29 -69 -88 -69q-30 0 -68 26q-38 24 -55 24zM375 789q68 0 97 64h41q-19 -48 -56.5 -74.5t-84.5 -26.5q-46 0 -76.5 26.5t-35.5 74.5h39q8 -64 76 -64zM494 0l-41 191h-305
l-87 -191h-59l331 710h60l159 -710h-58zM172 242h270l-86 398h-2z" />
    <glyph glyph-name="uni1EB5" unicode="&#x1eb5;" 
d="M315 781q-37 0 -63 -59l-33 17q35 87 92 87q32 0 66 -32q4 -3 17 -13t21.5 -14.5t17.5 -4.5q37 0 60 60l34 -15q-35 -90 -90 -90q-28 0 -72 39q-35 25 -50 25zM236 692l43 -1q-5 -92 64 -92q38 0 63.5 26t32.5 67l43 -1q-12 -62 -50 -97.5t-90 -35.5q-50 0 -80 35.5
t-26 98.5zM444 434l7 51h51l-59 -485h-52l16 126h-2q-34 -59 -83 -95t-107 -36q-79 0 -123 55t-44 139q0 124 69.5 212.5t178.5 88.5q96 0 146 -56h2zM223 43q76 0 134.5 77t70.5 183l10 79q-24 31 -64 45t-76 14q-87 0 -141.5 -74.5t-54.5 -178.5q0 -65 31.5 -105t89.5 -40
z" />
    <glyph glyph-name="uni1EB6" unicode="&#x1eb6;" horiz-adv-x="613" 
d="M376 795q-50 0 -80 35.5t-26 98.5l43 -1q-5 -92 64 -92q38 0 63.5 26t32.5 67l43 -1q-12 -62 -50 -97.5t-90 -35.5zM552 0h-58l-41 191h-305l-87 -191h-59l331 710h60zM172 242h270l-86 398h-2zM264 -124q16 0 27 -11t11 -28q0 -18 -11.5 -29.5t-28.5 -11.5
q-16 0 -27.5 11t-11.5 28t11.5 29t29.5 12z" />
    <glyph glyph-name="uni1EB7" unicode="&#x1eb7;" 
d="M339 558q-50 0 -80 35.5t-26 98.5l43 -1q-5 -92 64 -92q38 0 63.5 26t32.5 67l43 -1q-12 -62 -50 -97.5t-90 -35.5zM451 485h51l-59 -485h-52l16 126h-2q-34 -59 -83 -95t-107 -36q-79 0 -123 55t-44 139q0 124 69.5 212.5t178.5 88.5q96 0 146 -56h2zM223 43
q76 0 134.5 77t70.5 183l10 79q-24 31 -64 45t-76 14q-87 0 -141.5 -74.5t-54.5 -178.5q0 -65 31.5 -105t89.5 -40zM233 -124q16 0 27 -11t11 -28q0 -18 -11.5 -29.5t-28.5 -11.5t-28 11t-11 28t11.5 29t29.5 12z" />
    <glyph glyph-name="uni1EB8" unicode="&#x1eb8;" horiz-adv-x="552" 
d="M477 52l-6 -52h-404l87 710h384l-6 -51h-328l-35 -279h273l-6 -51h-273l-34 -277h348zM256 -204q-16 0 -27.5 11t-11.5 28t11.5 29t29.5 12q16 0 27 -11t11 -28q0 -18 -11.5 -29.5t-28.5 -11.5z" />
    <glyph glyph-name="uni1EB9" unicode="&#x1eb9;" horiz-adv-x="473" 
d="M240 44q78 0 139 69l41 -30q-76 -87 -182 -87q-86 0 -138 54t-52 147q0 122 70.5 207.5t181.5 85.5q53 0 99.5 -29t46.5 -88q0 -46 -31 -81.5t-84 -57.5t-109.5 -34.5t-120.5 -18.5q4 -64 42.5 -100.5t96.5 -36.5zM297 441q-75 0 -131 -59.5t-65 -153.5q52 4 100 14
t93 26.5t72 43t27 58.5q0 38 -30 54.5t-66 16.5zM221 -124q16 0 27 -11t11 -28q0 -18 -11.5 -29.5t-28.5 -11.5t-28 11t-11 28t11.5 29t29.5 12z" />
    <glyph glyph-name="uni1EBA" unicode="&#x1eba;" horiz-adv-x="552" 
d="M319 883l-21 25q40 43 94 43q33 0 51.5 -18t17.5 -46q0 -30 -22 -51t-63 -41l-7 -22h-22q-9 14 -8 22q0 11 42 39t43 52q0 30 -37 30q-40 0 -68 -33zM477 52l-6 -52h-404l87 710h384l-6 -51h-328l-35 -279h273l-6 -51h-273l-34 -277h348z" />
    <glyph glyph-name="uni1EBB" unicode="&#x1ebb;" horiz-adv-x="473" 
d="M332 677q-40 0 -68 -33l-21 25q40 43 94 43q33 0 51.5 -18t17.5 -46q0 -30 -22 -51t-63 -41l-7 -22h-22q-9 14 -8 22q0 11 42 39t43 52q0 30 -37 30zM240 44q78 0 139 69l41 -30q-76 -87 -182 -87q-86 0 -138 54t-52 147q0 122 70.5 207.5t181.5 85.5q53 0 99.5 -29
t46.5 -88q0 -46 -31 -81.5t-84 -57.5t-109.5 -34.5t-120.5 -18.5q4 -64 42.5 -100.5t96.5 -36.5zM297 441q-75 0 -131 -59.5t-65 -153.5q52 4 100 14t93 26.5t72 43t27 58.5q0 38 -30 54.5t-66 16.5z" />
    <glyph glyph-name="uni1EBC" unicode="&#x1ebc;" horiz-adv-x="552" 
d="M216 833q36 87 95 87q30 0 68 -32t57 -32q38 0 62 60l35 -15q-35 -90 -93 -90q-7 0 -13 1t-12.5 4t-11 5t-11 7t-9 7t-9.5 8t-8 7q-32 25 -51 25q-38 0 -64 -59zM477 52l-6 -52h-404l87 710h384l-6 -51h-328l-35 -279h273l-6 -51h-273l-34 -277h348z" />
    <glyph glyph-name="uni1EBD" unicode="&#x1ebd;" horiz-adv-x="473" 
d="M260 636q-38 0 -64 -59l-35 17q36 87 95 87q30 0 68 -32t57 -32q38 0 62 60l35 -15q-17 -44 -41.5 -67t-51.5 -23q-7 0 -13 1t-12.5 4t-11 5t-11 7t-9 7t-9.5 8t-8 7q-32 25 -51 25zM446 373q0 -46 -31 -81.5t-84 -57.5t-109.5 -34.5t-120.5 -18.5q4 -64 42.5 -100.5
t96.5 -36.5q78 0 139 69l41 -30q-76 -87 -182 -87q-86 0 -138 54t-52 147q0 122 70.5 207.5t181.5 85.5q53 0 99.5 -29t46.5 -88zM101 228q52 4 100 14t93 26.5t72 43t27 58.5q0 38 -30 54.5t-66 16.5q-75 0 -131 -59.5t-65 -153.5z" />
    <glyph glyph-name="uni1EBE" unicode="&#x1ebe;" horiz-adv-x="552" 
d="M659 950l-134 -139h-47l120 138zM373 877l-90 -106h-56l123 140h51l93 -140h-55l-64 106h-2zM67 0l87 710h384l-6 -51h-328l-35 -279h273l-6 -51h-273l-34 -277h348l-6 -52h-404z" />
    <glyph glyph-name="uni1EBF" unicode="&#x1ebf;" horiz-adv-x="473" 
d="M579 780l-134 -138h-46l119 138h61zM321 664l-90 -106h-56l123 140h51l93 -140h-55l-64 106h-2zM446 373q0 -46 -31 -81.5t-84 -57.5t-109.5 -34.5t-120.5 -18.5q4 -64 42.5 -100.5t96.5 -36.5q78 0 139 69l41 -30q-76 -87 -182 -87q-86 0 -138 54t-52 147
q0 122 70.5 207.5t181.5 85.5q53 0 99.5 -29t46.5 -88zM101 228q52 4 100 14t93 26.5t72 43t27 58.5q0 38 -30 54.5t-66 16.5q-75 0 -131 -59.5t-65 -153.5z" />
    <glyph glyph-name="uni1EC0" unicode="&#x1ec0;" horiz-adv-x="552" 
d="M578 811h-46l-107 138h60zM372 877l-90 -106h-56l123 140h51l93 -140h-55l-64 106h-2zM67 0l87 710h384l-6 -51h-328l-35 -279h273l-6 -51h-273l-34 -277h348l-6 -52h-404z" />
    <glyph glyph-name="uni1EC1" unicode="&#x1ec1;" horiz-adv-x="473" 
d="M402 780l94 -138h-46l-108 138h60zM321 664l-90 -106h-56l123 140h51l93 -140h-55l-64 106h-2zM446 373q0 -46 -31 -81.5t-84 -57.5t-109.5 -34.5t-120.5 -18.5q4 -64 42.5 -100.5t96.5 -36.5q78 0 139 69l41 -30q-76 -87 -182 -87q-86 0 -138 54t-52 147
q0 122 70.5 207.5t181.5 85.5q53 0 99.5 -29t46.5 -88zM101 228q52 4 100 14t93 26.5t72 43t27 58.5q0 38 -30 54.5t-66 16.5q-75 0 -131 -59.5t-65 -153.5z" />
    <glyph glyph-name="uni1EC2" unicode="&#x1ec2;" horiz-adv-x="552" 
d="M551 956q33 0 51.5 -17.5t18.5 -46.5q-1 -30 -22.5 -51t-62.5 -41l-8 -23l-22 1q-9 14 -8 22q0 11 42 39t43 52q0 30 -37 30q-40 0 -68 -32l-21 25q40 42 94 42zM374 877l-90 -106h-56l123 140h51l93 -140h-55l-64 106h-2zM67 0l87 710h384l-6 -51h-328l-35 -279h273
l-6 -51h-273l-34 -277h348l-6 -52h-404z" />
    <glyph glyph-name="uni1EC3" unicode="&#x1ec3;" horiz-adv-x="473" 
d="M466 795q33 0 51.5 -17.5t18.5 -46.5q-1 -52 -85 -91l-8 -23l-22 1q-8 11 -8 22q1 10 22 23.5t42 30.5t21 36q1 15 -10 23t-26 8q-40 0 -68 -33l-22 25q42 42 94 42zM321 664l-90 -106h-56l123 140h51l93 -140h-55l-64 106h-2zM446 373q0 -46 -31 -81.5t-84 -57.5
t-109.5 -34.5t-120.5 -18.5q4 -64 42.5 -100.5t96.5 -36.5q78 0 139 69l41 -30q-76 -87 -182 -87q-86 0 -138 54t-52 147q0 122 70.5 207.5t181.5 85.5q53 0 99.5 -29t46.5 -88zM101 228q52 4 100 14t93 26.5t72 43t27 58.5q0 38 -30 54.5t-66 16.5q-75 0 -131 -59.5
t-65 -153.5z" />
    <glyph glyph-name="uni1EC4" unicode="&#x1ec4;" horiz-adv-x="552" 
d="M325 928q-33 0 -54 -47l-29 14q29 67 79 67q29 0 65 -30q28 -19 47 -19q36 0 55 46l28 -13q-28 -68 -79 -68q-28 0 -63 27q-33 23 -49 23zM368 827l-93 -91h-50l123 122h46l97 -122h-50l-69 91h-4zM532 659h-328l-35 -279h273l-6 -51h-273l-34 -277h348l-6 -52h-404
l87 710h384z" />
    <glyph glyph-name="uni1EC5" unicode="&#x1ec5;" horiz-adv-x="473" 
d="M458 822l34 -15q-17 -44 -40.5 -67t-49.5 -23q-28 0 -72 39q-35 25 -50 25q-37 0 -63 -59l-33 17q35 87 92 87q32 0 66 -32q4 -3 17 -13t21.5 -14.5t17.5 -4.5q17 0 33 15.5t27 44.5zM324 664h-2l-90 -106h-56l123 140h51l93 -140h-55zM446 373q0 -46 -31 -81.5
t-84 -57.5t-109.5 -34.5t-120.5 -18.5q4 -64 42.5 -100.5t96.5 -36.5q78 0 139 69l41 -30q-76 -87 -182 -87q-86 0 -138 54t-52 147q0 122 70.5 207.5t181.5 85.5q53 0 99.5 -29t46.5 -88zM101 228q52 4 100 14t93 26.5t72 43t27 58.5q0 38 -30 54.5t-66 16.5
q-75 0 -131 -59.5t-65 -153.5z" />
    <glyph glyph-name="uni1EC6" unicode="&#x1ec6;" horiz-adv-x="552" 
d="M377 903l-90 -106h-56l123 140h51l93 -140h-55l-64 106h-2zM532 659h-328l-35 -279h273l-6 -51h-273l-34 -277h348l-6 -52h-404l87 710h384zM258 -124q16 0 27 -11t11 -28q0 -18 -11.5 -29.5t-28.5 -11.5q-16 0 -27.5 11t-11.5 28t11.5 29t29.5 12z" />
    <glyph glyph-name="uni1EC7" unicode="&#x1ec7;" horiz-adv-x="473" 
d="M322 664l-90 -106h-56l123 140h51l93 -140h-55l-64 106h-2zM240 44q78 0 139 69l41 -30q-76 -87 -182 -87q-86 0 -138 54t-52 147q0 122 70.5 207.5t181.5 85.5q53 0 99.5 -29t46.5 -88q0 -46 -31 -81.5t-84 -57.5t-109.5 -34.5t-120.5 -18.5q4 -64 42.5 -100.5
t96.5 -36.5zM297 441q-75 0 -131 -59.5t-65 -153.5q52 4 100 14t93 26.5t72 43t27 58.5q0 38 -30 54.5t-66 16.5zM221 -124q16 0 27 -11t11 -28q0 -18 -11.5 -29.5t-28.5 -11.5t-28 11t-11 28t11.5 29t29.5 12z" />
    <glyph glyph-name="uni1EC8" unicode="&#x1ec8;" horiz-adv-x="262" 
d="M154 881l-21 25q40 43 94 43q33 0 51.5 -18t17.5 -46q0 -30 -22 -51t-63 -41l-7 -22h-22q-9 14 -8 22q0 11 42 39t43 52q0 30 -37 30q-40 0 -68 -33zM129 0h-56l87 710h56z" />
    <glyph glyph-name="uni1EC9" unicode="&#x1ec9;" horiz-adv-x="229" 
d="M108 644l-21 25q40 43 94 43q33 0 51.5 -18t17.5 -46q0 -30 -22 -51t-63 -41l-7 -22h-22q-9 14 -8 22q0 11 42 39t43 52q0 30 -37 30q-40 0 -68 -33zM118 485h52l-59 -485h-52z" />
    <glyph glyph-name="uni1ECA" unicode="&#x1eca;" horiz-adv-x="262" 
d="M129 0h-56l87 710h56zM82 -204q-16 0 -27.5 11t-11.5 28t11.5 29t29.5 12q16 0 27 -11t11 -28q0 -18 -11.5 -29.5t-28.5 -11.5z" />
    <glyph glyph-name="uni1ECB" unicode="&#x1ecb;" horiz-adv-x="229" 
d="M165 674q17 0 28 -11t11 -28t-11.5 -29t-29.5 -12q-16 0 -27 11t-11 28q0 18 11.5 29.5t28.5 11.5zM118 485h52l-59 -485h-52zM65 -204q-17 0 -28 11t-11 28t11.5 29t29.5 12q16 0 27 -11t11 -28q0 -18 -11.5 -29.5t-28.5 -11.5z" />
    <glyph glyph-name="uni1ECC" unicode="&#x1ecc;" horiz-adv-x="766" 
d="M438 715q128 0 204 -78t76 -218q0 -176 -100.5 -300t-263.5 -124q-128 0 -203.5 79t-75.5 218q0 112 44.5 208t128.5 155.5t190 59.5zM357 48q134 0 218.5 109t84.5 261q0 118 -60 181t-166 63q-88 0 -157.5 -52.5t-106.5 -136.5t-37 -181q0 -116 60 -180t164 -64z
M335 -204q-17 0 -28 11t-11 28t11.5 29t29.5 12q16 0 27 -11t11 -28q0 -18 -11.5 -29.5t-28.5 -11.5z" />
    <glyph glyph-name="uni1ECD" unicode="&#x1ecd;" horiz-adv-x="546" 
d="M302 490q90 0 143.5 -52t53.5 -146q0 -127 -69 -212t-184 -85q-91 0 -144.5 53.5t-53.5 149.5q0 121 70 206.5t184 85.5zM300 441q-86 0 -142.5 -69t-56.5 -169q0 -74 39.5 -116.5t106.5 -42.5q87 0 142.5 69t55.5 176q0 75 -40 113.5t-105 38.5zM224 -204
q-16 0 -27.5 11t-11.5 28t11.5 29t29.5 12q16 0 27 -11t11 -28q0 -18 -11.5 -29.5t-28.5 -11.5z" />
    <glyph glyph-name="uni1ECE" unicode="&#x1ece;" horiz-adv-x="766" 
d="M413 881l-21 25q40 43 94 43q33 0 51.5 -18t17.5 -46q0 -30 -22 -51t-63 -41l-7 -22h-22q-9 14 -8 22q0 11 42 39t43 52q0 30 -37 30q-40 0 -68 -33zM438 715q128 0 204 -78t76 -218q0 -176 -100.5 -300t-263.5 -124q-128 0 -203.5 79t-75.5 218q0 112 44.5 208
t128.5 155.5t190 59.5zM357 48q134 0 218.5 109t84.5 261q0 118 -60 181t-166 63q-88 0 -157.5 -52.5t-106.5 -136.5t-37 -181q0 -116 60 -180t164 -64z" />
    <glyph glyph-name="uni1ECF" unicode="&#x1ecf;" horiz-adv-x="546" 
d="M273 644l-21 25q40 43 94 43q33 0 51.5 -18t17.5 -46q0 -30 -22 -51t-63 -41l-7 -22h-22q-9 14 -8 22q0 11 42 39t43 52q0 30 -37 30q-40 0 -68 -33zM302 490q90 0 143.5 -52t53.5 -146q0 -127 -69 -212t-184 -85q-91 0 -144.5 53.5t-53.5 149.5q0 121 70 206.5t184 85.5
zM300 441q-86 0 -142.5 -69t-56.5 -169q0 -74 39.5 -116.5t106.5 -42.5q87 0 142.5 69t55.5 176q0 75 -40 113.5t-105 38.5z" />
    <glyph glyph-name="uni1ED0" unicode="&#x1ed0;" horiz-adv-x="766" 
d="M753 948l-134 -139h-47l120 138zM467 875l-90 -106h-56l123 140h51l93 -140h-55l-64 106h-2zM438 715q128 0 204 -78t76 -218q0 -176 -100.5 -300t-263.5 -124q-128 0 -203.5 79t-75.5 218q0 112 44.5 208t128.5 155.5t190 59.5zM357 48q134 0 218.5 109t84.5 261
q0 118 -60 181t-166 63q-88 0 -157.5 -52.5t-106.5 -136.5t-37 -181q0 -116 60 -180t164 -64z" />
    <glyph glyph-name="uni1ED1" unicode="&#x1ed1;" horiz-adv-x="546" 
d="M588 780l-134 -138h-46l119 138h61zM330 664l-90 -106h-56l123 140h51l93 -140h-55l-64 106h-2zM302 490q90 0 143.5 -52t53.5 -146q0 -127 -69 -212t-184 -85q-91 0 -144.5 53.5t-53.5 149.5q0 121 70 206.5t184 85.5zM247 44q87 0 142.5 69t55.5 176q0 75 -40 113.5
t-105 38.5q-86 0 -142.5 -69t-56.5 -169q0 -74 39.5 -116.5t106.5 -42.5z" />
    <glyph glyph-name="uni1ED2" unicode="&#x1ed2;" horiz-adv-x="766" 
d="M672 809h-46l-107 138h60zM466 875l-90 -106h-56l123 140h51l93 -140h-55l-64 106h-2zM438 715q128 0 204 -78t76 -218q0 -176 -100.5 -300t-263.5 -124q-128 0 -203.5 79t-75.5 218q0 112 44.5 208t128.5 155.5t190 59.5zM357 48q134 0 218.5 109t84.5 261
q0 118 -60 181t-166 63q-88 0 -157.5 -52.5t-106.5 -136.5t-37 -181q0 -116 60 -180t164 -64z" />
    <glyph glyph-name="uni1ED3" unicode="&#x1ed3;" horiz-adv-x="546" 
d="M505 642h-46l-108 138h60zM330 664l-90 -106h-56l123 140h51l93 -140h-55l-64 106h-2zM302 490q90 0 143.5 -52t53.5 -146q0 -127 -69 -212t-184 -85q-91 0 -144.5 53.5t-53.5 149.5q0 121 70 206.5t184 85.5zM247 44q87 0 142.5 69t55.5 176q0 75 -40 113.5t-105 38.5
q-86 0 -142.5 -69t-56.5 -169q0 -74 39.5 -116.5t106.5 -42.5z" />
    <glyph glyph-name="uni1ED4" unicode="&#x1ed4;" horiz-adv-x="766" 
d="M640 919q-40 0 -68 -32l-21 25q40 42 94 42q33 0 51.5 -17.5t18.5 -46.5q-1 -30 -22.5 -51t-62.5 -41l-8 -23l-22 1q-9 14 -8 22q0 11 42 39t43 52q0 30 -37 30zM468 875l-90 -106h-56l123 140h51l93 -140h-55l-64 106h-2zM438 715q128 0 204 -78t76 -218
q0 -176 -100.5 -300t-263.5 -124q-128 0 -203.5 79t-75.5 218q0 112 44.5 208t128.5 155.5t190 59.5zM357 48q134 0 218.5 109t84.5 261q0 118 -60 181t-166 63q-88 0 -157.5 -52.5t-106.5 -136.5t-37 -181q0 -116 60 -180t164 -64z" />
    <glyph glyph-name="uni1ED5" unicode="&#x1ed5;" horiz-adv-x="546" 
d="M475 795q33 0 51.5 -17.5t18.5 -46.5q-1 -52 -85 -91l-8 -23l-22 1q-8 11 -8 22q1 10 22 23.5t42 30.5t21 36q1 15 -10 23t-26 8q-41 0 -68 -33l-22 25q42 42 94 42zM330 664l-90 -106h-56l123 140h51l93 -140h-55l-64 106h-2zM302 490q90 0 143.5 -52t53.5 -146
q0 -127 -69 -212t-184 -85q-91 0 -144.5 53.5t-53.5 149.5q0 121 70 206.5t184 85.5zM247 44q87 0 142.5 69t55.5 176q0 75 -40 113.5t-105 38.5q-86 0 -142.5 -69t-56.5 -169q0 -74 39.5 -116.5t106.5 -42.5z" />
    <glyph glyph-name="uni1ED6" unicode="&#x1ed6;" horiz-adv-x="766" 
d="M419 926q-33 0 -54 -47l-29 14q29 67 79 67q29 0 65 -30q28 -19 47 -19q36 0 55 46l28 -13q-28 -68 -79 -68q-28 0 -63 27q-33 23 -49 23zM462 825l-93 -91h-50l123 122h46l97 -122h-50l-69 91h-4zM438 715q128 0 204 -78t76 -218q0 -176 -100.5 -300t-263.5 -124
q-128 0 -203.5 79t-75.5 218q0 112 44.5 208t128.5 155.5t190 59.5zM357 48q134 0 218.5 109t84.5 261q0 118 -60 181t-166 63q-88 0 -157.5 -52.5t-106.5 -136.5t-37 -181q0 -116 60 -180t164 -64z" />
    <glyph glyph-name="uni1ED7" unicode="&#x1ed7;" horiz-adv-x="546" 
d="M289 781q-37 0 -63 -59l-33 17q35 87 92 87q32 0 66 -32q4 -3 17 -13t21.5 -14.5t17.5 -4.5q37 0 60 60l34 -15q-35 -90 -90 -90q-28 0 -72 39q-35 25 -50 25zM331 664l-90 -106h-56l123 140h51l93 -140h-55l-64 106h-2zM302 490q90 0 143.5 -52t53.5 -146
q0 -127 -69 -212t-184 -85q-91 0 -144.5 53.5t-53.5 149.5q0 121 70 206.5t184 85.5zM247 44q87 0 142.5 69t55.5 176q0 75 -40 113.5t-105 38.5q-86 0 -142.5 -69t-56.5 -169q0 -74 39.5 -116.5t106.5 -42.5z" />
    <glyph glyph-name="uni1ED8" unicode="&#x1ed8;" horiz-adv-x="766" 
d="M471 901l-90 -106h-56l123 140h51l93 -140h-55l-64 106h-2zM438 715q128 0 204 -78t76 -218q0 -176 -100.5 -300t-263.5 -124q-128 0 -203.5 79t-75.5 218q0 112 44.5 208t128.5 155.5t190 59.5zM357 48q134 0 218.5 109t84.5 261q0 118 -60 181t-166 63
q-88 0 -157.5 -52.5t-106.5 -136.5t-37 -181q0 -116 60 -180t164 -64zM337 -124q16 0 27 -11t11 -28q0 -18 -11.5 -29.5t-28.5 -11.5t-28 11t-11 28t11.5 29t29.5 12z" />
    <glyph glyph-name="uni1ED9" unicode="&#x1ed9;" horiz-adv-x="546" 
d="M331 664l-90 -106h-56l123 140h51l93 -140h-55l-64 106h-2zM302 490q90 0 143.5 -52t53.5 -146q0 -127 -69 -212t-184 -85q-91 0 -144.5 53.5t-53.5 149.5q0 121 70 206.5t184 85.5zM247 44q87 0 142.5 69t55.5 176q0 75 -40 113.5t-105 38.5q-86 0 -142.5 -69
t-56.5 -169q0 -74 39.5 -116.5t106.5 -42.5zM226 -124q16 0 27 -11t11 -28q0 -18 -11.5 -29.5t-28.5 -11.5q-16 0 -27.5 11t-11.5 28t11.5 29t29.5 12z" />
    <glyph glyph-name="uni1EDA" unicode="&#x1eda;" horiz-adv-x="820" 
d="M618 934l-129 -139h-57l124 139h62zM776 774h51l-13 -99q-18 -143 -111 -146q15 -50 15 -110q0 -176 -100.5 -300t-263.5 -124q-128 0 -203.5 79t-75.5 218q0 112 44.5 208t128.5 155.5t190 59.5q87 0 151 -37t97 -106h10q30 0 45.5 26t23.5 84zM357 48q134 0 218.5 109
t84.5 261q0 118 -60 181t-166 63q-88 0 -157.5 -52.5t-106.5 -136.5t-37 -181q0 -116 60 -180t164 -64z" />
    <glyph glyph-name="uni1EDB" unicode="&#x1edb;" horiz-adv-x="618" 
d="M481 698l-129 -139h-57l124 139h62zM579 565h51l-13 -99q-18 -146 -116 -146h-3q1 -9 1 -28q0 -127 -69 -212t-184 -85q-91 0 -144.5 53.5t-53.5 149.5q0 121 70 206.5t184 85.5q71 0 120 -32.5t67 -93.5q4 -1 10 -1q30 0 45.5 26t23.5 84zM247 44q87 0 142.5 69
t55.5 176q0 75 -40 113.5t-105 38.5q-86 0 -142.5 -69t-56.5 -169q0 -74 39.5 -116.5t106.5 -42.5z" />
    <glyph glyph-name="uni1EDC" unicode="&#x1edc;" horiz-adv-x="820" 
d="M489 795h-57l-95 139h62zM776 774h51l-13 -99q-18 -143 -111 -146q15 -50 15 -110q0 -176 -100.5 -300t-263.5 -124q-128 0 -203.5 79t-75.5 218q0 112 44.5 208t128.5 155.5t190 59.5q87 0 151 -37t97 -106h10q30 0 45.5 26t23.5 84zM357 48q134 0 218.5 109t84.5 261
q0 118 -60 181t-166 63q-88 0 -157.5 -52.5t-106.5 -136.5t-37 -181q0 -116 60 -180t164 -64z" />
    <glyph glyph-name="uni1EDD" unicode="&#x1edd;" horiz-adv-x="618" 
d="M362 559h-57l-95 139h62zM579 565h51l-13 -99q-18 -146 -116 -146h-3q1 -9 1 -28q0 -127 -69 -212t-184 -85q-91 0 -144.5 53.5t-53.5 149.5q0 121 70 206.5t184 85.5q71 0 120 -32.5t67 -93.5q4 -1 10 -1q30 0 45.5 26t23.5 84zM247 44q87 0 142.5 69t55.5 176
q0 75 -40 113.5t-105 38.5q-86 0 -142.5 -69t-56.5 -169q0 -74 39.5 -116.5t106.5 -42.5z" />
    <glyph glyph-name="uni1EDE" unicode="&#x1ede;" horiz-adv-x="820" 
d="M481 914q-40 0 -68 -33l-21 25q40 43 94 43q33 0 51.5 -18t17.5 -46q0 -30 -22 -51t-63 -41l-7 -22h-22q-9 14 -8 22q0 11 42 39t43 52q0 30 -37 30zM776 774h51l-13 -99q-18 -143 -111 -146q15 -50 15 -110q0 -176 -100.5 -300t-263.5 -124q-128 0 -203.5 79t-75.5 218
q0 112 44.5 208t128.5 155.5t190 59.5q87 0 151 -37t97 -106h10q30 0 45.5 26t23.5 84zM357 48q134 0 218.5 109t84.5 261q0 118 -60 181t-166 63q-88 0 -157.5 -52.5t-106.5 -136.5t-37 -181q0 -116 60 -180t164 -64z" />
    <glyph glyph-name="uni1EDF" unicode="&#x1edf;" horiz-adv-x="618" 
d="M341 677q-40 0 -68 -33l-21 25q40 43 94 43q33 0 51.5 -18t17.5 -46q0 -30 -22 -51t-63 -41l-7 -22h-22q-9 14 -8 22q0 11 42 39t43 52q0 30 -37 30zM579 565h51l-13 -99q-18 -146 -116 -146h-3q1 -9 1 -28q0 -127 -69 -212t-184 -85q-91 0 -144.5 53.5t-53.5 149.5
q0 121 70 206.5t184 85.5q71 0 120 -32.5t67 -93.5q4 -1 10 -1q30 0 45.5 26t23.5 84zM247 44q87 0 142.5 69t55.5 176q0 75 -40 113.5t-105 38.5q-86 0 -142.5 -69t-56.5 -169q0 -74 39.5 -116.5t106.5 -42.5z" />
    <glyph glyph-name="uni1EE0" unicode="&#x1ee0;" horiz-adv-x="820" 
d="M409 873q-38 0 -64 -59l-35 17q36 87 95 87q30 0 68 -32t57 -32q38 0 62 60l35 -15q-35 -90 -93 -90q-7 0 -13 1t-12.5 4t-11 5t-11 7t-9 7t-9.5 8t-8 7q-32 25 -51 25zM776 774h51l-13 -99q-18 -143 -111 -146q15 -50 15 -110q0 -176 -100.5 -300t-263.5 -124
q-128 0 -203.5 79t-75.5 218q0 112 44.5 208t128.5 155.5t190 59.5q87 0 151 -37t97 -106h10q30 0 45.5 26t23.5 84zM357 48q134 0 218.5 109t84.5 261q0 118 -60 181t-166 63q-88 0 -157.5 -52.5t-106.5 -136.5t-37 -181q0 -116 60 -180t164 -64z" />
    <glyph glyph-name="uni1EE1" unicode="&#x1ee1;" horiz-adv-x="618" 
d="M269 636q-38 0 -64 -59l-35 17q36 87 95 87q30 0 68 -32t57 -32q38 0 62 60l35 -15q-35 -90 -93 -90q-7 0 -13 1t-12.5 4t-11 5t-11 7t-9 7t-9.5 8t-8 7q-32 25 -51 25zM579 565h51l-13 -99q-18 -146 -116 -146h-3q1 -9 1 -28q0 -127 -69 -212t-184 -85
q-91 0 -144.5 53.5t-53.5 149.5q0 121 70 206.5t184 85.5q71 0 120 -32.5t67 -93.5q4 -1 10 -1q30 0 45.5 26t23.5 84zM247 44q87 0 142.5 69t55.5 176q0 75 -40 113.5t-105 38.5q-86 0 -142.5 -69t-56.5 -169q0 -74 39.5 -116.5t106.5 -42.5z" />
    <glyph glyph-name="uni1EE2" unicode="&#x1ee2;" horiz-adv-x="820" 
d="M776 774h51l-13 -99q-18 -143 -111 -146q15 -50 15 -110q0 -176 -100.5 -300t-263.5 -124q-128 0 -203.5 79t-75.5 218q0 112 44.5 208t128.5 155.5t190 59.5q87 0 151 -37t97 -106h10q30 0 45.5 26t23.5 84zM357 48q134 0 218.5 109t84.5 261q0 118 -60 181t-166 63
q-88 0 -157.5 -52.5t-106.5 -136.5t-37 -181q0 -116 60 -180t164 -64zM337 -124q16 0 27 -11t11 -28q0 -18 -11.5 -29.5t-28.5 -11.5t-28 11t-11 28t11.5 29t29.5 12z" />
    <glyph glyph-name="uni1EE3" unicode="&#x1ee3;" horiz-adv-x="618" 
d="M579 565h51l-13 -99q-18 -146 -116 -146h-3q1 -9 1 -28q0 -127 -69 -212t-184 -85q-91 0 -144.5 53.5t-53.5 149.5q0 121 70 206.5t184 85.5q71 0 120 -32.5t67 -93.5q4 -1 10 -1q30 0 45.5 26t23.5 84zM247 44q87 0 142.5 69t55.5 176q0 75 -40 113.5t-105 38.5
q-86 0 -142.5 -69t-56.5 -169q0 -74 39.5 -116.5t106.5 -42.5zM226 -124q16 0 27 -11t11 -28q0 -18 -11.5 -29.5t-28.5 -11.5q-16 0 -27.5 11t-11.5 28t11.5 29t29.5 12z" />
    <glyph glyph-name="uni1EE4" unicode="&#x1ee4;" horiz-adv-x="660" 
d="M578 283q-35 -288 -280 -288q-105 0 -157 62.5t-52 171.5q0 34 4 62l52 419h55l-52 -420q-4 -42 -4 -58q0 -86 38 -135t118 -49q93 0 150.5 58.5t72.5 177.5l52 426h55zM278 -204q-16 0 -27.5 11t-11.5 28t11.5 29t29.5 12q16 0 27 -11t11 -28q0 -18 -11.5 -29.5
t-28.5 -11.5z" />
    <glyph glyph-name="uni1EE5" unicode="&#x1ee5;" horiz-adv-x="529" 
d="M429 485h52l-59 -485h-52l14 113h-3q-35 -54 -84 -86t-102 -32q-153 0 -129 197l36 293h52l-35 -290q-11 -84 12.5 -117.5t75.5 -33.5q62 0 121.5 66t73.5 156zM225 -124q16 0 27 -11t11 -28q0 -18 -11.5 -29.5t-28.5 -11.5t-28 11t-11 28t11.5 29t29.5 12z" />
    <glyph glyph-name="uni1EE6" unicode="&#x1ee6;" horiz-adv-x="660" 
d="M355 881l-21 25q40 43 94 43q33 0 51.5 -18t17.5 -46q0 -30 -22 -51t-63 -41l-7 -22h-22q-9 14 -8 22q0 11 42 39t43 52q0 30 -37 30q-40 0 -68 -33zM578 283q-35 -288 -280 -288q-105 0 -157 62.5t-52 171.5q0 34 4 62l52 419h55l-52 -420q-4 -42 -4 -58q0 -86 38 -135
t118 -49q93 0 150.5 58.5t72.5 177.5l52 426h55z" />
    <glyph glyph-name="uni1EE7" unicode="&#x1ee7;" horiz-adv-x="529" 
d="M321 677q-40 0 -68 -33l-21 25q40 43 94 43q33 0 51.5 -18t17.5 -46q0 -30 -22 -51t-63 -41l-7 -22h-22q-9 14 -8 22q0 11 42 39t43 52q0 30 -37 30zM429 485h52l-59 -485h-52l14 113h-3q-35 -54 -84 -86t-102 -32q-153 0 -129 197l36 293h52l-35 -290
q-11 -84 12.5 -117.5t75.5 -33.5q62 0 121.5 66t73.5 156z" />
    <glyph glyph-name="uni1EE8" unicode="&#x1ee8;" horiz-adv-x="727" 
d="M545 934l-129 -139h-57l124 139h62zM713 774h51l-13 -99q-18 -146 -116 -146q-9 0 -27 2l-30 -248q-35 -288 -280 -288q-105 0 -157 62.5t-52 171.5q0 34 4 62l52 419h55l-52 -420q-4 -42 -4 -58q0 -86 38 -135t118 -49q93 0 150.5 58.5t72.5 177.5l52 426h55l-17 -136
q16 -2 20 -2q30 0 45.5 26t23.5 84z" />
    <glyph glyph-name="uni1EE9" unicode="&#x1ee9;" horiz-adv-x="598" 
d="M453 698l-129 -139h-57l124 139h62zM565 565h51l-13 -99q-18 -146 -116 -146q-8 0 -26 2l-39 -322h-52l14 113h-3q-35 -54 -84 -86t-102 -32q-153 0 -129 197l36 293h52l-35 -290q-11 -84 12.5 -117.5t75.5 -33.5q62 0 121.5 66t73.5 156l27 219h52l-15 -120q7 -2 19 -2
q30 0 45.5 26t23.5 84z" />
    <glyph glyph-name="uni1EEA" unicode="&#x1eea;" horiz-adv-x="727" 
d="M425 795h-57l-95 139h62zM713 774h51l-13 -99q-18 -146 -116 -146q-9 0 -27 2l-30 -248q-35 -288 -280 -288q-105 0 -157 62.5t-52 171.5q0 34 4 62l52 419h55l-52 -420q-4 -42 -4 -58q0 -86 38 -135t118 -49q93 0 150.5 58.5t72.5 177.5l52 426h55l-17 -136q16 -2 20 -2
q30 0 45.5 26t23.5 84z" />
    <glyph glyph-name="uni1EEB" unicode="&#x1eeb;" horiz-adv-x="598" 
d="M341 559h-57l-95 139h62zM565 565h51l-13 -99q-18 -146 -116 -146q-8 0 -26 2l-39 -322h-52l14 113h-3q-35 -54 -84 -86t-102 -32q-153 0 -129 197l36 293h52l-35 -290q-11 -84 12.5 -117.5t75.5 -33.5q62 0 121.5 66t73.5 156l27 219h52l-15 -120q7 -2 19 -2
q30 0 45.5 26t23.5 84z" />
    <glyph glyph-name="uni1EEC" unicode="&#x1eec;" horiz-adv-x="727" 
d="M423 914q-40 0 -68 -33l-21 25q40 43 94 43q33 0 51.5 -18t17.5 -46q0 -30 -22 -51t-63 -41l-7 -22h-22q-9 14 -8 22q0 11 42 39t43 52q0 30 -37 30zM713 774h51l-13 -99q-18 -146 -116 -146q-9 0 -27 2l-30 -248q-35 -288 -280 -288q-105 0 -157 62.5t-52 171.5
q0 34 4 62l52 419h55l-52 -420q-4 -42 -4 -58q0 -86 38 -135t118 -49q93 0 150.5 58.5t72.5 177.5l52 426h55l-17 -136q16 -2 20 -2q30 0 45.5 26t23.5 84z" />
    <glyph glyph-name="uni1EED" unicode="&#x1eed;" horiz-adv-x="598" 
d="M321 677q-40 0 -68 -33l-21 25q40 43 94 43q33 0 51.5 -18t17.5 -46q0 -30 -22 -51t-63 -41l-7 -22h-22q-9 14 -8 22q0 11 42 39t43 52q0 30 -37 30zM565 565h51l-13 -99q-18 -146 -116 -146q-8 0 -26 2l-39 -322h-52l14 113h-3q-35 -54 -84 -86t-102 -32
q-153 0 -129 197l36 293h52l-35 -290q-11 -84 12.5 -117.5t75.5 -33.5q62 0 121.5 66t73.5 156l27 219h52l-15 -120q7 -2 19 -2q30 0 45.5 26t23.5 84z" />
    <glyph glyph-name="uni1EEE" unicode="&#x1eee;" horiz-adv-x="727" 
d="M351 873q-38 0 -64 -59l-35 17q36 87 95 87q30 0 68 -32t57 -32q38 0 62 60l35 -15q-35 -90 -93 -90q-7 0 -13 1t-12.5 4t-11 5t-11 7t-9 7t-9.5 8t-8 7q-32 25 -51 25zM713 774h51l-13 -99q-18 -146 -116 -146q-9 0 -27 2l-30 -248q-35 -288 -280 -288q-105 0 -157 62.5
t-52 171.5q0 34 4 62l52 419h55l-52 -420q-4 -42 -4 -58q0 -86 38 -135t118 -49q93 0 150.5 58.5t72.5 177.5l52 426h55l-17 -136q16 -2 20 -2q30 0 45.5 26t23.5 84z" />
    <glyph glyph-name="uni1EEF" unicode="&#x1eef;" horiz-adv-x="598" 
d="M249 636q-38 0 -64 -59l-35 17q36 87 95 87q30 0 68 -32t57 -32q38 0 62 60l35 -15q-17 -44 -41.5 -67t-51.5 -23q-7 0 -13 1t-12.5 4t-11 5t-11 7t-9 7t-9.5 8t-8 7q-32 25 -51 25zM565 565h51l-13 -99q-18 -146 -116 -146q-8 0 -26 2l-39 -322h-52l14 113h-3
q-35 -54 -84 -86t-102 -32q-153 0 -129 197l36 293h52l-35 -290q-11 -84 12.5 -117.5t75.5 -33.5q62 0 121.5 66t73.5 156l27 219h52l-15 -120q7 -2 19 -2q30 0 45.5 26t23.5 84z" />
    <glyph glyph-name="uni1EF0" unicode="&#x1ef0;" horiz-adv-x="727" 
d="M713 774h51l-13 -99q-18 -146 -116 -146q-9 0 -27 2l-30 -248q-35 -288 -280 -288q-105 0 -157 62.5t-52 171.5q0 34 4 62l52 419h55l-52 -420q-4 -42 -4 -58q0 -86 38 -135t118 -49q93 0 150.5 58.5t72.5 177.5l52 426h55l-17 -136q16 -2 20 -2q30 0 45.5 26t23.5 84z
M280 -124q16 0 27 -11t11 -28q0 -18 -11.5 -29.5t-28.5 -11.5q-16 0 -27.5 11t-11.5 28t11.5 29t29.5 12z" />
    <glyph glyph-name="uni1EF1" unicode="&#x1ef1;" horiz-adv-x="598" 
d="M565 565h51l-13 -99q-18 -146 -116 -146q-8 0 -26 2l-39 -322h-52l14 113h-3q-35 -54 -84 -86t-102 -32q-153 0 -129 197l36 293h52l-35 -290q-11 -84 12.5 -117.5t75.5 -33.5q62 0 121.5 66t73.5 156l27 219h52l-15 -120q7 -2 19 -2q30 0 45.5 26t23.5 84zM225 -124
q16 0 27 -11t11 -28q0 -18 -11.5 -29.5t-28.5 -11.5t-28 11t-11 28t11.5 29t29.5 12z" />
    <glyph glyph-name="Ygrave" unicode="&#x1ef2;" horiz-adv-x="538" 
d="M368 795h-57l-95 139h62zM510 710h66l-269 -390l-40 -320h-56l40 320l-172 390h61l142 -334h2z" />
    <glyph glyph-name="ygrave" unicode="&#x1ef3;" horiz-adv-x="528" 
d="M338 559h-57l-95 139h62zM429 485h52l-51 -421q-8 -63 -25.5 -111t-40.5 -77.5t-54 -47.5t-61.5 -24.5t-66.5 -6.5q-79 0 -155 41l17 48q68 -40 139 -40q78 0 128.5 47.5t66.5 174.5l6 52h-2q-35 -58 -84.5 -91.5t-104.5 -33.5q-153 0 -129 197l36 293h52l-35 -290
q-11 -84 12.5 -117.5t75.5 -33.5q65 0 126 69.5t72 163.5h1z" />
    <glyph glyph-name="uni1EF4" unicode="&#x1ef4;" horiz-adv-x="538" 
d="M510 710h66l-269 -390l-40 -320h-56l40 320l-172 390h61l142 -334h2zM222 -124q16 0 27 -11t11 -28q0 -18 -11.5 -29.5t-28.5 -11.5q-16 0 -27.5 11t-11.5 28t11.5 29t29.5 12z" />
    <glyph glyph-name="uni1EF5" unicode="&#x1ef5;" horiz-adv-x="528" 
d="M429 485h52l-51 -421q-8 -63 -25.5 -111t-40.5 -77.5t-54 -47.5t-61.5 -24.5t-66.5 -6.5q-79 0 -155 41l17 48q68 -40 139 -40q78 0 128.5 47.5t66.5 174.5l6 52h-2q-35 -58 -84.5 -91.5t-104.5 -33.5q-153 0 -129 197l36 293h52l-35 -290q-11 -84 12.5 -117.5
t75.5 -33.5q65 0 126 69.5t72 163.5h1zM201 -259q16 0 27 -11t11 -28q0 -18 -11.5 -29.5t-28.5 -11.5t-28 11.5t-11 27.5q0 17 11.5 29t29.5 12z" />
    <glyph glyph-name="uni1EF6" unicode="&#x1ef6;" horiz-adv-x="538" 
d="M357 914q-40 0 -68 -33l-21 25q40 43 94 43q33 0 51.5 -18t17.5 -46q0 -30 -22 -51t-63 -41l-7 -22h-22q-9 14 -8 22q0 11 42 39t43 52q0 30 -37 30zM510 710h66l-269 -390l-40 -320h-56l40 320l-172 390h61l142 -334h2z" />
    <glyph glyph-name="uni1EF7" unicode="&#x1ef7;" horiz-adv-x="528" 
d="M322 677q-40 0 -68 -33l-21 25q40 43 94 43q33 0 51.5 -18t17.5 -46q0 -30 -22 -51t-63 -41l-7 -22h-22q-9 14 -8 22q0 11 42 39t43 52q0 30 -37 30zM429 485h52l-51 -421q-8 -63 -25.5 -111t-40.5 -77.5t-54 -47.5t-61.5 -24.5t-66.5 -6.5q-79 0 -155 41l17 48
q68 -40 139 -40q78 0 128.5 47.5t66.5 174.5l6 52h-2q-35 -58 -84.5 -91.5t-104.5 -33.5q-153 0 -129 197l36 293h52l-35 -290q-11 -84 12.5 -117.5t75.5 -33.5q65 0 126 69.5t72 163.5h1z" />
    <glyph glyph-name="uni1EF8" unicode="&#x1ef8;" horiz-adv-x="538" 
d="M285 873q-38 0 -64 -59l-35 17q36 87 95 87q30 0 68 -32t57 -32q38 0 62 60l35 -15q-35 -90 -93 -90q-7 0 -13 1t-12.5 4t-11 5t-11 7t-9 7t-9.5 8t-8 7q-32 25 -51 25zM510 710h66l-269 -390l-40 -320h-56l40 320l-172 390h61l142 -334h2z" />
    <glyph glyph-name="uni1EF9" unicode="&#x1ef9;" horiz-adv-x="528" 
d="M250 636q-38 0 -64 -59l-35 17q36 87 95 87q30 0 68 -32t57 -32q38 0 62 60l35 -15q-17 -44 -41.5 -67t-51.5 -23q-7 0 -13 1t-12.5 4t-11 5t-11 7t-9 7t-9.5 8t-8 7q-32 25 -51 25zM429 485h52l-51 -421q-8 -63 -25.5 -111t-40.5 -77.5t-54 -47.5t-61.5 -24.5
t-66.5 -6.5q-79 0 -155 41l17 48q68 -40 139 -40q78 0 128.5 47.5t66.5 174.5l6 52h-2q-35 -58 -84.5 -91.5t-104.5 -33.5q-153 0 -129 197l36 293h52l-35 -290q-11 -84 12.5 -117.5t75.5 -33.5q65 0 126 69.5t72 163.5h1z" />
    <glyph glyph-name="uni2002" unicode="&#x2002;" horiz-adv-x="467" 
 />
    <glyph glyph-name="uni2003" unicode="&#x2003;" horiz-adv-x="934" 
 />
    <glyph glyph-name="uni2009" unicode="&#x2009;" horiz-adv-x="28" 
 />
    <glyph glyph-name="endash" unicode="&#x2013;" horiz-adv-x="591" 
d="M533 273h-467l6 48h466z" />
    <glyph glyph-name="emdash" unicode="&#x2014;" horiz-adv-x="1058" 
d="M1000 273h-934l6 48h933z" />
    <glyph glyph-name="uni2015" unicode="&#x2015;" horiz-adv-x="1205" 
d="M1146 273h-1080l6 48h1080z" />
    <glyph glyph-name="quoteleft" unicode="&#x2018;" horiz-adv-x="188" 
d="M136 480h-58l72 229h44z" />
    <glyph glyph-name="quoteright" unicode="&#x2019;" horiz-adv-x="185" 
d="M137 710h58l-72 -229h-44z" />
    <glyph glyph-name="quotesinglbase" unicode="&#x201a;" horiz-adv-x="192" 
d="M53 100h58l-76 -229h-41z" />
    <glyph glyph-name="quotedblleft" unicode="&#x201c;" horiz-adv-x="296" 
d="M135 480h-58l73 229h44zM243 480h-58l72 229h44z" />
    <glyph glyph-name="quotedblright" unicode="&#x201d;" horiz-adv-x="292" 
d="M137 710h58l-72 -229h-44zM245 710h58l-73 -229h-44z" />
    <glyph glyph-name="quotedblbase" unicode="&#x201e;" horiz-adv-x="298" 
d="M58 154h58l-72 -229h-44zM166 154h58l-73 -229h-44z" />
    <glyph glyph-name="dagger" unicode="&#x2020;" horiz-adv-x="380" 
d="M354 545l-91 4h-18l-14 -112l-13 -138l-24 -38l-16 38l20 138l13 112h-18l-93 -3l4 40l93 -2h17l12 101h40l-16 -101h17l92 2z" />
    <glyph glyph-name="daggerdbl" unicode="&#x2021;" horiz-adv-x="380" 
d="M187 378l12 74l12 97h-19l-92 -3l4 40l92 -3h18l11 102h40l-15 -102h16l93 2l-5 -39l-92 3h-17l-13 -97l-4 -74l-14 -72l-13 -110h17l94 3l-5 -40l-93 1h-16l-10 -100h-39l14 100h-18l-93 -2l5 40l91 -2h19l14 110z" />
    <glyph glyph-name="bullet" unicode="&#x2022;" horiz-adv-x="406" 
d="M214 409q40 0 66 -26t26 -66q0 -41 -27.5 -68t-68.5 -27q-39 0 -65 26.5t-26 66.5t27.5 67t67.5 27z" />
    <glyph glyph-name="ellipsis" unicode="&#x2026;" horiz-adv-x="1000" 
d="M144 75q16 0 27.5 -11.5t11.5 -27.5q0 -18 -11.5 -29.5t-28.5 -11.5t-28 11.5t-11 27.5q0 18 11.5 29.5t28.5 11.5zM477 75q17 0 28 -11.5t11 -27.5q0 -18 -11.5 -29.5t-28.5 -11.5q-16 0 -27.5 11.5t-11.5 27.5q0 18 11.5 29.5t28.5 11.5zM811 75q17 0 28 -11.5
t11 -27.5q0 -18 -11.5 -29.5t-28.5 -11.5q-16 0 -27.5 11.5t-11.5 27.5q0 18 11.5 29.5t28.5 11.5z" />
    <glyph glyph-name="perthousand" unicode="&#x2030;" horiz-adv-x="1381" 
d="M690 701l-365 -713l-43 19l365 714zM279 714q79 0 130 -49.5t51 -128.5q0 -91 -58.5 -150.5t-143.5 -59.5q-77 0 -127.5 50.5t-50.5 129.5q0 87 58 147.5t141 60.5zM278 670q-63 0 -107.5 -47.5t-44.5 -116.5q0 -60 37.5 -98t95.5 -38q65 0 110 46.5t45 118.5
q0 60 -38.5 97.5t-97.5 37.5zM710 383q79 0 130 -49.5t51 -128.5q0 -90 -59 -150t-143 -60q-77 0 -128 50.5t-51 129.5q0 87 58.5 147.5t141.5 60.5zM1142 383q79 0 130 -49.5t51 -128.5q0 -90 -59 -150t-143 -60q-77 0 -128 50.5t-51 129.5q0 87 58.5 147.5t141.5 60.5z
M709 339q-63 0 -107.5 -47.5t-44.5 -116.5q0 -60 37.5 -98t95.5 -38q65 0 109.5 46.5t44.5 118.5q0 60 -38 97.5t-97 37.5zM1141 339q-63 0 -107.5 -47.5t-44.5 -116.5q0 -60 37.5 -98t95.5 -38q65 0 109.5 46.5t44.5 118.5q0 60 -38 97.5t-97 37.5z" />
    <glyph glyph-name="guilsinglleft" unicode="&#x2039;" horiz-adv-x="263" 
d="M184 20h-50l-89 225l143 224h51l-141 -224z" />
    <glyph glyph-name="guilsinglright" unicode="&#x203a;" horiz-adv-x="261" 
d="M23 20l142 225l-87 224h51l89 -224l-144 -225h-51z" />
    <glyph glyph-name="fraction" unicode="&#x2044;" horiz-adv-x="198" 
d="M323 701l-365 -713l-43 19l365 714z" />
    <glyph glyph-name="uni2070" unicode="&#x2070;" horiz-adv-x="368" 
 />
    <glyph glyph-name="dong" unicode="&#x20ab;" 
d="M579 619l-6 -40h-56l-71 -579h-52l15 128h-1q-34 -60 -84 -96.5t-109 -36.5q-79 0 -123 55t-44 139q0 124 69.5 212.5t178.5 88.5q100 0 149 -53h2l18 142h-128l5 40h128l14 117h52l-14 -117h57zM223 43q73 0 130 69t75 169l12 98q-42 62 -142 62q-87 0 -141.5 -75
t-54.5 -178q0 -65 31.5 -105t89.5 -40zM15 -134l6 49h419l-6 -49h-419z" />
    <glyph glyph-name="Euro" unicode="&#x20ac;" horiz-adv-x="544" 
d="M390 625q-85 0 -148 -57.5t-92 -152.5h273l-5 -39h-277q-8 -38 -10 -83h277l-5 -38h-271q6 -100 56 -154t125 -54q80 0 149 51l28 -43q-80 -59 -179 -59q-97 0 -163 67t-72 192h-58l5 38h52q1 42 9 83h-51l5 39h55q32 118 111 190t186 72q95 0 164 -59l-37 -40
q-53 47 -127 47z" />
    <glyph glyph-name="uni20BA" unicode="&#x20ba;" horiz-adv-x="542" 
d="M453 189l45 -20q-83 -169 -265 -169h-148l30 245l-66 -31l-12 38l84 39l9 76l-67 -31l-12 39l85 40l34 272h56l-30 -245l151 71l13 -39l-170 -79l-10 -76l153 72l12 -39l-170 -79l-28 -224h86q82 0 131 33t89 107z" />
    <glyph glyph-name="uni2113" unicode="&#x2113;" horiz-adv-x="448" 
d="M402 104l23 -17q-63 -92 -169 -92q-71 0 -110.5 42.5t-43.5 115.5q-26 -23 -54 -43l-16 22q65 51 70 56l2 271q1 116 43.5 168t110.5 52q53 0 80 -38.5t27 -107.5q0 -146 -197 -325v-25q0 -83 30 -119t74 -36q72 0 130 76zM262 645q-94 0 -94 -178v-222q167 161 167 287
q0 58 -17 85.5t-56 27.5z" />
    <glyph glyph-name="uni2116" unicode="&#x2116;" horiz-adv-x="993" 
d="M827 416q-54 0 -86 32t-32 90q0 71 42.5 122.5t110.5 51.5q53 0 85 -30.5t32 -88.5q0 -74 -41.5 -125.5t-110.5 -51.5zM532 97l75 613h56l-86 -710h-59l-318 609h-2l-75 -609h-56l87 710h57l320 -613h1zM860 672q-45 0 -76 -38t-31 -92q0 -40 20.5 -63t56.5 -23
q45 0 76 38.5t31 95.5q0 41 -21 61.5t-56 20.5zM686 316l3 43h247l-3 -43h-247z" />
    <glyph glyph-name="trademark" unicode="&#x2122;" horiz-adv-x="620" 
d="M77 674l4 36h212l-5 -36h-87l-35 -287h-39l36 287h-86zM586 710h40l-40 -323h-38l32 252l-116 -186h-26l-71 185l-31 -251h-38l40 323h40l78 -210z" />
    <glyph glyph-name="uni2126" unicode="&#x2126;" horiz-adv-x="725" 
d="M475 53l-1 -1h154l-6 -52h-236l6 52q109 59 170 154t61 215q0 102 -57.5 171.5t-146.5 69.5q-124 0 -202.5 -97t-78.5 -230q0 -90 39 -164t109 -119l-7 -52h-235l6 52h160v1q-61 49 -95.5 123.5t-34.5 160.5q0 158 96 268t245 110q114 0 187 -84t73 -205
q0 -116 -55.5 -214t-150.5 -159z" />
    <glyph glyph-name="estimated" unicode="&#x212e;" horiz-adv-x="793" 
d="M174 302v-181q40 -55 100.5 -80t121.5 -25t116.5 23t91.5 63h41q-42 -52 -110 -82t-139 -30q-144 0 -237.5 93t-93.5 228q0 140 96 230.5t235 90.5q144 0 237.5 -93.5t93.5 -227.5v-9h-553zM614 508q-38 48 -97.5 72.5t-120.5 24.5q-64 0 -124.5 -26.5t-96.5 -77.5
l-1 -171h439z" />
    <glyph glyph-name="partialdiff" unicode="&#x2202;" horiz-adv-x="526" 
d="M311 692q51 0 87.5 -25t55.5 -68.5t27 -91t8 -104.5q0 -80 -15.5 -151.5t-46 -129.5t-82 -92t-117.5 -34q-82 0 -132.5 51t-50.5 137q0 105 62.5 177t162.5 72q107 0 160 -87h2q2 36 2 54q0 49 -6 89t-20.5 76t-43 56t-68.5 20q-72 0 -142 -45l-8 47q77 49 165 49z
M233 49q72 0 119.5 59.5t67.5 156.5q-16 51 -54.5 84.5t-93.5 33.5q-76 0 -123.5 -56t-47.5 -133q0 -66 35 -105.5t97 -39.5z" />
    <glyph glyph-name="emptyset" unicode="&#x2205;" horiz-adv-x="698" 
d="M571 512q71 -84 71 -194q0 -121 -85.5 -208.5t-208.5 -87.5q-111 0 -193 74l-43 -43l-27 27l43 43q-73 83 -73 195q0 121 86 208.5t209 87.5q113 0 194 -75l37 37l27 -27zM101 317q0 -92 59 -162l352 352q-69 61 -162 61q-105 0 -177 -73.5t-72 -177.5zM348 68
q104 0 176 74t72 176q0 92 -58 161l-351 -351q70 -60 161 -60z" />
    <glyph glyph-name="uni2206" unicode="&#x2206;" horiz-adv-x="593" 
d="M383 710l149 -665l-6 -45h-519l5 45l311 665h60zM74 52h398l-125 589h-3z" />
    <glyph glyph-name="product" unicode="&#x220f;" horiz-adv-x="640" 
d="M148 710h459l-99 -811h-55l92 760h-348l-93 -760h-56z" />
    <glyph glyph-name="summation" unicode="&#x2211;" horiz-adv-x="549" 
d="M559 659h-375v-3l153 -345l-237 -346v-3h373l-6 -52h-447l5 43l248 358l-160 356l5 43h447z" />
    <glyph glyph-name="minus" unicode="&#x2212;" horiz-adv-x="555" 
d="M488 252h-419l6 49h419z" />
    <glyph glyph-name="radical" unicode="&#x221a;" horiz-adv-x="614" 
d="M683 822h46l-433 -822h-41l-89 499h-98l6 48h141l78 -460h2z" />
    <glyph glyph-name="infinity" unicode="&#x221e;" horiz-adv-x="713" 
d="M532 430q55 0 90.5 -39t35.5 -98q0 -70 -47 -123t-112 -53q-89 0 -144 116q-81 -116 -167 -116q-55 0 -90.5 38.5t-35.5 97.5q0 71 47.5 124t112.5 53q88 0 141 -116q87 116 169 116zM191 162q66 0 142 113q-44 110 -110 110q-47 0 -81 -39.5t-34 -90.5q0 -41 23.5 -67
t59.5 -26zM499 162q45 0 79 39.5t34 90.5q0 41 -23 67t-59 26q-67 0 -143 -114q46 -109 112 -109z" />
    <glyph glyph-name="integral" unicode="&#x222b;" horiz-adv-x="221" 
d="M254 651h-16q-47 0 -59 -18t-23 -91l-88 -583q-18 -112 -80 -125q-25 -4 -64 -2l4 43h9q46 0 59 19t24 89l87 580q18 117 81 127q12 2 39 1.5t32 -0.5z" />
    <glyph glyph-name="uni2236" unicode="&#x2236;" horiz-adv-x="214" 
d="M141 549q17 0 28 -11.5t11 -27.5q0 -18 -11.5 -29.5t-28.5 -11.5q-16 0 -27.5 11.5t-11.5 27.5q0 18 11.5 29.5t28.5 11.5zM90 133q16 0 27.5 -11.5t11.5 -27.5q0 -18 -11.5 -29.5t-28.5 -11.5t-28 11.5t-11 27.5q0 18 11.5 29.5t28.5 11.5z" />
    <glyph glyph-name="approxequal" unicode="&#x2248;" horiz-adv-x="559" 
d="M393 380q46 0 101 49l13 -40q-55 -57 -113 -57q-33 0 -90.5 24t-91.5 24q-62 0 -113 -40l-13 40q19 16 53.5 32.5t72.5 16.5q41 0 95.5 -24.5t85.5 -24.5zM366 164q48 0 101 49l13 -41q-56 -56 -113 -56q-33 0 -90.5 24t-90.5 24q-63 0 -114 -40l-13 40q60 49 127 49
q41 0 95 -24.5t85 -24.5z" />
    <glyph glyph-name="notequal" unicode="&#x2260;" horiz-adv-x="533" 
d="M496 364h-165l-94 -175h238l-6 -49h-259l-72 -134l-37 16l64 118h-115l6 49h135l95 175h-209l6 49h229l74 136l36 -16l-65 -120h145z" />
    <glyph glyph-name="lessequal" unicode="&#x2264;" horiz-adv-x="536" 
d="M452 195l-7 -53l-372 207l5 38l423 209l-6 -54l-345 -173zM29 0l7 49h400l-7 -49h-400z" />
    <glyph glyph-name="greaterequal" unicode="&#x2265;" horiz-adv-x="544" 
d="M83 196l345 173l-302 174l6 54l372 -209l-4 -38l-423 -207zM458 0h-400l6 49h400z" />
    <glyph glyph-name="uni2713" unicode="&#x2713;" horiz-adv-x="588" 
d="M595 740l-382 -625l-193 200l32 32l152 -158l352 576z" />
    <glyph glyph-name="uni2715" unicode="&#x2715;" horiz-adv-x="386" 
d="M334 104l-141 141l-142 -141l-31 31l141 141l-141 142l31 31l141 -141l142 142l32 -32l-142 -142l142 -142z" />
    <glyph glyph-name="Q.alt" horiz-adv-x="766" 
d="M718 419q0 -127 -54.5 -231.5t-150.5 -154.5l121 -126l-41 -42l-137 145q-48 -15 -102 -15q-128 0 -203.5 79t-75.5 218q0 112 44.5 208t128.5 155.5t190 59.5q128 0 204 -78t76 -218zM133 292q0 -116 60 -180t164 -64q134 0 218.5 109t84.5 261q0 118 -60 181t-166 63
q-88 0 -157.5 -52.5t-106.5 -136.5t-37 -181z" />
    <glyph glyph-name="i.loclTRK" horiz-adv-x="229" 
d="M165 674q17 0 28 -11t11 -28t-11.5 -29t-29.5 -12q-16 0 -27 11t-11 28q0 18 11.5 29.5t28.5 11.5zM118 485h52l-59 -485h-52z" />
    <glyph glyph-name="f.calt" horiz-adv-x="303" 
d="M317 685q-21 7 -41 7q-71 0 -84 -109l-12 -98h134l-5 -46h-135l-53 -439h-53l54 439h-56l5 46h57l13 109q17 147 130 147q34 0 61 -10z" />
    <glyph glyph-name="germandbls.calt" horiz-adv-x="708" 
d="M499 387q6 -4 29.5 -17t30.5 -17.5t26.5 -16.5t27 -19t22 -19t20 -22t13.5 -23.5t10.5 -27.5t2.5 -30q0 -91 -61 -145.5t-153 -54.5q-56 0 -111 24t-93 68l32 50q61 -89 171 -89q68 0 113 39.5t45 103.5q0 15 -3.5 27.5t-13.5 25t-16.5 20t-25 20t-26 17.5t-32.5 19.5
t-32 18.5q-43 24 -79 47l167 258q-92 18 -184 18q-96 0 -145 -38t-59 -124l-61 -500h-55l60 504q26 211 260 211q123 0 268 -37l-176 -275z" />
    <glyph glyph-name="bullet.case" horiz-adv-x="425" 
d="M214 426q40 0 66 -26t26 -66q0 -41 -27.5 -68t-68.5 -27q-39 0 -65 26.5t-26 66.5t27.5 67t67.5 27z" />
    <glyph glyph-name="exclamdown.case" horiz-adv-x="234" 
d="M143 452q-17 0 -28 11t-11 28q0 18 11.5 29.5t28.5 11.5q16 0 27.5 -11t11.5 -28q0 -18 -11.5 -29.5t-28.5 -11.5zM149 332l-57 -541h-58l76 541h39z" />
    <glyph glyph-name="questiondown.case" horiz-adv-x="411" 
d="M250 452q-16 0 -27.5 11t-11.5 28q0 18 11.5 29.5t28.5 11.5t28 -11t11 -28q0 -18 -11.5 -29.5t-28.5 -11.5zM301 -85q-51 -76 -135 -76q-46 0 -74 28t-28 80q0 51 22.5 90t68.5 88q4 4 16 16.5t16 17t14 15.5t14 16.5t12 15.5t11.5 17t8 17t7 19.5t3.5 19.5l6 56h-47
l-9 -56q-3 -22 -19 -46.5t-29 -37.5l-46 -46q-52 -53 -80 -100.5t-28 -107.5q0 -71 41 -113t108 -42q52 0 100 24t81 70z" />
    <glyph glyph-name="braceleft.case" horiz-adv-x="262" 
d="M273 773h40l-5 -40h-24q-27 0 -46.5 -20t-23.5 -51l-29 -235q-6 -44 -19 -65t-45 -28v-2q29 -8 37.5 -29.5t3.5 -66.5l-26 -211q-5 -44 6.5 -63t42.5 -19h27l-5 -39h-39q-40 0 -63 27.5t-17 73.5l28 232q1 19 1 34.5t-14.5 26.5t-46.5 13l3 44q25 2 41 9t24 19t10.5 21.5
t4.5 26.5l31 242q5 43 32.5 71.5t70.5 28.5z" />
    <glyph glyph-name="braceright.case" horiz-adv-x="264" 
d="M172 429q-1 -18 -1.5 -33.5t14.5 -26.5t47 -14l-3 -44q-25 -2 -41 -8.5t-24 -18.5t-10.5 -22t-4.5 -27l-29 -232q-6 -46 -35 -72.5t-69 -26.5h-41l5 39h25q32 0 49 20t22 64l27 211q5 47 18 67t46 28v2q-29 7 -38 30t-3 65l29 235q4 30 -10 49t-41 19h-27l5 40h39
q42 0 64 -29.5t17 -72.5z" />
    <glyph glyph-name="bracketleft.case" horiz-adv-x="241" 
d="M189 728l-97 -784h109l-5 -43h-156l107 870h156l-5 -43h-109z" />
    <glyph glyph-name="bracketright.case" horiz-adv-x="262" 
d="M194 729h-110l5 43h157l-106 -870h-158l5 43h111z" />
    <glyph glyph-name="parenleft.case" horiz-adv-x="230" 
d="M124 216q0 -146 47 -294l-46 -20q-51 145 -51 306q0 153 42.5 303.5t121.5 269.5l38 -19q-73 -117 -112.5 -260t-39.5 -286z" />
    <glyph glyph-name="parenright.case" horiz-adv-x="254" 
d="M214 472q0 -300 -160 -568l-39 16q148 263 148 545q0 164 -48 295l43 23q56 -131 56 -311z" />
    <glyph glyph-name="emdash.case" horiz-adv-x="1040" 
d="M995 301h-934l6 48h933z" />
    <glyph glyph-name="endash.case" horiz-adv-x="573" 
d="M528 301h-467l6 48h466z" />
    <glyph glyph-name="uni2015.case" horiz-adv-x="1186" 
d="M1141 301h-1080l6 48h1080z" />
    <glyph glyph-name="hyphen.case" horiz-adv-x="360" 
d="M315 306h-254l6 50h254z" />
    <glyph glyph-name="guillemotleft.case" horiz-adv-x="413" 
d="M192 71h-51l-89 225l144 224h51l-142 -224zM343 71h-50l-89 225l143 224h51l-141 -224z" />
    <glyph glyph-name="guillemotright.case" horiz-adv-x="413" 
d="M31 64l142 225l-87 224h51l89 -224l-144 -225h-51zM184 64l141 225l-87 224h51l89 -224l-143 -225h-51z" />
    <glyph glyph-name="CR" horiz-adv-x="224" 
 />
    <glyph glyph-name="plus.case" 
d="M491 308h-184l-26 -208h-49l25 208h-185l6 49h185l26 208h50l-26 -208h184z" />
    <glyph glyph-name="at.case" horiz-adv-x="896" 
d="M653 113q-44 0 -67 29.5t-22 75.5h-2q-67 -93 -172 -93q-66 0 -104.5 42.5t-38.5 120.5q0 104 59 176t158 72q86 0 130 -49h2l5 45h52l-34 -276q-4 -53 4.5 -75.5t44.5 -22.5q47 0 81 36.5t48 82.5t14 90q0 140 -87.5 227t-229.5 87q-100 0 -179 -36.5t-124 -95.5
t-68 -123.5t-23 -129.5q0 -139 89 -229.5t222 -90.5q127 0 222 53l22 -33q-105 -62 -244 -62q-153 0 -254 101.5t-101 260.5q0 53 14 108.5t48 113.5t82.5 102.5t125 73t168.5 28.5q161 0 261 -97.5t100 -256.5q0 -41 -10.5 -83t-33 -82t-63.5 -65t-95 -25zM403 173
q59 0 111.5 54t65.5 130l10 84q-45 45 -120 45q-77 0 -123 -57.5t-46 -136.5q0 -56 26 -87.5t76 -31.5z" />
    <glyph glyph-name="breve.short" horiz-adv-x="409" 
d="M244 543q-47 0 -74.5 35.5t-23.5 98.5l42 -1q-4 -42 10.5 -67t47.5 -25t54 26t26 67l44 -1q-11 -62 -45 -97.5t-81 -35.5z" />
    <glyph glyph-name="dieresis.short" horiz-adv-x="464" 
d="M204 659q16 0 27.5 -11.5t11.5 -27.5q0 -17 -11.5 -29t-29.5 -12q-16 0 -27 11t-11 28q0 18 11.5 29.5t28.5 11.5zM354 659q16 0 27.5 -11.5t11.5 -27.5q0 -17 -11.5 -29t-28.5 -12t-28 11.5t-11 27.5q0 18 11.5 29.5t28.5 11.5z" />
    <glyph glyph-name="grave.short" horiz-adv-x="436" 
d="M248 683l59 -139h-56l-64 139h61z" />
    <glyph glyph-name="tilde.short" horiz-adv-x="462" 
d="M123 579q35 87 92 87q32 0 66 -32q4 -3 17 -13t21.5 -14.5t17.5 -4.5q37 0 60 60l34 -15q-35 -90 -90 -90q-28 0 -72 39q-35 25 -50 25q-37 0 -63 -59z" />
    <glyph glyph-name="NULL" horiz-adv-x="0" 
 />
    <glyph glyph-name="KB" horiz-adv-x="928" 
d="M450 305q51 -6 86.5 -13.5t79.5 -24t67.5 -45.5t23.5 -69q0 -67 -62 -110.5t-172 -43.5q-94 0 -160 36.5t-94 94.5l21 9q71 -94 200 -94q53 0 87.5 25t34.5 76q0 43 -43.5 86t-117.5 71q-14 -51 -19 -74q42 -7 71 -17l-5 -36h-248l-1 34q49 34 98 50l73 382l-65 19l-2 30
q47 29 117 29l70 -35l-63 -194l-66 -189l10 -2q35 131 90.5 187.5t130.5 56.5q56 0 89 -24t33 -74q0 -60 -49 -98t-146 -38q-37 0 -69 4v-9zM542 504q-26 0 -63.5 -42.5t-68.5 -131.5q90 3 131.5 40.5t41.5 83.5q0 21 -11 35.5t-30 14.5zM89 -107l-12 -39h-6l-8 29l-8 -29
h-6l-12 39h6l9 -28l8 28h6l8 -28l9 28h6zM146 -107l-12 -39h-7l-7 29l-9 -29h-6l-12 39h7l8 -28l8 28h7l7 -28l9 28h7zM202 -107l-12 -39h-6l-8 29l-9 -29h-5l-13 39h7l9 -28l7 28h7l8 -28l8 28h7zM229 -130l-4 -5v-11h-7v39h7v-19l15 19h8l-15 -18l16 -21h-9zM270 -107
q19 0 19 -19q0 -20 -19 -20q-20 0 -20 20q0 19 20 19zM310 -123q12 -4 12 -12q0 -11 -13 -11q-10 0 -15 6l4 5q4 -5 11 -5q6 0 6 4t-7 7q-12 4 -12 11q0 11 12 11q8 0 13 -5l-4 -5q-4 4 -9 4t-5 -4q0 -3 7 -6zM343 -113v-33h-7v33h-11v6h29v-6h-11zM379 -138h-16l-3 -8h-7
l15 39h6l15 -39h-7zM407 -123q12 -3 12 -12q0 -11 -13 -11q-9 0 -14 6l4 5q4 -5 10 -5t6 4t-7 7q-12 4 -12 11q0 11 12 11q8 0 13 -5l-4 -5q-4 4 -9 4t-5 -4q0 -3 7 -6zM447 -125q8 -2 8 -10q0 -11 -13 -11h-16v39h14q13 0 13 -10q0 -7 -6 -8zM483 -138h-15l-3 -8h-7l14 39
h7l14 -39h-7zM520 -146l-9 14h-5v-14h-7v39h15q13 0 13 -13q0 -9 -9 -11l10 -15h-8zM548 -113v-33h-6v33h-11v6h29v-6h-12zM579 -123q12 -4 12 -12q0 -11 -13 -11q-10 0 -15 6l5 5q2 -5 10 -5q6 0 6 4t-7 7q-12 4 -12 11q0 11 12 11q8 0 13 -5l-4 -5q-4 4 -9 4t-5 -4
q0 -3 7 -6zM616 -107q8 0 14 -5.5t6 -13.5q0 -20 -20 -20q-19 0 -19 20q0 19 19 19zM654 -130l-4 -5v-11h-7v39h7v-19l15 19h8l-14 -18l15 -21h-8zM702 -138h-16l-3 -8h-7l14 39h7l14 -39h-6zM730 -123q12 -3 12 -12q0 -11 -13 -11q-9 0 -14 6l4 5q4 -5 10 -5t6 4t-7 7
q-12 4 -12 11q0 11 12 11q8 0 13 -5l-4 -5q-4 4 -9 4t-5 -4q0 -3 7 -6zM779 -140q7 0 10 5l5 -4q-5 -7 -15 -7q-20 0 -20 19q0 20 20 20q9 0 15 -7l-5 -4q-3 5 -10 5q-13 0 -13 -14q0 -13 13 -13zM818 -107q20 0 20 -19q0 -20 -20 -20q-19 0 -19 20q0 19 19 19zM884 -107
v-39h-6v26l-11 -19h-4l-11 19v-26h-6v39h6l13 -23l13 23h6zM270 -140q12 0 12 14q0 13 -12 13q-13 0 -13 -13q0 -14 13 -14zM433 -124h6q7 0 7 6q0 5 -8 5h-5v-11zM506 -126h6q8 0 8 6q0 7 -7 7h-7v-13zM616 -140q13 0 13 14q0 13 -13 13q-12 0 -12 -13q0 -14 12 -14z
M818 -140q13 0 13 14q0 13 -13 13q-12 0 -12 -13q0 -14 12 -14zM376 -132l-5 17l-6 -17h11zM481 -132l-5 17l-6 -17h11zM700 -132l-6 17l-6 -17h12zM440 -140q8 0 8 5q0 6 -8 6h-7v-11h7zM210 -143q0 -3 -3 -3q-4 0 -4 3q0 5 4 5q3 0 3 -5zM755 -143q0 -3 -4 -3t-4 3
q0 5 4 5t4 -5z" />
    <glyph glyph-name="jacute" horiz-adv-x="195" 
d="M229 698h62l-129 -139h-57zM-95 -140q20 -15 49 -15q31 0 50 22.5t26 82.5l66 535h52l-66 -541q-10 -75 -39.5 -111t-83.5 -36q-36 0 -66 18z" />
    <glyph glyph-name="Jacute" horiz-adv-x="458" 
d="M510 934h62l-129 -139h-57zM52 129q50 -81 128 -81q114 0 136 180l59 482h56l-59 -485q-28 -230 -190 -230q-109 0 -168 94z" />
    </font>
</defs>
</svg>
