<svg width="24" height="24" viewBox="0 0 24 24" fill="none" xmlns="http://www.w3.org/2000/svg">
<g id="Add User">
<g id="Iconly/Light-Outline/Add-User">
<g id="Add-User">
<path id="Combined-Shape" fill-rule="evenodd" clip-rule="evenodd" d="M11.877 14.456L11.9961 14.456L12.2601 14.4567C14.502 14.4687 19.754 14.6725 19.754 18.137C19.754 21.3491 15.4406 21.7783 12.0854 21.7945L11.4939 21.7943C9.25199 21.7823 4 21.5785 4 18.115C4 14.835 8.495 14.456 11.877 14.456ZM11.877 15.956C7.646 15.956 5.5 16.683 5.5 18.115C5.5 19.561 7.646 20.295 11.877 20.295C16.108 20.295 18.254 19.568 18.254 18.137C18.254 16.689 16.108 15.956 11.877 15.956ZM11.877 2C14.81 2 17.195 4.386 17.195 7.318C17.195 10.25 14.81 12.636 11.877 12.636H11.846C10.427 12.631 9.097 12.074 8.1 11.07C7.102 10.065 6.555 8.731 6.55997 7.315C6.55997 4.386 8.945 2 11.877 2ZM11.877 3.5C9.773 3.5 8.05997 5.213 8.05997 7.318C8.056 8.337 8.448 9.292 9.163 10.013C9.879 10.733 10.833 11.132 11.849 11.136L11.877 11.877V11.136C13.982 11.136 15.695 9.423 15.695 7.318C15.695 5.213 13.982 3.5 11.877 3.5Z" fill="black"/>
</g>
</g>
</g>
</svg>
